<svg width="68" height="51" viewBox="0 0 68 51" fill="none" xmlns="http://www.w3.org/2000/svg">
<path opacity="0.9" d="M50.25 17.2H0.25V33.2999H50.25V17.2Z" fill="white"/>
<path opacity="0.9" d="M25.2198 43.2799C20.9798 43.2799 16.9198 41.7999 13.6298 39.0399C9.94984 35.9399 7.68986 31.5899 7.27986 26.7899C6.42986 16.8799 13.7998 8.13994 23.7098 7.28994C28.5098 6.87994 33.1798 8.35994 36.8598 11.4699C40.5398 14.5699 42.7998 18.9199 43.2098 23.7199C43.6198 28.5199 42.1399 33.1899 39.0299 36.8699C35.9299 40.5499 31.5799 42.8099 26.7799 43.2199C26.2599 43.2599 25.7398 43.2799 25.2198 43.2799ZM25.2699 12.0699C24.8899 12.0699 24.5098 12.0899 24.1198 12.1199C20.6098 12.4199 17.4299 14.0699 15.1599 16.7599C12.8899 19.4499 11.8098 22.8699 12.1098 26.3699C12.4098 29.8799 14.0598 33.0599 16.7498 35.3299C19.4398 37.5999 22.8598 38.6799 26.3598 38.3799C29.8698 38.0799 33.0498 36.4299 35.3198 33.7399C37.5898 31.0499 38.6698 27.6299 38.3698 24.1299C38.0698 20.6199 36.4198 17.4399 33.7298 15.1699C31.3398 13.1499 28.3699 12.0699 25.2699 12.0699Z" fill="white"/>
<path d="M47.1899 22.7699L46.74 22.5599L55.65 3.35986H68V3.85986H55.97L47.1899 22.7699Z" fill="white"/>
<path d="M67.7098 40.1499H29.3298V40.6499H67.7098V40.1499Z" fill="white"/>
<path d="M50.5 50.5H0V0H50.5V50.5ZM0.5 50H50V0.5H0.5V50Z" fill="white"/>
</svg>
