<svg width="51" height="51" viewBox="0 0 51 51" fill="none" xmlns="http://www.w3.org/2000/svg">
<mask id="mask0_115_743" style="mask-type:luminance" maskUnits="userSpaceOnUse" x="0" y="0" width="51" height="51">
<path d="M50.1101 0.119873H0.110107V50.1199H50.1101V0.119873Z" fill="white"/>
</mask>
<g mask="url(#mask0_115_743)">
<path d="M49.9119 -2.45046L7.59766 52.3303L9.33874 53.6752L51.653 -1.1056L49.9119 -2.45046Z" fill="#D32D97"/>
<path d="M33.3345 -1.94205L-2.19604 35.9305L-1.83869 36.2658L33.6919 -1.60679L33.3345 -1.94205Z" fill="#D32D97"/>
<path d="M7.47726 -2.71689L5.6355 -1.11621L51.5752 51.7424L53.4169 50.1418L7.47726 -2.71689Z" fill="#D32D97"/>
<path d="M35.212 -1.69644L34.3438 52.9081L35.0737 52.9197L35.942 -1.68484L35.212 -1.69644Z" fill="#D32D97"/>
<path d="M-1.18779 -2.00213L-2.56494 -1.51709L16.7724 53.3866L18.1496 52.9015L-1.18779 -2.00213Z" fill="#D32D97"/>
<path d="M52.6703 19.6899H-1.96973V20.4199H52.6703V19.6899Z" fill="#D32D97"/>
</g>
<path d="M50.5 50.5H0V0H50.5V50.5ZM0.5 50H50V0.5H0.5V50Z" fill="white"/>
</svg>
