<svg width="918" height="181" viewBox="0 0 918 181" fill="none" xmlns="http://www.w3.org/2000/svg">
<path d="M81.1903 101.22V105.28H69.6103V109.98H80.2503V113.73H69.6103V119.11H81.4403V123.17H64.7803V101.22H81.1903Z" fill="white"/>
<path d="M87.5103 123.16L82.0703 107.27H86.6503L90.0003 118.12H90.0603L93.4103 107.27H97.7403L92.3603 123.16H87.5103Z" fill="white"/>
<path d="M99.04 111.77C99.43 110.74 99.98 109.85 100.7 109.13C101.42 108.4 102.28 107.84 103.28 107.44C104.28 107.04 105.41 106.84 106.66 106.84C107.91 106.84 109.04 107.04 110.06 107.44C111.07 107.84 111.94 108.4 112.66 109.13C113.38 109.86 113.93 110.74 114.32 111.77C114.71 112.81 114.9 113.96 114.9 115.23C114.9 116.5 114.7 117.65 114.32 118.67C113.93 119.69 113.38 120.57 112.66 121.3C111.94 122.03 111.08 122.59 110.06 122.98C109.04 123.37 107.91 123.56 106.66 123.56C105.41 123.56 104.28 123.37 103.28 122.98C102.28 122.59 101.42 122.03 100.7 121.3C99.98 120.57 99.43 119.7 99.04 118.67C98.65 117.65 98.46 116.5 98.46 115.23C98.46 113.96 98.65 112.81 99.04 111.77ZM103.01 117.09C103.13 117.69 103.34 118.24 103.64 118.72C103.94 119.2 104.33 119.59 104.82 119.87C105.31 120.16 105.93 120.3 106.66 120.3C107.4 120.3 108.02 120.16 108.52 119.87C109.02 119.58 109.42 119.2 109.72 118.72C110.02 118.24 110.23 117.7 110.35 117.09C110.47 116.49 110.53 115.87 110.53 115.23C110.53 114.59 110.47 113.97 110.35 113.35C110.23 112.73 110.02 112.19 109.72 111.72C109.42 111.25 109.02 110.86 108.52 110.57C108.02 110.27 107.4 110.12 106.66 110.12C105.92 110.12 105.31 110.27 104.82 110.57C104.33 110.87 103.93 111.25 103.64 111.72C103.34 112.19 103.13 112.73 103.01 113.35C102.89 113.97 102.83 114.59 102.83 115.23C102.83 115.87 102.88 116.49 103.01 117.09Z" fill="white"/>
<path d="M122.12 101.22V123.17H117.75V101.22H122.12Z" fill="white"/>
<path d="M136.321 123.16V120.95H136.231C135.681 121.87 134.961 122.54 134.081 122.95C133.201 123.36 132.301 123.56 131.371 123.56C130.201 123.56 129.241 123.41 128.501 123.1C127.751 122.79 127.161 122.36 126.731 121.79C126.301 121.23 126.001 120.54 125.821 119.73C125.641 118.92 125.561 118.02 125.561 117.04V107.26H129.921V116.24C129.921 117.55 130.131 118.53 130.541 119.18C130.951 119.83 131.681 120.15 132.721 120.15C133.911 120.15 134.771 119.8 135.301 119.09C135.831 118.38 136.101 117.22 136.101 115.6V107.27H140.471V123.16H136.321Z" fill="white"/>
<path d="M152.61 107.27V110.19H149.41V118.06C149.41 118.8 149.53 119.29 149.78 119.54C150.03 119.79 150.52 119.91 151.26 119.91C151.51 119.91 151.74 119.9 151.97 119.88C152.19 119.86 152.41 119.83 152.62 119.79V123.17C152.25 123.23 151.84 123.27 151.39 123.29C150.94 123.31 150.5 123.32 150.07 123.32C149.39 123.32 148.75 123.27 148.15 123.18C147.54 123.09 147.01 122.91 146.55 122.64C146.09 122.37 145.72 121.99 145.46 121.5C145.19 121.01 145.06 120.36 145.06 119.56V110.18H142.4V107.26H145.04V102.5H149.41V107.26H152.61V107.27Z" fill="white"/>
<path d="M155.011 104.81V101.21H159.381V104.81H155.011ZM159.381 107.27V123.16H155.011V107.27H159.381Z" fill="white"/>
<path d="M162.81 111.77C163.2 110.74 163.75 109.85 164.47 109.13C165.19 108.4 166.05 107.84 167.05 107.44C168.05 107.04 169.18 106.84 170.43 106.84C171.68 106.84 172.81 107.04 173.83 107.44C174.84 107.84 175.71 108.4 176.43 109.13C177.15 109.86 177.7 110.74 178.09 111.77C178.48 112.81 178.67 113.96 178.67 115.23C178.67 116.5 178.47 117.65 178.09 118.67C177.7 119.69 177.15 120.57 176.43 121.3C175.71 122.03 174.85 122.59 173.83 122.98C172.81 123.37 171.68 123.56 170.43 123.56C169.18 123.56 168.05 123.37 167.05 122.98C166.05 122.59 165.19 122.03 164.47 121.3C163.75 120.57 163.2 119.7 162.81 118.67C162.42 117.65 162.23 116.5 162.23 115.23C162.23 113.96 162.42 112.81 162.81 111.77ZM166.78 117.09C166.9 117.69 167.11 118.24 167.41 118.72C167.71 119.2 168.1 119.59 168.59 119.87C169.08 120.16 169.7 120.3 170.43 120.3C171.17 120.3 171.79 120.16 172.29 119.87C172.79 119.58 173.19 119.2 173.49 118.72C173.79 118.24 174 117.7 174.12 117.09C174.24 116.49 174.3 115.87 174.3 115.23C174.3 114.59 174.24 113.97 174.12 113.35C174 112.73 173.79 112.19 173.49 111.72C173.19 111.25 172.79 110.86 172.29 110.57C171.79 110.27 171.17 110.12 170.43 110.12C169.69 110.12 169.08 110.27 168.59 110.57C168.1 110.87 167.7 111.25 167.41 111.72C167.11 112.19 166.9 112.73 166.78 113.35C166.66 113.97 166.6 114.59 166.6 115.23C166.6 115.87 166.66 116.49 166.78 117.09Z" fill="white"/>
<path d="M185.58 107.27V109.48H185.67C186.22 108.56 186.94 107.89 187.82 107.47C188.7 107.05 189.6 106.84 190.53 106.84C191.7 106.84 192.66 107 193.4 107.32C194.14 107.64 194.74 108.08 195.17 108.64C195.6 109.2 195.9 109.89 196.08 110.7C196.25 111.51 196.34 112.41 196.34 113.39V123.17H191.97V114.19C191.97 112.88 191.76 111.9 191.36 111.25C190.95 110.6 190.22 110.28 189.18 110.28C187.99 110.28 187.13 110.63 186.6 111.34C186.07 112.05 185.8 113.21 185.8 114.83V123.16H181.44V107.27H185.58Z" fill="white"/>
<path d="M208.301 111.77C208.691 110.74 209.241 109.85 209.961 109.13C210.681 108.4 211.541 107.84 212.541 107.44C213.541 107.04 214.671 106.84 215.921 106.84C217.171 106.84 218.301 107.04 219.321 107.44C220.331 107.84 221.201 108.4 221.921 109.13C222.641 109.86 223.191 110.74 223.581 111.77C223.971 112.81 224.161 113.96 224.161 115.23C224.161 116.5 223.961 117.65 223.581 118.67C223.191 119.69 222.641 120.57 221.921 121.3C221.201 122.03 220.341 122.59 219.321 122.98C218.301 123.37 217.171 123.56 215.921 123.56C214.671 123.56 213.541 123.37 212.541 122.98C211.541 122.59 210.681 122.03 209.961 121.3C209.241 120.57 208.691 119.7 208.301 118.67C207.911 117.65 207.721 116.5 207.721 115.23C207.721 113.96 207.911 112.81 208.301 111.77ZM212.261 117.09C212.381 117.69 212.591 118.24 212.891 118.72C213.191 119.2 213.581 119.59 214.071 119.87C214.561 120.16 215.181 120.3 215.911 120.3C216.651 120.3 217.271 120.16 217.771 119.87C218.271 119.58 218.671 119.2 218.971 118.72C219.271 118.24 219.481 117.7 219.601 117.09C219.721 116.49 219.781 115.87 219.781 115.23C219.781 114.59 219.721 113.97 219.601 113.35C219.481 112.73 219.271 112.19 218.971 111.72C218.671 111.25 218.271 110.86 217.771 110.57C217.271 110.27 216.651 110.12 215.911 110.12C215.171 110.12 214.561 110.27 214.071 110.57C213.581 110.87 213.181 111.25 212.891 111.72C212.591 112.19 212.381 112.73 212.261 113.35C212.141 113.97 212.081 114.59 212.081 115.23C212.081 115.87 212.141 116.49 212.261 117.09Z" fill="white"/>
<path d="M225.17 110.19V107.27H227.78V106.04C227.78 104.63 228.22 103.47 229.1 102.57C229.98 101.67 231.31 101.22 233.1 101.22C233.49 101.22 233.88 101.24 234.27 101.27C234.66 101.3 235.04 101.33 235.41 101.35V104.61C234.9 104.55 234.37 104.52 233.81 104.52C233.22 104.52 232.79 104.66 232.53 104.94C232.27 105.22 232.15 105.68 232.15 106.34V107.29H235.16V110.21H232.15V123.18H227.78V110.19H225.17Z" fill="white"/>
<path d="M262.21 121.49C260.55 122.93 258.25 123.66 255.32 123.66C252.35 123.66 250.05 122.94 248.42 121.51C246.79 120.08 245.98 117.86 245.98 114.87V101.22H250.81V114.87C250.81 115.46 250.86 116.05 250.96 116.62C251.06 117.19 251.28 117.7 251.61 118.14C251.94 118.58 252.39 118.94 252.98 119.22C253.56 119.5 254.35 119.64 255.33 119.64C257.05 119.64 258.24 119.26 258.9 118.49C259.56 117.72 259.88 116.52 259.88 114.88V101.22H264.71V114.87C264.7 117.84 263.87 120.04 262.21 121.49Z" fill="white"/>
<path d="M272.48 107.27V110.22H272.54C272.75 109.73 273.02 109.27 273.37 108.85C273.72 108.43 274.12 108.07 274.57 107.77C275.02 107.47 275.5 107.24 276.01 107.08C276.52 106.92 277.06 106.83 277.61 106.83C277.9 106.83 278.21 106.88 278.56 106.98V111.04C278.35 111 278.11 110.96 277.82 110.93C277.53 110.9 277.26 110.88 276.99 110.88C276.19 110.88 275.51 111.01 274.96 111.28C274.41 111.55 273.96 111.91 273.62 112.37C273.28 112.83 273.04 113.37 272.9 113.98C272.76 114.59 272.69 115.26 272.69 115.98V123.14H268.32V107.27H272.48Z" fill="white"/>
<path d="M284.801 101.22V109.21H284.861C285.391 108.39 286.111 107.79 287.031 107.41C287.941 107.03 288.891 106.84 289.871 106.84C290.671 106.84 291.461 107 292.241 107.33C293.021 107.66 293.721 108.16 294.351 108.84C294.971 109.52 295.481 110.38 295.871 111.44C296.261 112.5 296.451 113.75 296.451 115.21C296.451 116.67 296.251 117.92 295.871 118.98C295.481 120.04 294.971 120.9 294.351 121.58C293.721 122.26 293.021 122.76 292.241 123.09C291.461 123.42 290.671 123.58 289.871 123.58C288.701 123.58 287.661 123.4 286.731 123.03C285.811 122.66 285.111 122.04 284.641 121.15H284.581V123.18H280.431V101.22H284.801ZM291.871 113.3C291.731 112.69 291.501 112.14 291.191 111.67C290.881 111.2 290.501 110.82 290.041 110.55C289.581 110.28 289.021 110.13 288.361 110.13C287.731 110.13 287.171 110.27 286.701 110.55C286.231 110.83 285.841 111.2 285.531 111.67C285.221 112.14 285.001 112.68 284.851 113.3C284.711 113.92 284.631 114.56 284.631 115.24C284.631 115.9 284.701 116.53 284.851 117.15C284.991 117.76 285.221 118.31 285.531 118.78C285.841 119.25 286.231 119.63 286.701 119.9C287.171 120.18 287.731 120.32 288.361 120.32C289.021 120.32 289.571 120.18 290.041 119.9C290.501 119.62 290.881 119.25 291.191 118.78C291.501 118.31 291.721 117.77 291.871 117.15C292.011 116.54 292.081 115.9 292.081 115.24C292.091 114.56 292.021 113.91 291.871 113.3Z" fill="white"/>
<path d="M298.921 112.16C298.981 111.14 299.241 110.28 299.691 109.61C300.141 108.93 300.711 108.39 301.411 107.98C302.111 107.57 302.891 107.28 303.761 107.1C304.631 106.93 305.511 106.84 306.391 106.84C307.191 106.84 308.001 106.9 308.821 107.01C309.641 107.12 310.391 107.34 311.061 107.67C311.741 108 312.291 108.45 312.721 109.04C313.151 109.62 313.371 110.4 313.371 111.36V119.63C313.371 120.35 313.411 121.03 313.491 121.69C313.571 122.35 313.711 122.84 313.921 123.17H309.491C309.411 122.92 309.341 122.67 309.291 122.42C309.241 122.16 309.201 121.9 309.181 121.64C308.481 122.36 307.661 122.86 306.721 123.15C305.781 123.44 304.811 123.58 303.831 123.58C303.071 123.58 302.361 123.49 301.711 123.3C301.051 123.12 300.481 122.83 299.991 122.44C299.501 122.05 299.111 121.56 298.841 120.96C298.561 120.37 298.431 119.66 298.431 118.84C298.431 117.94 298.591 117.2 298.911 116.61C299.231 116.03 299.641 115.56 300.141 115.21C300.641 114.86 301.221 114.6 301.861 114.43C302.511 114.26 303.161 114.12 303.811 114.01C304.471 113.91 305.111 113.83 305.751 113.76C306.381 113.7 306.951 113.61 307.441 113.48C307.931 113.36 308.321 113.18 308.611 112.94C308.901 112.7 309.031 112.36 309.011 111.91C309.011 111.44 308.931 111.06 308.781 110.79C308.631 110.51 308.421 110.3 308.161 110.14C307.901 109.99 307.611 109.88 307.271 109.83C306.931 109.78 306.571 109.75 306.181 109.75C305.321 109.75 304.641 109.93 304.151 110.3C303.661 110.67 303.371 111.28 303.291 112.14H298.921V112.16ZM309.011 115.39C308.831 115.55 308.591 115.68 308.321 115.77C308.041 115.86 307.751 115.94 307.431 116C307.111 116.06 306.781 116.11 306.431 116.15C306.081 116.19 305.731 116.24 305.381 116.3C305.051 116.36 304.731 116.44 304.411 116.55C304.091 116.65 303.821 116.79 303.581 116.97C303.341 117.15 303.151 117.36 303.011 117.63C302.871 117.9 302.791 118.23 302.791 118.64C302.791 119.03 302.861 119.36 303.011 119.62C303.151 119.89 303.351 120.1 303.591 120.25C303.831 120.4 304.121 120.51 304.451 120.57C304.781 120.63 305.121 120.66 305.461 120.66C306.321 120.66 306.991 120.52 307.461 120.23C307.931 119.94 308.281 119.6 308.501 119.2C308.731 118.8 308.861 118.4 308.921 117.99C308.971 117.58 309.001 117.25 309.001 117.01V115.39H309.011Z" fill="white"/>
<path d="M320.97 107.27V109.48H321.06C321.61 108.56 322.33 107.89 323.21 107.47C324.09 107.05 324.99 106.84 325.92 106.84C327.09 106.84 328.05 107 328.8 107.32C329.55 107.64 330.14 108.08 330.57 108.64C331 109.2 331.3 109.89 331.48 110.7C331.66 111.51 331.74 112.41 331.74 113.39V123.17H327.37V114.19C327.37 112.88 327.16 111.9 326.75 111.25C326.34 110.6 325.61 110.28 324.57 110.28C323.38 110.28 322.52 110.63 321.99 111.34C321.46 112.05 321.19 113.21 321.19 114.83V123.16H316.82V107.27H320.97Z" fill="white"/>
<path d="M350.85 101.22L355.98 116.31H356.04L360.9 101.22H367.69V123.17H363.17V107.61H363.11L357.73 123.16H354.01L348.63 107.76H348.57V123.16H344.05V101.22H350.85Z" fill="white"/>
<path d="M376.14 119.35C376.8 119.99 377.74 120.3 378.97 120.3C379.85 120.3 380.61 120.08 381.24 119.64C381.88 119.2 382.26 118.73 382.41 118.24H386.25C385.64 120.15 384.69 121.51 383.42 122.33C382.15 123.15 380.61 123.56 378.81 123.56C377.56 123.56 376.43 123.36 375.43 122.96C374.43 122.56 373.58 121.99 372.88 121.25C372.18 120.51 371.64 119.63 371.27 118.61C370.89 117.59 370.7 116.46 370.7 115.23C370.7 114.04 370.89 112.94 371.28 111.91C371.67 110.89 372.22 110 372.94 109.25C373.66 108.5 374.51 107.91 375.51 107.48C376.5 107.05 377.6 106.83 378.81 106.83C380.16 106.83 381.34 107.09 382.35 107.61C383.35 108.13 384.18 108.84 384.82 109.72C385.47 110.6 385.93 111.61 386.22 112.73C386.51 113.86 386.61 115.04 386.53 116.27H375.06C375.13 117.69 375.49 118.72 376.14 119.35ZM381.08 110.99C380.56 110.42 379.76 110.13 378.7 110.13C378 110.13 377.42 110.25 376.96 110.48C376.5 110.72 376.13 111.01 375.85 111.36C375.57 111.71 375.38 112.08 375.27 112.47C375.16 112.86 375.09 113.21 375.07 113.51H382.17C381.96 112.4 381.6 111.56 381.08 110.99Z" fill="white"/>
<path d="M397.701 107.27V110.19H394.501V118.06C394.501 118.8 394.621 119.29 394.871 119.54C395.121 119.79 395.611 119.91 396.351 119.91C396.601 119.91 396.831 119.9 397.061 119.88C397.291 119.86 397.501 119.83 397.711 119.79V123.17C397.341 123.23 396.931 123.27 396.481 123.29C396.031 123.31 395.591 123.32 395.161 123.32C394.481 123.32 393.841 123.27 393.241 123.18C392.641 123.09 392.101 122.91 391.641 122.64C391.181 122.37 390.811 121.99 390.551 121.5C390.281 121.01 390.151 120.36 390.151 119.56V110.18H387.511V107.26H390.151V102.5H394.511V107.26H397.701V107.27Z" fill="white"/>
<path d="M404.161 107.27V110.22H404.221C404.421 109.73 404.701 109.27 405.051 108.85C405.401 108.43 405.801 108.07 406.251 107.77C406.701 107.47 407.181 107.24 407.701 107.08C408.211 106.92 408.741 106.83 409.301 106.83C409.591 106.83 409.901 106.88 410.251 106.98V111.04C410.041 111 409.801 110.96 409.511 110.93C409.221 110.9 408.951 110.88 408.681 110.88C407.881 110.88 407.201 111.01 406.651 111.28C406.101 111.55 405.651 111.91 405.311 112.37C404.971 112.83 404.731 113.37 404.591 113.98C404.451 114.59 404.371 115.26 404.371 115.98V123.14H400.011V107.27H404.161Z" fill="white"/>
<path d="M412.12 111.77C412.51 110.74 413.06 109.85 413.78 109.13C414.5 108.4 415.36 107.84 416.36 107.44C417.36 107.04 418.49 106.84 419.74 106.84C420.99 106.84 422.12 107.04 423.14 107.44C424.15 107.84 425.02 108.4 425.74 109.13C426.46 109.86 427.01 110.74 427.4 111.77C427.79 112.81 427.98 113.96 427.98 115.23C427.98 116.5 427.78 117.65 427.4 118.67C427.01 119.69 426.46 120.57 425.74 121.3C425.02 122.03 424.16 122.59 423.14 122.98C422.12 123.37 420.99 123.56 419.74 123.56C418.49 123.56 417.36 123.37 416.36 122.98C415.36 122.59 414.5 122.03 413.78 121.3C413.06 120.57 412.51 119.7 412.12 118.67C411.73 117.65 411.54 116.5 411.54 115.23C411.54 113.96 411.73 112.81 412.12 111.77ZM416.08 117.09C416.2 117.69 416.41 118.24 416.71 118.72C417.01 119.2 417.4 119.59 417.89 119.87C418.38 120.16 419 120.3 419.73 120.3C420.47 120.3 421.09 120.16 421.59 119.87C422.09 119.58 422.49 119.2 422.79 118.72C423.09 118.24 423.3 117.7 423.42 117.09C423.54 116.49 423.6 115.87 423.6 115.23C423.6 114.59 423.54 113.97 423.42 113.35C423.3 112.73 423.09 112.19 422.79 111.72C422.49 111.25 422.09 110.86 421.59 110.57C421.09 110.27 420.47 110.12 419.73 110.12C418.99 110.12 418.38 110.27 417.89 110.57C417.4 110.87 417 111.25 416.71 111.72C416.41 112.19 416.2 112.73 416.08 113.35C415.96 113.97 415.9 114.59 415.9 115.23C415.9 115.87 415.96 116.49 416.08 117.09Z" fill="white"/>
<path d="M444.64 101.22V119.11H455.34V123.17H439.82V101.22H444.64Z" fill="white"/>
<path d="M457.51 104.81V101.21H461.88V104.81H457.51ZM461.87 107.27V123.16H457.5V107.27H461.87Z" fill="white"/>
<path d="M469.48 107.27V109.48H469.57C470.12 108.56 470.84 107.89 471.72 107.47C472.6 107.05 473.5 106.84 474.43 106.84C475.6 106.84 476.56 107 477.3 107.32C478.04 107.64 478.64 108.08 479.07 108.64C479.5 109.2 479.8 109.89 479.98 110.7C480.15 111.51 480.24 112.41 480.24 113.39V123.17H475.87V114.19C475.87 112.88 475.66 111.9 475.26 111.25C474.85 110.6 474.12 110.28 473.08 110.28C471.89 110.28 471.03 110.63 470.5 111.34C469.97 112.05 469.7 113.21 469.7 114.83V123.16H465.34V107.27H469.48Z" fill="white"/>
<path d="M488.27 119.35C488.93 119.99 489.87 120.3 491.1 120.3C491.98 120.3 492.74 120.08 493.37 119.64C494 119.2 494.39 118.73 494.54 118.24H498.38C497.76 120.15 496.82 121.51 495.55 122.33C494.28 123.15 492.74 123.56 490.94 123.56C489.69 123.56 488.56 123.36 487.56 122.96C486.56 122.56 485.7 121.99 485.01 121.25C484.31 120.51 483.77 119.63 483.4 118.61C483.03 117.59 482.83 116.46 482.83 115.23C482.83 114.04 483.02 112.94 483.41 111.91C483.8 110.89 484.35 110 485.07 109.25C485.79 108.5 486.64 107.91 487.64 107.48C488.64 107.05 489.74 106.83 490.94 106.83C492.29 106.83 493.47 107.09 494.48 107.61C495.49 108.13 496.31 108.84 496.95 109.72C497.6 110.6 498.06 111.61 498.35 112.73C498.64 113.86 498.74 115.04 498.66 116.27H487.19C487.25 117.69 487.61 118.72 488.27 119.35ZM493.2 110.99C492.68 110.42 491.88 110.13 490.82 110.13C490.12 110.13 489.54 110.25 489.08 110.48C488.62 110.72 488.25 111.01 487.97 111.36C487.69 111.71 487.5 112.08 487.39 112.47C487.28 112.86 487.21 113.21 487.19 113.51H494.29C494.09 112.4 493.73 111.56 493.2 110.99Z" fill="white"/>
<path d="M504.86 119.21C505.05 119.55 505.31 119.82 505.61 120.04C505.92 120.26 506.27 120.41 506.67 120.52C507.07 120.63 507.48 120.67 507.92 120.67C508.23 120.67 508.55 120.63 508.89 120.56C509.23 120.49 509.54 120.38 509.81 120.22C510.08 120.06 510.32 119.86 510.5 119.61C510.68 119.36 510.78 119.03 510.78 118.64C510.78 117.98 510.34 117.49 509.47 117.16C508.6 116.83 507.38 116.5 505.83 116.18C505.19 116.04 504.57 115.87 503.97 115.67C503.37 115.48 502.83 115.22 502.36 114.9C501.89 114.58 501.51 114.18 501.22 113.7C500.93 113.22 500.79 112.63 500.79 111.93C500.79 110.91 500.99 110.07 501.39 109.41C501.79 108.75 502.32 108.24 502.97 107.86C503.63 107.48 504.36 107.21 505.18 107.06C506 106.91 506.84 106.83 507.7 106.83C508.56 106.83 509.4 106.91 510.2 107.08C511.01 107.24 511.73 107.52 512.37 107.91C513.01 108.3 513.53 108.82 513.95 109.46C514.37 110.11 514.62 110.92 514.7 111.9H510.55C510.49 111.06 510.17 110.49 509.6 110.19C509.03 109.89 508.35 109.74 507.57 109.74C507.32 109.74 507.06 109.76 506.77 109.79C506.48 109.82 506.22 109.89 505.99 109.99C505.75 110.09 505.55 110.24 505.39 110.44C505.23 110.63 505.14 110.9 505.14 111.22C505.14 111.61 505.28 111.93 505.57 112.17C505.86 112.42 506.23 112.62 506.69 112.77C507.15 112.92 507.68 113.06 508.27 113.19C508.86 113.31 509.47 113.45 510.08 113.59C510.71 113.73 511.33 113.91 511.94 114.11C512.54 114.32 513.08 114.59 513.55 114.92C514.02 115.26 514.4 115.68 514.69 116.18C514.98 116.68 515.12 117.3 515.12 118.04C515.12 119.09 514.91 119.96 514.49 120.67C514.07 121.38 513.52 121.95 512.85 122.38C512.17 122.81 511.4 123.11 510.53 123.29C509.66 123.47 508.77 123.55 507.87 123.55C506.95 123.55 506.05 123.46 505.16 123.27C504.28 123.09 503.49 122.78 502.81 122.35C502.12 121.92 501.56 121.35 501.12 120.64C500.68 119.93 500.44 119.05 500.4 117.98H504.55C504.57 118.47 504.67 118.88 504.86 119.21Z" fill="white"/>
<path d="M537.65 101.22L545.86 123.17H540.85L539.19 118.28H530.98L529.26 123.17H524.4L532.7 101.22H537.65ZM537.92 114.68L535.15 106.63H535.09L532.23 114.68H537.92Z" fill="white"/>
<path d="M554.42 110.13C553.72 110.13 553.14 110.29 552.67 110.61C552.2 110.93 551.81 111.34 551.52 111.84C551.22 112.34 551.01 112.9 550.89 113.5C550.77 114.1 550.71 114.7 550.71 115.3C550.71 115.87 550.77 116.46 550.89 117.05C551.01 117.64 551.21 118.18 551.49 118.66C551.77 119.14 552.14 119.54 552.61 119.84C553.08 120.15 553.66 120.3 554.33 120.3C555.37 120.3 556.18 120.01 556.74 119.42C557.3 118.83 557.66 118.05 557.8 117.07H562.01C561.72 119.18 560.9 120.79 559.55 121.9C558.2 123.01 556.47 123.56 554.36 123.56C553.17 123.56 552.08 123.36 551.09 122.96C550.1 122.56 549.25 122 548.55 121.28C547.85 120.56 547.31 119.71 546.92 118.71C546.53 117.72 546.34 116.63 546.34 115.44C546.34 114.21 546.52 113.07 546.88 112.01C547.24 110.95 547.77 110.04 548.46 109.27C549.16 108.5 550.01 107.9 551.01 107.47C552.01 107.04 553.16 106.82 554.45 106.82C555.39 106.82 556.3 106.94 557.17 107.19C558.04 107.44 558.82 107.81 559.51 108.31C560.2 108.81 560.76 109.44 561.19 110.19C561.62 110.94 561.87 111.82 561.93 112.85H557.66C557.36 111.04 556.28 110.13 554.42 110.13Z" fill="white"/>
<path d="M568.7 107.27V110.22H568.76C568.96 109.73 569.24 109.27 569.59 108.85C569.94 108.43 570.34 108.07 570.79 107.77C571.24 107.47 571.72 107.24 572.24 107.08C572.75 106.92 573.28 106.83 573.84 106.83C574.13 106.83 574.44 106.88 574.79 106.98V111.04C574.58 111 574.34 110.96 574.05 110.93C573.76 110.9 573.49 110.88 573.22 110.88C572.42 110.88 571.74 111.01 571.19 111.28C570.64 111.55 570.19 111.91 569.85 112.37C569.51 112.83 569.27 113.37 569.13 113.98C568.99 114.59 568.91 115.26 568.91 115.98V123.14H564.55V107.27H568.7Z" fill="white"/>
<path d="M576.66 111.77C577.05 110.74 577.6 109.85 578.32 109.13C579.04 108.4 579.9 107.84 580.9 107.44C581.9 107.04 583.03 106.84 584.28 106.84C585.53 106.84 586.66 107.04 587.68 107.44C588.69 107.84 589.56 108.4 590.28 109.13C591 109.86 591.55 110.74 591.94 111.77C592.33 112.81 592.52 113.96 592.52 115.23C592.52 116.5 592.32 117.65 591.94 118.67C591.55 119.69 591 120.57 590.28 121.3C589.56 122.03 588.7 122.59 587.68 122.98C586.66 123.37 585.53 123.56 584.28 123.56C583.03 123.56 581.9 123.37 580.9 122.98C579.9 122.59 579.04 122.03 578.32 121.3C577.6 120.57 577.05 119.7 576.66 118.67C576.27 117.65 576.08 116.5 576.08 115.23C576.08 113.96 576.27 112.81 576.66 111.77ZM580.63 117.09C580.75 117.69 580.96 118.24 581.26 118.72C581.56 119.2 581.95 119.59 582.44 119.87C582.93 120.16 583.55 120.3 584.28 120.3C585.02 120.3 585.64 120.16 586.14 119.87C586.64 119.58 587.04 119.2 587.34 118.72C587.64 118.24 587.85 117.7 587.97 117.09C588.09 116.49 588.15 115.87 588.15 115.23C588.15 114.59 588.09 113.97 587.97 113.35C587.85 112.73 587.64 112.19 587.34 111.72C587.04 111.25 586.64 110.86 586.14 110.57C585.64 110.27 585.02 110.12 584.28 110.12C583.54 110.12 582.93 110.27 582.44 110.57C581.95 110.87 581.55 111.25 581.26 111.72C580.96 112.19 580.75 112.73 580.63 113.35C580.51 113.97 580.45 114.59 580.45 115.23C580.45 115.87 580.51 116.49 580.63 117.09Z" fill="white"/>
<path d="M598.86 119.21C599.05 119.55 599.31 119.82 599.61 120.04C599.92 120.26 600.27 120.41 600.67 120.52C601.07 120.63 601.48 120.67 601.92 120.67C602.23 120.67 602.55 120.63 602.89 120.56C603.23 120.49 603.54 120.38 603.81 120.22C604.08 120.06 604.32 119.86 604.5 119.61C604.68 119.36 604.78 119.03 604.78 118.64C604.78 117.98 604.34 117.49 603.47 117.16C602.6 116.83 601.38 116.5 599.83 116.18C599.19 116.04 598.57 115.87 597.97 115.67C597.37 115.48 596.83 115.22 596.36 114.9C595.89 114.58 595.51 114.18 595.22 113.7C594.93 113.22 594.79 112.63 594.79 111.93C594.79 110.91 594.99 110.07 595.39 109.41C595.79 108.75 596.32 108.24 596.97 107.86C597.63 107.48 598.36 107.21 599.18 107.06C600 106.91 600.84 106.83 601.7 106.83C602.56 106.83 603.4 106.91 604.2 107.08C605.01 107.24 605.73 107.52 606.37 107.91C607.01 108.3 607.53 108.82 607.95 109.46C608.37 110.11 608.62 110.92 608.7 111.9H604.55C604.49 111.06 604.17 110.49 603.6 110.19C603.03 109.89 602.35 109.74 601.57 109.74C601.32 109.74 601.06 109.76 600.77 109.79C600.48 109.82 600.22 109.89 599.99 109.99C599.75 110.09 599.55 110.24 599.39 110.44C599.23 110.63 599.14 110.9 599.14 111.22C599.14 111.61 599.28 111.93 599.57 112.17C599.86 112.42 600.23 112.62 600.69 112.77C601.15 112.92 601.68 113.06 602.27 113.19C602.86 113.31 603.47 113.45 604.08 113.59C604.71 113.73 605.33 113.91 605.94 114.11C606.54 114.32 607.08 114.59 607.55 114.92C608.02 115.26 608.4 115.68 608.69 116.18C608.98 116.68 609.12 117.3 609.12 118.04C609.12 119.09 608.91 119.96 608.49 120.67C608.07 121.38 607.52 121.95 606.85 122.38C606.17 122.81 605.4 123.11 604.53 123.29C603.66 123.47 602.77 123.55 601.87 123.55C600.95 123.55 600.05 123.46 599.16 123.27C598.28 123.09 597.49 122.78 596.81 122.35C596.12 121.92 595.56 121.35 595.12 120.64C594.68 119.93 594.44 119.05 594.4 117.98H598.55C598.57 118.47 598.67 118.88 598.86 119.21Z" fill="white"/>
<path d="M615.49 119.21C615.68 119.55 615.94 119.82 616.24 120.04C616.55 120.26 616.9 120.41 617.3 120.52C617.7 120.63 618.11 120.67 618.55 120.67C618.86 120.67 619.18 120.63 619.52 120.56C619.86 120.49 620.17 120.38 620.44 120.22C620.71 120.06 620.95 119.86 621.13 119.61C621.31 119.36 621.41 119.03 621.41 118.64C621.41 117.98 620.97 117.49 620.1 117.16C619.23 116.83 618.01 116.5 616.46 116.18C615.82 116.04 615.2 115.87 614.6 115.67C614 115.48 613.46 115.22 612.99 114.9C612.52 114.58 612.14 114.18 611.85 113.7C611.56 113.22 611.42 112.63 611.42 111.93C611.42 110.91 611.62 110.07 612.02 109.41C612.42 108.75 612.95 108.24 613.6 107.86C614.26 107.48 614.99 107.21 615.81 107.06C616.63 106.91 617.47 106.83 618.33 106.83C619.19 106.83 620.03 106.91 620.83 107.08C621.64 107.24 622.36 107.52 623 107.91C623.64 108.3 624.16 108.82 624.58 109.46C625 110.11 625.25 110.92 625.33 111.9H621.18C621.12 111.06 620.8 110.49 620.23 110.19C619.66 109.89 618.98 109.74 618.2 109.74C617.95 109.74 617.69 109.76 617.4 109.79C617.11 109.82 616.85 109.89 616.62 109.99C616.38 110.09 616.18 110.24 616.02 110.44C615.86 110.63 615.77 110.9 615.77 111.22C615.77 111.61 615.91 111.93 616.2 112.17C616.49 112.42 616.86 112.62 617.32 112.77C617.78 112.92 618.31 113.06 618.9 113.19C619.49 113.31 620.1 113.45 620.71 113.59C621.34 113.73 621.96 113.91 622.57 114.11C623.17 114.32 623.71 114.59 624.18 114.92C624.65 115.26 625.03 115.68 625.32 116.18C625.61 116.68 625.75 117.3 625.75 118.04C625.75 119.09 625.54 119.96 625.12 120.67C624.7 121.38 624.15 121.95 623.48 122.38C622.8 122.81 622.03 123.11 621.16 123.29C620.29 123.47 619.4 123.55 618.5 123.55C617.58 123.55 616.68 123.46 615.79 123.27C614.91 123.09 614.12 122.78 613.44 122.35C612.75 121.92 612.19 121.35 611.75 120.64C611.31 119.93 611.07 119.05 611.03 117.98H615.18C615.2 118.47 615.3 118.88 615.49 119.21Z" fill="white"/>
<path d="M645.6 107.27V110.19H642.4V118.06C642.4 118.8 642.52 119.29 642.77 119.54C643.02 119.79 643.51 119.91 644.25 119.91C644.5 119.91 644.73 119.9 644.96 119.88C645.19 119.86 645.4 119.83 645.61 119.79V123.17C645.24 123.23 644.83 123.27 644.38 123.29C643.93 123.31 643.49 123.32 643.06 123.32C642.38 123.32 641.74 123.27 641.14 123.18C640.54 123.09 640 122.91 639.54 122.64C639.08 122.37 638.71 121.99 638.45 121.5C638.18 121.01 638.05 120.36 638.05 119.56V110.18H635.41V107.26H638.05V102.5H642.41V107.26H645.6V107.27Z" fill="white"/>
<path d="M652.27 101.22V109.49H652.36C652.91 108.57 653.62 107.9 654.48 107.48C655.34 107.06 656.18 106.85 657 106.85C658.17 106.85 659.13 107.01 659.87 107.33C660.61 107.65 661.21 108.09 661.64 108.65C662.07 109.21 662.37 109.9 662.55 110.71C662.72 111.52 662.81 112.42 662.81 113.4V123.18H658.44V114.2C658.44 112.89 658.23 111.91 657.83 111.26C657.42 110.61 656.69 110.29 655.65 110.29C654.46 110.29 653.6 110.64 653.07 111.35C652.54 112.06 652.27 113.22 652.27 114.84V123.17H647.91V101.22H652.27Z" fill="white"/>
<path d="M670.85 119.35C671.51 119.99 672.45 120.3 673.68 120.3C674.56 120.3 675.32 120.08 675.95 119.64C676.58 119.2 676.97 118.73 677.12 118.24H680.96C680.34 120.15 679.4 121.51 678.13 122.33C676.86 123.15 675.32 123.56 673.52 123.56C672.27 123.56 671.14 123.36 670.14 122.96C669.14 122.56 668.28 121.99 667.59 121.25C666.89 120.51 666.35 119.63 665.98 118.61C665.61 117.59 665.41 116.46 665.41 115.23C665.41 114.04 665.6 112.94 665.99 111.91C666.38 110.89 666.93 110 667.65 109.25C668.37 108.5 669.22 107.91 670.22 107.48C671.22 107.05 672.32 106.83 673.52 106.83C674.87 106.83 676.05 107.09 677.06 107.61C678.07 108.13 678.89 108.84 679.53 109.72C680.18 110.6 680.64 111.61 680.93 112.73C681.22 113.86 681.32 115.04 681.24 116.27H669.77C669.83 117.69 670.19 118.72 670.85 119.35ZM675.78 110.99C675.26 110.42 674.46 110.13 673.4 110.13C672.7 110.13 672.12 110.25 671.66 110.48C671.2 110.72 670.83 111.01 670.55 111.36C670.27 111.71 670.08 112.08 669.97 112.47C669.86 112.86 669.79 113.21 669.77 113.51H676.87C676.67 112.4 676.3 111.56 675.78 110.99Z" fill="white"/>
<path d="M705.83 122.99C704.78 123.43 703.73 123.65 702.66 123.65C700.98 123.65 699.47 123.36 698.13 122.77C696.79 122.19 695.66 121.38 694.73 120.36C693.81 119.34 693.1 118.13 692.61 116.75C692.12 115.37 691.87 113.88 691.87 112.28C691.87 110.64 692.12 109.12 692.61 107.72C693.1 106.32 693.81 105.09 694.73 104.05C695.65 103 696.78 102.19 698.13 101.59C699.47 101 700.98 100.7 702.66 100.7C703.79 100.7 704.88 100.87 705.93 101.21C706.98 101.55 707.94 102.04 708.79 102.7C709.64 103.36 710.34 104.17 710.9 105.13C711.45 106.09 711.79 107.2 711.91 108.45H707.3C707.01 107.22 706.46 106.3 705.64 105.68C704.82 105.06 703.83 104.76 702.66 104.76C701.57 104.76 700.65 104.97 699.89 105.39C699.13 105.81 698.52 106.37 698.05 107.08C697.58 107.79 697.24 108.59 697.02 109.49C696.81 110.39 696.7 111.32 696.7 112.29C696.7 113.21 696.81 114.11 697.02 114.98C697.24 115.85 697.58 116.64 698.05 117.33C698.52 118.03 699.14 118.59 699.89 119.01C700.65 119.43 701.57 119.64 702.66 119.64C704.26 119.64 705.49 119.24 706.36 118.43C707.23 117.62 707.74 116.45 707.88 114.91H703.02V111.31H712.24V123.18H709.17L708.68 120.69C707.83 121.78 706.87 122.55 705.83 122.99Z" fill="white"/>
<path d="M720.29 101.22V123.17H715.92V101.22H720.29Z" fill="white"/>
<path d="M723.73 111.77C724.12 110.74 724.67 109.85 725.39 109.13C726.11 108.4 726.97 107.84 727.97 107.44C728.97 107.04 730.1 106.84 731.35 106.84C732.6 106.84 733.73 107.04 734.75 107.44C735.76 107.84 736.63 108.4 737.35 109.13C738.07 109.86 738.62 110.74 739.01 111.77C739.4 112.81 739.59 113.96 739.59 115.23C739.59 116.5 739.39 117.65 739.01 118.67C738.62 119.69 738.07 120.57 737.35 121.3C736.63 122.03 735.77 122.59 734.75 122.98C733.73 123.37 732.6 123.56 731.35 123.56C730.1 123.56 728.97 123.37 727.97 122.98C726.97 122.59 726.11 122.03 725.39 121.3C724.67 120.57 724.12 119.7 723.73 118.67C723.34 117.65 723.15 116.5 723.15 115.23C723.15 113.96 723.34 112.81 723.73 111.77ZM727.69 117.09C727.81 117.69 728.02 118.24 728.32 118.72C728.62 119.2 729.01 119.59 729.5 119.87C729.99 120.16 730.61 120.3 731.34 120.3C732.08 120.3 732.7 120.16 733.2 119.87C733.7 119.58 734.1 119.2 734.4 118.72C734.7 118.24 734.91 117.7 735.03 117.09C735.15 116.49 735.21 115.87 735.21 115.23C735.21 114.59 735.15 113.97 735.03 113.35C734.91 112.73 734.7 112.19 734.4 111.72C734.1 111.25 733.7 110.86 733.2 110.57C732.7 110.27 732.08 110.12 731.34 110.12C730.6 110.12 729.99 110.27 729.5 110.57C729.01 110.87 728.61 111.25 728.32 111.72C728.02 112.19 727.81 112.73 727.69 113.35C727.57 113.97 727.51 114.59 727.51 115.23C727.51 115.87 727.57 116.49 727.69 117.09Z" fill="white"/>
<path d="M746.71 101.22V109.21H746.77C747.3 108.39 748.02 107.79 748.94 107.41C749.85 107.03 750.8 106.84 751.78 106.84C752.58 106.84 753.37 107 754.15 107.33C754.93 107.66 755.63 108.16 756.26 108.84C756.88 109.52 757.39 110.38 757.78 111.44C758.17 112.5 758.36 113.75 758.36 115.21C758.36 116.67 758.16 117.92 757.78 118.98C757.39 120.04 756.88 120.9 756.26 121.58C755.63 122.26 754.93 122.76 754.15 123.09C753.37 123.42 752.58 123.58 751.78 123.58C750.61 123.58 749.57 123.4 748.64 123.03C747.72 122.66 747.02 122.04 746.55 121.15H746.49V123.18H742.34V101.22H746.71ZM753.78 113.3C753.64 112.69 753.41 112.14 753.1 111.67C752.79 111.2 752.41 110.82 751.95 110.55C751.49 110.28 750.93 110.13 750.27 110.13C749.64 110.13 749.08 110.27 748.61 110.55C748.14 110.83 747.75 111.2 747.44 111.67C747.13 112.14 746.91 112.68 746.76 113.3C746.62 113.92 746.54 114.56 746.54 115.24C746.54 115.9 746.61 116.53 746.76 117.15C746.9 117.76 747.13 118.31 747.44 118.78C747.75 119.25 748.14 119.63 748.61 119.9C749.08 120.18 749.64 120.32 750.27 120.32C750.93 120.32 751.48 120.18 751.95 119.9C752.41 119.62 752.79 119.25 753.1 118.78C753.41 118.31 753.63 117.77 753.78 117.15C753.92 116.54 753.99 115.9 753.99 115.24C754 114.56 753.92 113.91 753.78 113.3Z" fill="white"/>
<path d="M765.81 119.35C766.47 119.99 767.41 120.3 768.64 120.3C769.52 120.3 770.28 120.08 770.91 119.64C771.55 119.2 771.93 118.73 772.08 118.24H775.92C775.31 120.15 774.36 121.51 773.09 122.33C771.82 123.15 770.28 123.56 768.48 123.56C767.23 123.56 766.1 123.36 765.1 122.96C764.1 122.56 763.25 121.99 762.55 121.25C761.85 120.51 761.31 119.63 760.94 118.61C760.56 117.59 760.37 116.46 760.37 115.23C760.37 114.04 760.56 112.94 760.95 111.91C761.34 110.89 761.89 110 762.61 109.25C763.33 108.5 764.18 107.91 765.18 107.48C766.17 107.05 767.27 106.83 768.48 106.83C769.83 106.83 771.01 107.09 772.02 107.61C773.02 108.13 773.85 108.84 774.49 109.72C775.14 110.6 775.6 111.61 775.89 112.73C776.18 113.86 776.28 115.04 776.2 116.27H764.73C764.8 117.69 765.16 118.72 765.81 119.35ZM770.75 110.99C770.23 110.42 769.43 110.13 768.37 110.13C767.67 110.13 767.09 110.25 766.63 110.48C766.17 110.72 765.8 111.01 765.52 111.36C765.24 111.71 765.05 112.08 764.94 112.47C764.83 112.86 764.76 113.21 764.74 113.51H771.84C771.63 112.4 771.27 111.56 770.75 110.99Z" fill="white"/>
<path d="M81.88 74.56V78.55H90.14V82.16H81.88V86.33H94.59V90.04H65.08V86.33H77.54V82.16H69.63V78.55H77.55V74.56H69.15V72.23C68.07 72.86 66.96 73.45 65.81 74C65.26 72.93 64.04 71.54 63 70.57C69.21 68 75.53 63.48 79 58.1L82.68 59.8C82.47 60.11 82.26 60.42 82.06 60.74C86.19 65.15 90.98 68.2 96.54 70.63C95.5 71.57 94.28 72.96 93.76 74.17C92.61 73.55 91.47 72.92 90.43 72.33V74.55H81.88V74.56ZM88.2 70.91C85.14 68.9 82.37 66.57 79.7 63.69C77.2 66.43 74.32 68.9 71.26 70.91H88.2Z" fill="white"/>
<path d="M132.11 71.05C130.3 73.41 128.12 75.98 126.38 77.75C127.87 80.74 129.92 82.96 132.87 85.04C131.93 85.73 130.82 87.05 130.34 88.16C127.42 85.94 125.38 83.58 123.78 80.66V86.18C123.78 88.26 123.36 89.34 122.15 90C120.97 90.69 119.2 90.8699 116.63 90.8699C116.46 89.7599 115.76 87.9899 115.24 86.8799C116.91 86.9499 118.54 86.95 119.06 86.92C119.58 86.92 119.82 86.7499 119.82 86.2299V80.54C117.39 82.9 114.89 85.3 112.74 87.24L110.83 84.32C107.25 85.47 103.51 86.65 100.52 87.58L99.6504 83.66C100.87 83.35 102.25 82.97 103.82 82.51V74.14H100.35V70.36H103.82V64.25H100.18V60.4H111.18V64.25H107.67V70.36H110.66V74.14H107.67V81.4L111.21 80.32L111.59 82.58C113.85 80.91 116.94 78.48 119.82 76.09V67.79H111.84V64.01H119.82V58.45H123.78V64H128.5C127.6 62.96 126.1 61.67 124.85 60.74L127.11 58.66C128.57 59.56 130.37 61.06 131.28 62.1L129.3 64.01H132.29V67.79H123.79V69.18C124.14 71.09 124.55 72.76 125.04 74.32C126.32 72.65 127.68 70.74 128.55 69.18L132.11 71.05ZM115.24 69.32C116.56 71.23 118.05 73.69 118.57 75.43L115.2 76.99C114.71 75.32 113.33 72.69 112.04 70.74L115.24 69.32Z" fill="white"/>
<path d="M168.38 71.09C167.27 75.64 165.74 79.66 163.63 83C164.18 85.29 164.81 86.61 165.47 86.61C165.99 86.61 166.27 84.98 166.37 81.44C167.13 82.31 168.31 83.21 169.25 83.59C168.73 88.94 167.65 90.43 164.98 90.43C163.28 90.43 161.96 88.97 160.95 86.58C159.53 88.25 157.9 89.67 156.09 90.88C155.53 90.19 154.08 88.73 153.21 88.14C155.78 86.61 157.9 84.67 159.67 82.27C158.77 78.07 158.28 72.65 158.04 66.96H151.27V70.71H157.45C157.45 70.71 157.45 71.65 157.42 72.1C157.32 79.84 157.18 82.93 156.48 83.87C155.92 84.63 155.4 84.95 154.57 85.09C153.88 85.23 152.76 85.26 151.58 85.23C151.48 84.19 151.2 82.83 150.71 81.97C150.15 85.3 149.04 88.57 146.82 90.96C146.26 90.27 144.7 88.95 143.83 88.43C145.22 86.87 146.12 84.96 146.61 83.01C143.55 84.26 140.29 85.61 137.65 86.69L136.33 82.56C137.37 82.28 138.59 81.87 139.94 81.41V70.46H136.92V66.64H139.94V58.87H143.76V66.65H146.47V70.47H143.76V80.05L146.43 79.11L146.92 81.64C147.41 79.31 147.48 76.85 147.48 74.73V63.21H157.93C157.89 61.58 157.86 59.98 157.86 58.38H161.75C161.71 60.01 161.71 61.61 161.75 63.21H164.46C163.77 62.13 162.76 60.88 161.82 59.91L164.63 58.24C165.92 59.45 167.37 61.16 168 62.3L166.54 63.2H168.45V66.95H161.82C161.99 70.59 162.24 74.03 162.62 76.98C163.49 74.97 164.15 72.74 164.67 70.38L168.38 71.09ZM151.26 74.04V74.73C151.26 76.88 151.16 79.38 150.74 81.85C151.61 81.95 152.27 81.95 152.65 81.95C153.03 81.95 153.27 81.85 153.52 81.53C153.83 81.01 153.94 79.17 154.01 74.03H151.26V74.04Z" fill="white"/>
<path d="M191.11 67.13V71.02H202.29V82.72C202.29 84.77 201.87 85.91 200.42 86.54C199 87.2 196.98 87.23 194.31 87.23C194.14 86.02 193.51 84.28 192.92 83.17C194.66 83.27 196.7 83.27 197.22 83.24C197.81 83.24 197.98 83.1 197.98 82.65V75.05H191.11V90.67H186.81V75.04H180.39V87.22H176.22V71.02H186.81V67.13H173.31V63.1H187.23C186.71 61.85 186.05 60.43 185.46 59.28L189.56 58C190.43 59.6 191.57 61.68 192.16 63.1H204.97V67.13H191.11Z" fill="white"/>
<path d="M217.31 78.52C218.39 78.07 219.46 77.62 220.5 77.17L221.44 80.82C217.76 82.66 213.8 84.5 210.61 85.99L208.94 81.82C210.19 81.37 211.72 80.78 213.45 80.08V70.33H209.39V66.4H213.45V58.87H217.3V66.4H220.81V70.32H217.3V78.52H217.31ZM235.84 86.5C237.75 86.5 238.1 85.7 238.41 82.16C239.28 82.78 240.87 83.44 242.02 83.65C241.47 88.51 240.25 90.18 236.19 90.18H228.8C224.11 90.18 222.76 88.9 222.76 84.11V75.19L220.88 75.99L219.35 72.31L222.75 70.89V61.75H226.71V69.18L229.59 67.96V58.38H233.44V66.3L236.18 65.12L236.91 64.63L237.64 64.14L240.52 65.15L240.38 65.84C240.38 72.44 240.31 76.6 240.14 78.02C240.04 79.62 239.41 80.45 238.37 80.9C237.36 81.35 235.87 81.39 234.76 81.39C234.66 80.35 234.34 78.79 233.89 77.92C234.48 77.99 235.24 77.99 235.56 77.99C235.98 77.99 236.18 77.85 236.32 77.23C236.39 76.67 236.42 74.14 236.42 69.21L233.43 70.53V82.78H229.58V72.2L226.7 73.45V84.14C226.7 86.19 227.01 86.5 229.13 86.5H235.84Z" fill="white"/>
<path d="M259.09 82.54C259.19 83.65 259.51 85.28 259.75 86.12C253.12 89.59 251.94 90.29 251.25 90.98C250.94 89.97 250 88.2 249.34 87.37C250.1 86.88 251.15 85.84 251.15 84.28V79H246.57V75.32H251.15V71.92H248.55V69.07C248.1 69.56 247.65 70.01 247.16 70.39C246.88 69.56 245.91 67.34 245.28 66.4C247.47 64.49 249.48 61.57 250.59 58.52L254.23 59.63C253.95 60.32 253.64 61.09 253.29 61.82H259.57V65.71H251.14C250.52 66.61 249.92 67.45 249.26 68.24H258.74V71.92H255.06V75.29H259.75V79H255.06V84.52L259.09 82.54ZM271.38 77.13C272.73 81.54 275.06 85.29 278.57 87.23C277.6 87.99 276.31 89.56 275.72 90.67C272.7 88.69 270.58 85.57 269.09 81.68C267.74 85.01 265.51 88.17 261.87 90.74C261.28 89.91 259.93 88.48 258.88 87.75C263.46 84.9 265.47 80.98 266.34 77.13H260.23V73.21H266.93C267.03 71.89 267.07 70.57 267.07 69.36V68.08H264.05C263.6 69.75 263.01 71.31 262.35 72.56C261.59 71.97 259.92 71 259.02 70.55C260.51 67.98 261.35 63.85 261.76 59.82L265.58 60.41C265.41 61.73 265.23 62.98 264.99 64.26H267.07V58.73H271.1V64.25H276.86V68.07H271.1V69.35C271.1 70.6 271.07 71.88 270.96 73.2H277.76V77.12H271.38V77.13Z" fill="white"/>
<path d="M294.77 75.9099C294.63 76.9499 294.6 78.5099 294.67 79.3499C286.2 80.9799 284.81 81.3999 283.91 81.9199C283.7 81.1599 283.08 79.3199 282.63 78.3099C283.53 78.0999 284.33 77.3399 285.41 76.0899C285.96 75.5299 286.97 74.2499 288.15 72.6499C285.06 72.9999 284.23 73.2099 283.67 73.4799C283.46 72.7199 282.8 70.7699 282.35 69.6999C283.08 69.4899 283.67 68.7599 284.43 67.6499C285.19 66.6399 287.55 62.4399 288.8 58.4899L292.65 60.3599C291.33 63.4099 289.42 66.6399 287.51 69.3199L290.43 69.0799C291.16 67.8999 291.85 66.6799 292.44 65.4399L295.77 67.5599C293.93 70.8199 291.67 74.0499 289.31 76.8299L294.77 75.9099ZM295.15 85.1799C291.19 86.5699 286.96 88.0999 283.59 89.2099L282.76 85.3199C285.68 84.5599 290.19 83.1299 294.53 81.8099L295.15 85.1799ZM314.35 77.1999C312.72 79.7699 310.64 82.0599 308.24 83.9699C309 85.7399 309.84 86.8199 310.7 86.8199C311.36 86.8199 311.67 85.9199 311.85 83.1399C312.65 84.1099 313.86 85.0099 314.73 85.4299C314.07 89.6999 312.99 90.8099 310.25 90.8099C307.99 90.8099 306.29 89.1099 304.9 86.3299C302.33 87.9599 299.52 89.2499 296.53 90.3199C296.04 89.2799 295 87.8899 294.03 86.9199C297.4 85.9099 300.66 84.5199 303.51 82.7199C302.99 80.8099 302.5 78.6899 302.12 76.3999L295.94 77.5099L295.28 73.8599L301.63 72.6799C301.49 71.5999 301.39 70.4899 301.28 69.3799L296.66 70.1099L295.97 66.3999L301.04 65.6399C300.9 63.2099 300.83 60.7499 300.83 58.3199H304.93C304.89 60.5799 304.93 62.8299 305.03 65.0199L312.46 63.9099L313.15 67.4899L305.27 68.7399C305.37 69.8499 305.48 70.9299 305.58 71.9699L313.39 70.5799L314.05 74.1599L306.1 75.6499C306.38 77.2499 306.66 78.7699 306.97 80.1299C308.53 78.8099 309.85 77.2799 310.86 75.6499L314.35 77.1999ZM309.84 64.1799C308.87 63.2799 306.92 61.8499 305.54 60.9199L307.94 58.7699C309.36 59.5999 311.31 60.8899 312.31 61.7599L309.84 64.1799Z" fill="white"/>
<path d="M349.23 62.69C348.15 66.34 346.52 69.42 344.4 72.03C346.41 73.63 348.81 75.02 351.59 75.88C350.76 76.68 349.58 78.28 349.02 79.35L348.95 79.32V90.67H345V89.59H338.47V90.77H334.65V79.49L333.85 79.84C333.57 79.28 333.09 78.52 332.57 77.86V78.87H328.75V83.49L332.85 82.55L333.23 86.2C328.37 87.41 323.09 88.63 319.17 89.53L318.44 85.57L320 85.29V73.62H323.37V84.59L325.11 84.24V71.19H320.25V59.7H332.23V68.31C334.76 65.88 336.85 62.2 337.99 58.42L341.91 59.39C341.63 60.15 341.35 60.95 341.04 61.72H345.9L346.63 61.58L349.23 62.69ZM323.86 67.65H328.44V63.24H323.82L323.86 67.65ZM332.57 76.33C334.97 75.29 337.26 73.8 339.2 71.99C338.37 70.98 337.67 69.94 337.05 68.94C336.39 69.81 335.7 70.61 335 71.34C334.41 70.72 333.16 69.6 332.22 68.98V71.2H328.75V75.26H332.57V76.33ZM346.14 77.96C344.54 77.02 343.12 75.98 341.8 74.8C340.48 76.01 339.06 77.02 337.53 77.96H346.14ZM345 86.05V81.43H338.47V86.05H345ZM339.37 65.22L339.09 65.74C339.78 66.92 340.65 68.14 341.62 69.32C342.63 68.04 343.46 66.68 344.15 65.22H339.37Z" fill="white"/>
<path d="M384.49 73.73C383.1 78.03 380.88 81.4 378.03 84.01C380.77 85.47 384 86.54 387.78 87.17C386.88 88.07 385.77 89.7699 385.21 90.9199C380.97 90.0499 377.47 88.63 374.52 86.69C371.53 88.6 368.1 89.9499 364.35 90.9199C363.9 89.8099 362.96 88.21 362.2 87.28C365.46 86.59 368.48 85.47 371.16 83.95C369.7 82.56 368.49 80.9999 367.41 79.2299C365.05 82.88 361.89 85.8599 357.69 88.2199C357.13 87.3199 355.68 85.6199 354.67 84.8899C360.81 81.5899 364.53 76.42 366.79 69.72H362.28C360.41 69.72 358.95 70 358.64 70.52C358.4 69.65 357.74 67.78 357.29 66.77C357.81 66.6 358.33 66.11 358.78 65.35C359.23 64.62 360.52 61.91 361.18 59.21L365.55 59.9C364.96 61.88 364.06 64 363.12 65.77H367.91C368.46 63.41 368.92 60.88 369.23 58.2L373.85 58.96C373.54 61.32 373.16 63.61 372.7 65.76H386.62V69.72H371.69C371.38 70.73 371.07 71.63 370.72 72.57H380.86L381.62 72.4L384.49 73.73ZM370.09 76.54C371.27 78.45 372.73 80.15 374.46 81.61C376.16 80.15 377.55 78.45 378.63 76.54H370.09ZM381.09 65.46C380.22 64.18 378.42 62.02 377.06 60.46L380.25 58.55C381.6 60.01 383.48 62.02 384.42 63.31L381.09 65.46Z" fill="white"/>
<path d="M422.29 82.58C420.9 83.52 419.3 84.49 417.81 85.25C419.55 86.22 421.56 86.95 423.89 87.37C423.09 88.2 422.01 89.73 421.49 90.81C415.45 89.32 411.67 85.98 409.34 80.88H405.8V86.3L411.63 85.19C411.42 86.2 411.28 87.76 411.28 88.59C403.64 90.26 402.43 90.53 401.7 91.02V91.05C401.49 90.08 400.69 88.45 400.21 87.72C400.94 87.23 401.98 86.26 401.98 84.49V80.88H399.1V77.41H404.17V75.01H399.83V71.57H404.17V69.17H399.1V70.18C399.1 76.22 398.54 85.25 394.9 90.94C394.07 90.28 392.26 89.2 391.22 88.82C394.66 83.47 394.93 75.7 394.93 70.18V59.91H421.62V69.18H416.93V71.58H421.93V75.02H416.93V77.42H423.42V80.89H419.77L422.29 82.58ZM399.1 65.67H417.46V63.38H399.1V65.67ZM407.95 71.57H413.12V69.17H407.95V71.57ZM407.95 77.41H413.12V75.01H407.95V77.41ZM413.23 80.88C413.75 81.75 414.41 82.51 415.14 83.21C416.32 82.52 417.6 81.65 418.61 80.88H413.23Z" fill="white"/>
<path d="M446.3 76.23C446.06 79.01 445.36 81.58 443.7 83.83C447.97 85.67 453.52 86.12 460.74 86.23C459.91 87.24 459.11 89.08 458.83 90.53C451.3 90.15 445.26 89.32 440.57 86.88C438.21 88.55 434.95 89.94 430.43 90.94C429.94 89.97 428.83 88.2 427.93 87.26C431.92 86.53 434.8 85.56 436.89 84.38C435.02 82.71 433.38 80.63 432.1 77.96L435.88 76.61C437.03 78.73 438.45 80.39 440.08 81.71C441.29 80.04 441.78 78.24 441.95 76.23H430.67V63.42H442.02V58.59H446.32V63.42H457.81V76.23H446.3ZM434.71 72.27H442.03V67.37H434.71V72.27ZM446.34 67.37V72.26H453.56V67.37H446.34Z" fill="white"/>
</svg>
