<svg width="178" height="104" viewBox="0 0 178 104" fill="none" xmlns="http://www.w3.org/2000/svg">
<path d="M60.6382 81.0013H56.7432V80.4252H60.062V63.5775H56.7432V63.0013H60.6382V81.0013Z" fill="white"/>
<path d="M56.7178 63.3813H0.282178V81.6213H56.7178V63.3813Z" fill="white"/>
<path d="M57 101.001H0V44.0013H57V101.001ZM0.564356 100.437H56.4356V44.5657H0.564356V100.437Z" fill="white"/>
<path d="M63.1102 69.0912H63.8502L65.0103 70.9012L66.2202 69.0912H66.9103L65.3802 71.3512L67.0103 73.7412H66.2603L65.0103 71.8212L63.7202 73.7412H63.0303L64.6403 71.3512L63.1102 69.0912Z" fill="white"/>
<path d="M10.812 1.98934L9.96 2.82934C9.624 2.51734 8.952 2.02534 8.472 1.70134L9.3 0.957344C9.792 1.24534 10.464 1.68934 10.812 1.98934ZM2.868 7.19734L4.752 6.88534C4.704 7.24534 4.692 7.78534 4.716 8.07334C1.788 8.63734 1.308 8.78134 0.996 8.96134C0.924 8.69734 0.708 8.06134 0.552 7.71334C0.864 7.64134 1.14 7.37734 1.512 6.94534C1.704 6.75334 2.052 6.30934 2.46 5.75734C1.392 5.87734 1.104 5.94934 0.912 6.04534C0.84 5.78134 0.612 5.10934 0.456 4.73734C0.708 4.66534 0.912 4.41334 1.176 4.02934C1.44 3.68134 2.256 2.22934 2.688 0.861344L4.02 1.50934C3.564 2.56534 2.904 3.68134 2.244 4.60534L3.252 4.52134C3.504 4.11334 3.744 3.69334 3.948 3.26134L5.1 3.99334C4.464 5.12134 3.684 6.23734 2.868 7.19734ZM4.668 8.92534L4.884 10.0893C3.516 10.5693 2.052 11.0973 0.888 11.4813L0.6 10.1373C1.608 9.87334 3.168 9.38134 4.668 8.92534ZM10.32 6.78934L11.52 7.32934C10.956 8.21734 10.236 9.00934 9.408 9.66934C9.672 10.2813 9.96 10.6533 10.26 10.6533C10.488 10.6533 10.596 10.3413 10.656 9.38134C10.932 9.71734 11.352 10.0293 11.652 10.1733C11.424 11.6493 11.052 12.0333 10.104 12.0333C9.324 12.0333 8.736 11.4453 8.256 10.4853C7.368 11.0493 6.396 11.4933 5.364 11.8653C5.196 11.5053 4.836 11.0253 4.5 10.6893C5.664 10.3413 6.792 9.86134 7.776 9.23734C7.596 8.57734 7.428 7.84534 7.296 7.05334L5.16 7.43734L4.932 6.17734L7.128 5.76934C7.08 5.39734 7.044 5.01334 7.008 4.62934L5.412 4.88134L5.172 3.59734L6.924 3.33334C6.876 2.49334 6.852 1.64134 6.852 0.801344H8.268C8.256 1.58134 8.268 2.36134 8.304 3.11734L10.872 2.73334L11.112 3.96934L8.388 4.40134C8.424 4.78534 8.46 5.15734 8.496 5.51734L11.196 5.03734L11.424 6.27334L8.676 6.78934C8.772 7.34134 8.868 7.86934 8.976 8.33734C9.516 7.88134 9.972 7.35334 10.32 6.78934Z" fill="white"/>
<path d="M18.936 7.59334H21.912C21.36 7.26934 20.868 6.90934 20.412 6.50134C19.956 6.92134 19.464 7.26934 18.936 7.59334ZM19.26 10.3893H21.516V8.79334H19.26V10.3893ZM17.22 6.65734V7.02934C18.048 6.66934 18.84 6.15334 19.512 5.52934C19.224 5.18134 18.984 4.82134 18.768 4.47334C18.54 4.77334 18.3 5.04934 18.06 5.30134C17.856 5.08534 17.424 4.70134 17.1 4.48534V5.25334H15.9V6.65734H17.22ZM14.196 2.50534L14.208 4.02934H15.792V2.50534H14.196ZM21.228 3.18934H19.572L19.476 3.36934C19.716 3.77734 20.016 4.19734 20.352 4.60534C20.7 4.16134 20.988 3.69334 21.228 3.18934ZM22.08 1.92934L22.98 2.31334C22.608 3.57334 22.044 4.64134 21.312 5.54134C22.008 6.09334 22.836 6.57334 23.796 6.87334C23.508 7.14934 23.1 7.70134 22.908 8.07334L22.884 8.06134V11.9853H21.516V11.6133H19.26V12.0213H17.94V8.12134L17.664 8.24134C17.568 8.04934 17.4 7.78534 17.22 7.55734V7.90534H15.9V9.50134L17.316 9.17734L17.448 10.4373C15.768 10.8573 13.944 11.2773 12.588 11.5893L12.336 10.2213L12.876 10.1253V6.09334H14.04V9.88534L14.64 9.76534V5.25334H12.96V1.28134H17.1V4.25734C17.976 3.41734 18.696 2.14534 19.092 0.837344L20.448 1.17334C20.352 1.43734 20.256 1.71334 20.148 1.97734H21.828L22.08 1.92934Z" fill="white"/>
<path d="M32.676 9.94534H30.396C30.72 10.1493 31.128 10.3173 31.608 10.4613C32.004 10.3173 32.364 10.1493 32.676 9.94534ZM30.156 7.86934V8.20534H33.324V7.86934H30.156ZM30.156 6.94534V7.26934H33.324V6.94534H30.156ZM26.604 3.29734V3.76534H27.936V3.29734H26.604ZM29.208 2.09734V2.45734H30.636V2.09734H29.208ZM33.444 3.29734H31.968V3.76534H33.444V3.29734ZM29.208 3.76534H30.636V3.29734H29.208V3.76534ZM33.876 9.11734L34.62 9.52534C34.236 10.0413 33.732 10.4613 33.144 10.7973C33.9 10.9173 34.74 10.9893 35.592 11.0253C35.352 11.2533 35.076 11.6853 34.944 11.9613C33.756 11.8773 32.64 11.7093 31.68 11.4213C30.588 11.7573 29.328 11.9493 28.02 12.0573C27.924 11.7693 27.708 11.3853 27.516 11.1453C28.452 11.0973 29.376 10.9893 30.204 10.8213C29.904 10.6653 29.628 10.5093 29.4 10.3173C29.112 10.4373 28.8 10.5453 28.5 10.6293C28.344 10.4133 28.008 10.0293 27.792 9.86134C28.656 9.60934 29.52 9.24934 30.132 8.82934H28.98V7.08934C28.824 7.25734 28.656 7.41334 28.5 7.54534C28.368 7.40134 28.14 7.19734 27.924 7.00534C27.684 7.35334 27.408 7.67734 27.108 8.01334V12.0333H25.86V9.18934C25.608 9.39334 25.344 9.57334 25.092 9.74134C24.912 9.47734 24.552 9.05734 24.336 8.84134C25.32 8.25334 26.364 7.25734 26.856 6.40534L27.588 6.64534C28.284 6.14134 28.872 5.39734 29.232 4.60534H25.32V2.45734H27.936V2.09734H24.756V1.13734H35.244V2.09734H31.968V2.45734H34.812V4.60534H29.736L30.492 4.80934C30.456 4.90534 30.408 5.00134 30.36 5.09734H35.124V6.00934H29.832C29.76 6.11734 29.688 6.22534 29.616 6.32134H34.548V8.82934H31.632C31.536 8.93734 31.428 9.04534 31.308 9.15334H33.648L33.876 9.11734ZM26.556 4.62934L27.792 5.03734C27.156 5.92534 26.148 6.82534 25.2 7.35334C24.996 7.10134 24.612 6.68134 24.36 6.47734C25.212 6.04534 26.136 5.27734 26.556 4.62934Z" fill="white"/>
<path d="M47.22 5.90134V7.00534H36.792V5.90134H41.256V5.19334H37.956V4.11334H41.256V3.47734H37.308V2.38534H39.408C39.24 2.00134 39 1.54534 38.748 1.19734L40.044 0.777344C40.368 1.20934 40.716 1.79734 40.86 2.20534L40.38 2.38534H43.14C43.416 1.88134 43.692 1.26934 43.824 0.789344L45.276 1.12534C45.036 1.56934 44.796 2.00134 44.568 2.38534H46.62V3.47734H42.72V4.11334H46.044V5.19334H42.72V5.90134H47.22ZM39.12 8.79334V10.4973H40.152V8.79334H39.12ZM42.516 8.79334H41.46V10.4973H42.516V8.79334ZM44.868 8.79334H43.824V10.4973H44.868V8.79334ZM46.272 10.4973H47.46V11.7213H36.528V10.4973H37.788V7.62934H46.272V10.4973Z" fill="white"/>
<path d="M56.892 7.52134L55.776 7.94134C55.728 7.77334 55.644 7.56934 55.548 7.35334C52.68 7.64134 52.224 7.71334 51.924 7.84534C51.864 7.61734 51.684 7.01734 51.54 6.70534C50.748 7.12534 49.908 7.55734 49.2 7.89334L48.516 6.75334C49.272 6.47734 50.4 5.99734 51.504 5.54134L51.768 6.58534L51.552 6.70534C51.852 6.64534 52.152 6.42934 52.572 6.09334C52.752 5.94934 53.1 5.66134 53.52 5.25334C52.596 5.32534 52.332 5.38534 52.152 5.45734C52.08 5.20534 51.9 4.65334 51.768 4.34134C51.948 4.29334 52.14 4.14934 52.32 3.93334C52.428 3.80134 52.68 3.48934 52.956 3.08134H48.864V1.79734H53.328C53.196 1.55734 53.052 1.30534 52.92 1.11334L54.372 0.777344C54.612 1.07734 54.864 1.46134 55.032 1.79734H59.304V3.08134H54.348C54.096 3.45334 53.82 3.81334 53.52 4.14934L54.612 4.11334C54.888 3.80134 55.152 3.47734 55.38 3.14134L56.472 3.78934C55.656 4.74934 54.696 5.68534 53.736 6.45334L54.996 6.35734C54.864 6.14134 54.732 5.93734 54.588 5.75734L55.632 5.38534C55.812 5.62534 56.016 5.88934 56.196 6.16534L56.988 5.54134C57.768 5.94934 58.848 6.60934 59.376 7.06534L58.344 7.92934C57.936 7.53334 57.144 6.98134 56.424 6.54934C56.628 6.88534 56.796 7.23334 56.892 7.52134ZM51.636 4.62934L50.628 5.46934C50.268 5.07334 49.476 4.49734 48.864 4.11334L49.8 3.35734C50.412 3.69334 51.24 4.24534 51.636 4.62934ZM57.3 5.45734L56.244 4.79734C56.736 4.42534 57.408 3.77734 57.78 3.30934L58.968 3.99334C58.452 4.54534 57.792 5.08534 57.3 5.45734ZM59.472 8.51734V9.83734H54.768V12.0213H53.244V9.83734H48.552V8.51734H53.244V7.71334H54.768V8.51734H59.472Z" fill="white"/>
<path d="M0.912 16.4333H2.412V23.7053H6.768V25.0013H0.912V16.4333Z" fill="white"/>
<path d="M7.64663 16.4333H9.01462V17.7293H7.64663V16.4333ZM7.64663 18.7973H9.01462V25.0013H7.64663V18.7973Z" fill="white"/>
<path d="M10.5052 18.7973H11.8012V19.7093L11.8252 19.7333C12.0332 19.3893 12.3052 19.1213 12.6412 18.9293C12.9772 18.7293 13.3492 18.6293 13.7572 18.6293C14.4372 18.6293 14.9732 18.8053 15.3652 19.1573C15.7572 19.5093 15.9532 20.0373 15.9532 20.7413V25.0013H14.5852V21.1013C14.5692 20.6133 14.4652 20.2613 14.2732 20.0453C14.0812 19.8213 13.7812 19.7093 13.3732 19.7093C13.1412 19.7093 12.9332 19.7533 12.7492 19.8413C12.5652 19.9213 12.4092 20.0373 12.2812 20.1893C12.1532 20.3333 12.0532 20.5053 11.9812 20.7053C11.9092 20.9053 11.8732 21.1173 11.8732 21.3413V25.0013H10.5052V18.7973Z" fill="white"/>
<path d="M21.6558 21.3533C21.6398 21.1373 21.5918 20.9293 21.5118 20.7293C21.4398 20.5293 21.3358 20.3573 21.1998 20.2133C21.0718 20.0613 20.9118 19.9413 20.7198 19.8533C20.5358 19.7573 20.3278 19.7093 20.0958 19.7093C19.8558 19.7093 19.6358 19.7533 19.4358 19.8413C19.2438 19.9213 19.0758 20.0373 18.9318 20.1893C18.7958 20.3333 18.6838 20.5053 18.5958 20.7053C18.5158 20.9053 18.4718 21.1213 18.4638 21.3533H21.6558ZM18.4638 22.2533C18.4638 22.4933 18.4958 22.7253 18.5598 22.9493C18.6318 23.1733 18.7358 23.3693 18.8718 23.5373C19.0078 23.7053 19.1798 23.8413 19.3878 23.9453C19.5958 24.0413 19.8438 24.0893 20.1318 24.0893C20.5318 24.0893 20.8518 24.0053 21.0918 23.8373C21.3398 23.6613 21.5238 23.4013 21.6438 23.0573H22.9398C22.8678 23.3933 22.7438 23.6933 22.5678 23.9573C22.3918 24.2213 22.1798 24.4453 21.9318 24.6293C21.6838 24.8053 21.4038 24.9373 21.0918 25.0253C20.7878 25.1213 20.4678 25.1693 20.1318 25.1693C19.6438 25.1693 19.2118 25.0893 18.8358 24.9293C18.4598 24.7693 18.1398 24.5453 17.8758 24.2573C17.6198 23.9693 17.4238 23.6253 17.2878 23.2253C17.1598 22.8253 17.0958 22.3853 17.0958 21.9053C17.0958 21.4653 17.1638 21.0493 17.2998 20.6573C17.4438 20.2573 17.6438 19.9093 17.8998 19.6133C18.1638 19.3093 18.4798 19.0693 18.8478 18.8933C19.2158 18.7173 19.6318 18.6293 20.0958 18.6293C20.5838 18.6293 21.0198 18.7333 21.4038 18.9413C21.7958 19.1413 22.1198 19.4093 22.3758 19.7453C22.6318 20.0813 22.8158 20.4693 22.9278 20.9093C23.0478 21.3413 23.0798 21.7893 23.0238 22.2533H18.4638Z" fill="white"/>
<path d="M33.3796 19.1573C33.3156 18.9093 33.2276 18.6813 33.1156 18.4733C33.0036 18.2653 32.8596 18.0853 32.6836 17.9333C32.5076 17.7813 32.2996 17.6653 32.0596 17.5853C31.8276 17.4973 31.5556 17.4533 31.2436 17.4533C30.7876 17.4533 30.3916 17.5453 30.0556 17.7293C29.7276 17.9133 29.4596 18.1613 29.2516 18.4733C29.0436 18.7773 28.8876 19.1253 28.7836 19.5173C28.6876 19.9093 28.6396 20.3093 28.6396 20.7173C28.6396 21.1253 28.6876 21.5253 28.7836 21.9173C28.8876 22.3093 29.0436 22.6613 29.2516 22.9733C29.4596 23.2773 29.7276 23.5213 30.0556 23.7053C30.3916 23.8893 30.7876 23.9813 31.2436 23.9813C31.5796 23.9813 31.8756 23.9253 32.1316 23.8133C32.3876 23.6933 32.6076 23.5333 32.7916 23.3333C32.9756 23.1253 33.1196 22.8853 33.2236 22.6133C33.3276 22.3413 33.3956 22.0493 33.4276 21.7373H34.8916C34.8596 22.2493 34.7476 22.7173 34.5556 23.1413C34.3716 23.5653 34.1196 23.9333 33.7996 24.2453C33.4796 24.5493 33.1036 24.7853 32.6716 24.9533C32.2396 25.1213 31.7636 25.2053 31.2436 25.2053C30.6036 25.2053 30.0276 25.0893 29.5156 24.8573C29.0116 24.6173 28.5836 24.2933 28.2316 23.8853C27.8796 23.4773 27.6076 23.0013 27.4156 22.4573C27.2316 21.9133 27.1396 21.3333 27.1396 20.7173C27.1396 20.1093 27.2316 19.5333 27.4156 18.9893C27.6076 18.4453 27.8796 17.9693 28.2316 17.5613C28.5836 17.1533 29.0116 16.8293 29.5156 16.5893C30.0276 16.3493 30.6036 16.2293 31.2436 16.2293C31.7236 16.2293 32.1756 16.2973 32.5996 16.4333C33.0236 16.5613 33.3956 16.7533 33.7156 17.0093C34.0436 17.2573 34.3076 17.5613 34.5076 17.9213C34.7076 18.2813 34.8316 18.6933 34.8796 19.1573H33.3796Z" fill="white"/>
<path d="M38.9077 25.1693C38.4117 25.1693 37.9677 25.0893 37.5757 24.9293C37.1917 24.7613 36.8638 24.5333 36.5918 24.2453C36.3278 23.9573 36.1238 23.6133 35.9798 23.2133C35.8438 22.8133 35.7757 22.3733 35.7757 21.8933C35.7757 21.4213 35.8438 20.9853 35.9798 20.5853C36.1238 20.1853 36.3278 19.8413 36.5918 19.5533C36.8638 19.2653 37.1917 19.0413 37.5757 18.8813C37.9677 18.7133 38.4117 18.6293 38.9077 18.6293C39.4037 18.6293 39.8437 18.7133 40.2277 18.8813C40.6197 19.0413 40.9478 19.2653 41.2118 19.5533C41.4837 19.8413 41.6877 20.1853 41.8237 20.5853C41.9677 20.9853 42.0397 21.4213 42.0397 21.8933C42.0397 22.3733 41.9677 22.8133 41.8237 23.2133C41.6877 23.6133 41.4837 23.9573 41.2118 24.2453C40.9478 24.5333 40.6197 24.7613 40.2277 24.9293C39.8437 25.0893 39.4037 25.1693 38.9077 25.1693ZM38.9077 24.0893C39.2117 24.0893 39.4757 24.0253 39.6997 23.8973C39.9237 23.7693 40.1078 23.6013 40.2518 23.3933C40.3958 23.1853 40.4998 22.9533 40.5638 22.6973C40.6358 22.4333 40.6717 22.1653 40.6717 21.8933C40.6717 21.6293 40.6358 21.3653 40.5638 21.1013C40.4998 20.8373 40.3958 20.6053 40.2518 20.4053C40.1078 20.1973 39.9237 20.0293 39.6997 19.9013C39.4757 19.7733 39.2117 19.7093 38.9077 19.7093C38.6037 19.7093 38.3397 19.7733 38.1157 19.9013C37.8917 20.0293 37.7078 20.1973 37.5638 20.4053C37.4198 20.6053 37.3117 20.8373 37.2397 21.1013C37.1757 21.3653 37.1437 21.6293 37.1437 21.8933C37.1437 22.1653 37.1757 22.4333 37.2397 22.6973C37.3117 22.9533 37.4198 23.1853 37.5638 23.3933C37.7078 23.6013 37.8917 23.7693 38.1157 23.8973C38.3397 24.0253 38.6037 24.0893 38.9077 24.0893Z" fill="white"/>
<path d="M42.565 18.7973H44.053L45.625 23.5613H45.649L47.161 18.7973H48.577L46.357 25.0013H44.821L42.565 18.7973Z" fill="white"/>
<path d="M53.6597 21.3533C53.6437 21.1373 53.5957 20.9293 53.5157 20.7293C53.4437 20.5293 53.3397 20.3573 53.2037 20.2133C53.0757 20.0613 52.9157 19.9413 52.7237 19.8533C52.5397 19.7573 52.3317 19.7093 52.0997 19.7093C51.8597 19.7093 51.6397 19.7533 51.4397 19.8413C51.2477 19.9213 51.0797 20.0373 50.9357 20.1893C50.7997 20.3333 50.6877 20.5053 50.5997 20.7053C50.5197 20.9053 50.4757 21.1213 50.4677 21.3533H53.6597ZM50.4677 22.2533C50.4677 22.4933 50.4997 22.7253 50.5637 22.9493C50.6357 23.1733 50.7397 23.3693 50.8757 23.5373C51.0117 23.7053 51.1837 23.8413 51.3917 23.9453C51.5997 24.0413 51.8477 24.0893 52.1357 24.0893C52.5357 24.0893 52.8557 24.0053 53.0957 23.8373C53.3437 23.6613 53.5277 23.4013 53.6477 23.0573H54.9437C54.8717 23.3933 54.7477 23.6933 54.5717 23.9573C54.3957 24.2213 54.1837 24.4453 53.9357 24.6293C53.6877 24.8053 53.4077 24.9373 53.0957 25.0253C52.7917 25.1213 52.4717 25.1693 52.1357 25.1693C51.6477 25.1693 51.2157 25.0893 50.8397 24.9293C50.4637 24.7693 50.1437 24.5453 49.8797 24.2573C49.6237 23.9693 49.4277 23.6253 49.2917 23.2253C49.1637 22.8253 49.0997 22.3853 49.0997 21.9053C49.0997 21.4653 49.1677 21.0493 49.3037 20.6573C49.4477 20.2573 49.6477 19.9093 49.9037 19.6133C50.1677 19.3093 50.4837 19.0693 50.8517 18.8933C51.2197 18.7173 51.6357 18.6293 52.0997 18.6293C52.5877 18.6293 53.0237 18.7333 53.4077 18.9413C53.7997 19.1413 54.1237 19.4093 54.3797 19.7453C54.6357 20.0813 54.8197 20.4693 54.9317 20.9093C55.0517 21.3413 55.0837 21.7893 55.0277 22.2533H50.4677Z" fill="white"/>
<path d="M56.0677 18.7973H57.3517V19.9973H57.3757C57.4157 19.8293 57.4917 19.6653 57.6037 19.5053C57.7237 19.3453 57.8637 19.2013 58.0237 19.0733C58.1917 18.9373 58.3757 18.8293 58.5757 18.7493C58.7757 18.6693 58.9797 18.6293 59.1877 18.6293C59.3477 18.6293 59.4557 18.6333 59.5117 18.6413C59.5757 18.6493 59.6397 18.6573 59.7037 18.6653V19.9853C59.6077 19.9693 59.5077 19.9573 59.4037 19.9493C59.3077 19.9333 59.2117 19.9253 59.1157 19.9253C58.8837 19.9253 58.6637 19.9733 58.4557 20.0693C58.2557 20.1573 58.0797 20.2933 57.9277 20.4773C57.7757 20.6533 57.6557 20.8733 57.5677 21.1373C57.4797 21.4013 57.4357 21.7053 57.4357 22.0493V25.0013H56.0677V18.7973Z" fill="white"/>
<path d="M65.4824 23.6213C65.4824 23.7893 65.5024 23.9093 65.5424 23.9813C65.5904 24.0533 65.6784 24.0893 65.8064 24.0893C65.8464 24.0893 65.8944 24.0893 65.9504 24.0893C66.0064 24.0893 66.0704 24.0813 66.1424 24.0653V25.0133C66.0944 25.0293 66.0304 25.0453 65.9504 25.0613C65.8784 25.0853 65.8024 25.1053 65.7224 25.1213C65.6424 25.1373 65.5624 25.1493 65.4824 25.1573C65.4024 25.1653 65.3344 25.1693 65.2784 25.1693C64.9984 25.1693 64.7664 25.1133 64.5824 25.0013C64.3984 24.8893 64.2784 24.6933 64.2224 24.4133C63.9504 24.6773 63.6144 24.8693 63.2144 24.9893C62.8224 25.1093 62.4424 25.1693 62.0744 25.1693C61.7944 25.1693 61.5264 25.1293 61.2704 25.0493C61.0144 24.9773 60.7864 24.8693 60.5864 24.7253C60.3944 24.5733 60.2384 24.3853 60.1184 24.1613C60.0064 23.9293 59.9504 23.6613 59.9504 23.3573C59.9504 22.9733 60.0184 22.6613 60.1544 22.4213C60.2984 22.1813 60.4824 21.9933 60.7064 21.8573C60.9384 21.7213 61.1944 21.6253 61.4744 21.5693C61.7624 21.5053 62.0504 21.4573 62.3384 21.4253C62.5864 21.3773 62.8224 21.3453 63.0464 21.3293C63.2704 21.3053 63.4664 21.2693 63.6344 21.2213C63.8104 21.1733 63.9464 21.1013 64.0424 21.0053C64.1464 20.9013 64.1984 20.7493 64.1984 20.5493C64.1984 20.3733 64.1544 20.2293 64.0664 20.1173C63.9864 20.0053 63.8824 19.9213 63.7544 19.8653C63.6344 19.8013 63.4984 19.7613 63.3464 19.7453C63.1944 19.7213 63.0504 19.7093 62.9144 19.7093C62.5304 19.7093 62.2144 19.7893 61.9664 19.9493C61.7184 20.1093 61.5784 20.3573 61.5464 20.6933H60.1784C60.2024 20.2933 60.2984 19.9613 60.4664 19.6973C60.6344 19.4333 60.8464 19.2213 61.1024 19.0613C61.3664 18.9013 61.6624 18.7893 61.9904 18.7253C62.3184 18.6613 62.6544 18.6293 62.9984 18.6293C63.3024 18.6293 63.6024 18.6613 63.8984 18.7253C64.1944 18.7893 64.4584 18.8933 64.6904 19.0373C64.9304 19.1813 65.1224 19.3693 65.2664 19.6013C65.4104 19.8253 65.4824 20.1013 65.4824 20.4293V23.6213ZM64.1144 21.8933C63.9064 22.0293 63.6504 22.1133 63.3464 22.1453C63.0424 22.1693 62.7384 22.2093 62.4344 22.2653C62.2904 22.2893 62.1504 22.3253 62.0144 22.3733C61.8784 22.4133 61.7584 22.4733 61.6544 22.5533C61.5504 22.6253 61.4664 22.7253 61.4024 22.8533C61.3464 22.9733 61.3184 23.1213 61.3184 23.2973C61.3184 23.4493 61.3624 23.5773 61.4504 23.6813C61.5384 23.7853 61.6424 23.8693 61.7624 23.9333C61.8904 23.9893 62.0264 24.0293 62.1704 24.0533C62.3224 24.0773 62.4584 24.0893 62.5784 24.0893C62.7304 24.0893 62.8944 24.0693 63.0704 24.0293C63.2464 23.9893 63.4104 23.9213 63.5624 23.8253C63.7224 23.7293 63.8544 23.6093 63.9584 23.4653C64.0624 23.3133 64.1144 23.1293 64.1144 22.9133V21.8933Z" fill="white"/>
<path d="M72.6904 24.6773C72.6904 25.6133 72.4264 26.3093 71.8984 26.7653C71.3784 27.2293 70.6264 27.4613 69.6424 27.4613C69.3304 27.4613 69.0144 27.4293 68.6944 27.3653C68.3824 27.3013 68.0944 27.1933 67.8304 27.0413C67.5744 26.8893 67.3584 26.6893 67.1824 26.4413C67.0064 26.1933 66.9024 25.8893 66.8704 25.5293H68.2384C68.2784 25.7213 68.3464 25.8773 68.4424 25.9973C68.5384 26.1173 68.6504 26.2093 68.7784 26.2733C68.9144 26.3453 69.0624 26.3893 69.2224 26.4053C69.3824 26.4293 69.5504 26.4413 69.7264 26.4413C70.2784 26.4413 70.6824 26.3053 70.9384 26.0333C71.1944 25.7613 71.3224 25.3693 71.3224 24.8573V23.9093H71.2984C71.1064 24.2533 70.8424 24.5213 70.5064 24.7133C70.1784 24.9053 69.8224 25.0013 69.4384 25.0013C68.9424 25.0013 68.5184 24.9173 68.1664 24.7493C67.8224 24.5733 67.5344 24.3373 67.3024 24.0413C67.0784 23.7373 66.9144 23.3893 66.8104 22.9973C66.7064 22.6053 66.6544 22.1853 66.6544 21.7373C66.6544 21.3213 66.7184 20.9253 66.8464 20.5493C66.9744 20.1733 67.1584 19.8453 67.3984 19.5653C67.6384 19.2773 67.9304 19.0493 68.2744 18.8813C68.6264 18.7133 69.0224 18.6293 69.4624 18.6293C69.8544 18.6293 70.2144 18.7133 70.5424 18.8813C70.8704 19.0413 71.1224 19.2973 71.2984 19.6493H71.3224V18.7973H72.6904V24.6773ZM69.6544 23.9213C69.9584 23.9213 70.2144 23.8613 70.4224 23.7413C70.6384 23.6133 70.8104 23.4493 70.9384 23.2493C71.0744 23.0413 71.1704 22.8093 71.2264 22.5533C71.2904 22.2893 71.3224 22.0253 71.3224 21.7613C71.3224 21.4973 71.2904 21.2413 71.2264 20.9933C71.1624 20.7453 71.0624 20.5253 70.9264 20.3333C70.7984 20.1413 70.6264 19.9893 70.4104 19.8773C70.2024 19.7653 69.9504 19.7093 69.6544 19.7093C69.3504 19.7093 69.0944 19.7733 68.8864 19.9013C68.6784 20.0293 68.5104 20.1973 68.3824 20.4053C68.2544 20.6053 68.1624 20.8373 68.1064 21.1013C68.0504 21.3573 68.0224 21.6133 68.0224 21.8693C68.0224 22.1253 68.0544 22.3773 68.1184 22.6253C68.1824 22.8653 68.2784 23.0813 68.4064 23.2733C68.5424 23.4653 68.7104 23.6213 68.9104 23.7413C69.1184 23.8613 69.3664 23.9213 69.6544 23.9213Z" fill="white"/>
<path d="M78.3277 21.3533C78.3117 21.1373 78.2637 20.9293 78.1837 20.7293C78.1117 20.5293 78.0077 20.3573 77.8717 20.2133C77.7437 20.0613 77.5837 19.9413 77.3917 19.8533C77.2077 19.7573 76.9997 19.7093 76.7677 19.7093C76.5277 19.7093 76.3077 19.7533 76.1077 19.8413C75.9157 19.9213 75.7477 20.0373 75.6037 20.1893C75.4677 20.3333 75.3557 20.5053 75.2677 20.7053C75.1877 20.9053 75.1437 21.1213 75.1357 21.3533H78.3277ZM75.1357 22.2533C75.1357 22.4933 75.1677 22.7253 75.2317 22.9493C75.3037 23.1733 75.4077 23.3693 75.5437 23.5373C75.6797 23.7053 75.8517 23.8413 76.0597 23.9453C76.2677 24.0413 76.5157 24.0893 76.8037 24.0893C77.2037 24.0893 77.5237 24.0053 77.7637 23.8373C78.0117 23.6613 78.1957 23.4013 78.3157 23.0573H79.6117C79.5397 23.3933 79.4157 23.6933 79.2397 23.9573C79.0637 24.2213 78.8517 24.4453 78.6037 24.6293C78.3557 24.8053 78.0757 24.9373 77.7637 25.0253C77.4597 25.1213 77.1397 25.1693 76.8037 25.1693C76.3157 25.1693 75.8837 25.0893 75.5077 24.9293C75.1317 24.7693 74.8117 24.5453 74.5477 24.2573C74.2917 23.9693 74.0957 23.6253 73.9597 23.2253C73.8317 22.8253 73.7677 22.3853 73.7677 21.9053C73.7677 21.4653 73.8357 21.0493 73.9717 20.6573C74.1157 20.2573 74.3157 19.9093 74.5717 19.6133C74.8357 19.3093 75.1517 19.0693 75.5197 18.8933C75.8877 18.7173 76.3037 18.6293 76.7677 18.6293C77.2557 18.6293 77.6917 18.7333 78.0757 18.9413C78.4677 19.1413 78.7917 19.4093 79.0477 19.7453C79.3037 20.0813 79.4877 20.4693 79.5997 20.9093C79.7197 21.3413 79.7517 21.7893 79.6957 22.2533H75.1357Z" fill="white"/>
<path d="M80.56 41.9113V49.0013H79.71V43.9213H77.87V43.2413C78.84 43.2413 79.72 42.9813 79.91 41.9113H80.56Z" fill="white"/>
<path d="M87.2266 46.3713C87.2266 45.4013 86.7266 44.4613 85.6266 44.4613C84.4866 44.4613 84.0466 45.4413 84.0466 46.4113C84.0466 47.4313 84.5066 48.3713 85.6766 48.3713C86.8366 48.3713 87.2266 47.3813 87.2266 46.3713ZM83.2266 50.9813V43.8313H84.0766V44.5313H84.0966C84.3766 43.9613 85.0366 43.7113 85.7466 43.7113C87.3366 43.7113 88.1266 44.9713 88.1266 46.4313C88.1266 47.8913 87.3466 49.1213 85.7666 49.1213C85.2366 49.1213 84.4766 48.9213 84.0966 48.3113H84.0766V50.9813H83.2266Z" fill="white"/>
<path d="M88.5744 49.0013L90.5144 46.2813L88.7144 43.8313H89.8044L91.0444 45.6413L92.3344 43.8313H93.3544L91.5744 46.2113L93.5744 49.0013H92.4844L91.0444 46.8613L89.6044 49.0013H88.5744Z" fill="white"/>
<path d="M101.513 48.0413L97.0034 45.8013V45.2613L101.513 43.0213V43.6313L97.5434 45.5113V45.5313L101.513 47.4413V48.0413ZM101.543 48.9713H96.9534V48.4513H101.543V48.9713Z" fill="white"/>
<path d="M104.822 49.0013L107.312 45.3313L104.962 41.8613H106.102L107.882 44.6513L109.742 41.8613H110.802L108.442 45.3313L110.952 49.0013H109.792L107.872 46.0513L105.892 49.0013H104.822Z" fill="white"/>
<path d="M118.799 48.0413L114.289 45.8013V45.2613L118.799 43.0213V43.6313L114.829 45.5113V45.5313L118.799 47.4413V48.0413ZM118.829 48.9713H114.239V48.4513H118.829V48.9713Z" fill="white"/>
<path d="M123.407 44.4213H122.557C122.487 42.9813 123.337 41.9113 124.837 41.9113C126.077 41.9113 127.057 42.6313 127.057 43.9513C127.057 45.2013 126.217 45.8313 125.337 46.3813C124.447 46.9213 123.517 47.3713 123.347 48.2513H126.987V49.0013H122.357C122.497 47.3213 123.347 46.7213 124.347 46.1013C125.547 45.3613 126.157 44.9213 126.157 43.9413C126.157 43.1713 125.537 42.6613 124.787 42.6613C123.797 42.6613 123.377 43.5713 123.407 44.4213Z" fill="white"/>
<path d="M128.094 45.5213C128.094 43.9513 128.234 41.9113 130.454 41.9113C132.674 41.9113 132.814 43.9513 132.814 45.5213C132.814 47.0813 132.674 49.1213 130.454 49.1213C128.234 49.1213 128.094 47.0813 128.094 45.5213ZM128.994 45.5113C128.994 46.5713 129.004 48.3713 130.454 48.3713C131.904 48.3713 131.914 46.5713 131.914 45.5113C131.914 44.4613 131.904 42.6613 130.454 42.6613C129.004 42.6613 128.994 44.4613 128.994 45.5113Z" fill="white"/>
<path d="M137.9 46.3713C137.9 45.4013 137.4 44.4613 136.3 44.4613C135.16 44.4613 134.72 45.4413 134.72 46.4113C134.72 47.4313 135.18 48.3713 136.35 48.3713C137.51 48.3713 137.9 47.3813 137.9 46.3713ZM133.9 50.9813V43.8313H134.75V44.5313H134.77C135.05 43.9613 135.71 43.7113 136.42 43.7113C138.01 43.7113 138.8 44.9713 138.8 46.4313C138.8 47.8913 138.02 49.1213 136.44 49.1213C135.91 49.1213 135.15 48.9213 134.77 48.3113H134.75V50.9813H133.9Z" fill="white"/>
<path d="M139.248 49.0013L141.188 46.2813L139.388 43.8313H140.478L141.718 45.6413L143.008 43.8313H144.028L142.248 46.2113L144.248 49.0013H143.158L141.718 46.8613L140.278 49.0013H139.248Z" fill="white"/>
<path d="M80.56 54.9113V62.0013H79.71V56.9213H77.87V56.2413C78.84 56.2413 79.72 55.9813 79.91 54.9113H80.56Z" fill="white"/>
<path d="M87.2266 59.3713C87.2266 58.4013 86.7266 57.4613 85.6266 57.4613C84.4866 57.4613 84.0466 58.4413 84.0466 59.4113C84.0466 60.4313 84.5066 61.3713 85.6766 61.3713C86.8366 61.3713 87.2266 60.3813 87.2266 59.3713ZM83.2266 63.9813V56.8313H84.0766V57.5313H84.0966C84.3766 56.9613 85.0366 56.7113 85.7466 56.7113C87.3366 56.7113 88.1266 57.9713 88.1266 59.4313C88.1266 60.8913 87.3466 62.1213 85.7666 62.1213C85.2366 62.1213 84.4766 61.9213 84.0966 61.3113H84.0766V63.9813H83.2266Z" fill="white"/>
<path d="M88.5744 62.0013L90.5144 59.2813L88.7144 56.8313H89.8044L91.0444 58.6413L92.3344 56.8313H93.3544L91.5744 59.2113L93.5744 62.0013H92.4844L91.0444 59.8613L89.6044 62.0013H88.5744Z" fill="white"/>
<path d="M107.53 58.1213V58.8013H102.49V58.1213H107.53ZM102.49 60.8213V60.1413H107.53V60.8213H102.49Z" fill="white"/>
<path d="M113.289 55.6613V56.3713H118.309V55.6613H113.289ZM113.289 54.4613V55.1513H118.309V54.4613H113.289ZM112.559 53.9213H119.049V56.9013H112.559V53.9213ZM111.369 57.4613H120.179V58.0813H111.369V57.4613ZM115.809 58.7113H119.369V59.3213H115.809V58.7113ZM112.669 58.7713H115.139V59.3313H112.669V58.7713ZM112.669 60.0313H115.139V60.5913H112.669V60.0313ZM116.859 59.2713C117.439 60.7013 118.719 61.7913 120.419 62.2113C120.259 62.3513 120.059 62.6213 119.959 62.8013C118.199 62.2813 116.909 61.0913 116.249 59.4513L116.859 59.2713ZM119.139 58.7113H119.279L119.409 58.6813L119.869 58.8713C119.209 60.9013 117.599 62.1513 115.859 62.7513C115.779 62.5713 115.589 62.3013 115.449 62.1613C117.049 61.6813 118.589 60.5113 119.139 58.8313V58.7113ZM111.279 61.5613C112.259 61.4813 113.709 61.3213 115.119 61.1613V61.7813C113.769 61.9413 112.379 62.1113 111.349 62.2313L111.279 61.5613ZM114.739 57.6613H115.459V62.8013H114.739V57.6613ZM112.229 57.6713H112.929V61.7413H112.229V57.6713Z" fill="white"/>
<path d="M125.419 53.7513H126.229V61.7613C126.229 62.3213 126.079 62.5413 125.719 62.6613C125.359 62.7913 124.739 62.8113 123.789 62.8113C123.749 62.5913 123.609 62.2413 123.479 62.0213C124.219 62.0513 124.939 62.0413 125.139 62.0313C125.349 62.0313 125.419 61.9613 125.419 61.7613V53.7513ZM127.839 56.3013L128.559 56.0213C129.429 57.4313 130.279 59.2613 130.539 60.4713L129.739 60.7913C129.499 59.6113 128.689 57.7313 127.839 56.3013ZM122.799 56.0913L123.639 56.2313C123.309 57.7013 122.729 59.5113 121.819 60.6313C121.639 60.4913 121.309 60.3113 121.109 60.2313C121.999 59.1713 122.549 57.4413 122.799 56.0913Z" fill="white"/>
<path d="M131.459 53.9713H140.149V54.5213H131.459V53.9713ZM134.219 54.2013H134.899V56.4513H134.219V54.2013ZM136.579 54.2013H137.279V56.4513H136.579V54.2013ZM132.619 55.5113V56.1313H138.969V55.5113H132.619ZM131.929 55.0113H139.689V56.6413H131.929V55.0113ZM135.179 57.1713H139.959V57.7113H135.179V57.1713ZM135.479 59.2713V59.6913H138.739V59.2713H135.479ZM135.479 58.4713V58.8713H138.739V58.4713H135.479ZM134.839 58.0613H139.399V60.1013H134.839V58.0613ZM133.099 56.7213L133.759 56.9413C133.249 57.6513 132.419 58.4013 131.669 58.8613C131.549 58.7313 131.349 58.5013 131.209 58.3913C131.919 57.9813 132.719 57.3113 133.099 56.7213ZM133.349 58.0013L133.989 58.2213C133.419 59.1113 132.489 60.0713 131.569 60.6813C131.479 60.5513 131.279 60.3113 131.149 60.2013C131.999 59.6613 132.909 58.7713 133.349 58.0013ZM135.249 56.6313L135.899 56.8113C135.499 57.6813 134.839 58.5213 134.189 59.0713C134.079 58.9613 133.809 58.7213 133.649 58.6213C134.309 58.1313 134.899 57.4013 135.249 56.6313ZM135.939 60.5013H138.949V60.9813H135.559L135.939 60.5013ZM138.739 60.5013H138.869L138.999 60.4713L139.409 60.7113C138.419 62.0413 136.259 62.5813 134.119 62.8113C134.059 62.6513 133.939 62.4313 133.839 62.2913C135.839 62.1313 137.909 61.6513 138.739 60.6013V60.5013ZM135.589 60.8513C136.489 61.6613 138.439 62.1113 140.409 62.2513C140.279 62.3813 140.129 62.6213 140.049 62.7713C138.049 62.5913 136.069 62.0313 135.069 61.0613L135.589 60.8513ZM136.239 59.8413L136.839 60.0313C136.239 60.7413 135.259 61.3013 134.189 61.6813C134.099 61.5613 133.899 61.3613 133.769 61.2713C134.789 60.9213 135.749 60.4013 136.239 59.8413ZM132.479 59.3513L132.969 58.8513L133.149 58.9013V62.8013H132.479V59.3513Z" fill="white"/>
<path d="M141.239 61.8613H150.339V62.5213H141.239V61.8613ZM141.869 54.9113H149.669V55.5213H141.869V54.9113ZM141.469 57.9013H150.119V58.5113H141.469V57.9013ZM142.369 56.3813H149.239V56.9813H142.369V56.3813ZM142.319 59.2813H149.309V62.1713H148.579V59.9213H147.169V62.1713H146.479V59.9213H145.089V62.1713H144.399V59.9213H143.019V62.1713H142.319V59.2813ZM143.299 53.8313L143.959 53.6013C144.249 53.9513 144.539 54.4313 144.669 54.7513L143.979 55.0313C143.859 54.7013 143.569 54.1913 143.299 53.8313ZM147.619 53.5913L148.359 53.8013C148.069 54.3413 147.719 54.8913 147.439 55.2813L146.819 55.0713C147.089 54.6713 147.439 54.0313 147.619 53.5913ZM145.389 55.1913H146.159V58.2613H145.389V55.1913Z" fill="white"/>
<path d="M155.369 53.6113H156.139V55.0113H155.369V53.6113ZM155.369 59.3213H156.139V62.8413H155.369V59.3213ZM151.319 60.1013H160.259V60.7913H151.319V60.1013ZM151.629 54.7313H159.979V55.4213H151.629V54.7313ZM159.189 55.6913L159.849 56.0413C159.339 56.5113 158.689 56.9713 158.179 57.2913L157.639 56.9713C158.129 56.6313 158.809 56.0913 159.189 55.6913ZM155.209 55.2613L155.859 55.5113C155.479 56.0313 155.029 56.5913 154.659 56.9713L154.169 56.7413C154.519 56.3413 154.959 55.6913 155.209 55.2613ZM156.669 56.0213L157.269 56.3113C156.489 57.2813 155.399 58.4513 154.549 59.1713L154.099 58.9113C154.949 58.1613 156.029 56.9213 156.669 56.0213ZM153.739 56.7313L154.119 56.3013C154.689 56.6413 155.439 57.1613 155.799 57.5213L155.409 58.0213C155.059 57.6513 154.329 57.1013 153.739 56.7313ZM153.619 58.6713C154.589 58.6413 156.039 58.5713 157.479 58.5013V59.0513C156.119 59.1613 154.749 59.2513 153.719 59.3213L153.619 58.6713ZM156.299 57.7713L156.839 57.5213C157.339 58.0713 157.889 58.8313 158.119 59.3313L157.539 59.6313C157.319 59.1213 156.789 58.3313 156.299 57.7713ZM151.279 58.8813C151.919 58.6413 152.879 58.2413 153.809 57.8513L153.949 58.4213C153.149 58.8013 152.319 59.1913 151.659 59.4913L151.279 58.8813ZM151.639 56.2513L152.139 55.8413C152.689 56.1313 153.389 56.5913 153.739 56.9113L153.219 57.3813C152.879 57.0513 152.199 56.5713 151.639 56.2513ZM157.449 58.1613L157.969 57.7413C158.739 58.1213 159.749 58.7013 160.269 59.1113L159.719 59.5913C159.229 59.1813 158.229 58.5613 157.449 58.1613Z" fill="white"/>
<path d="M78.29 70.4213H77.44C77.37 68.9813 78.22 67.9113 79.72 67.9113C80.96 67.9113 81.94 68.6313 81.94 69.9513C81.94 71.2013 81.1 71.8313 80.22 72.3813C79.33 72.9213 78.4 73.3713 78.23 74.2513H81.87V75.0013H77.24C77.38 73.3213 78.23 72.7213 79.23 72.1013C80.43 71.3613 81.04 70.9213 81.04 69.9413C81.04 69.1713 80.42 68.6613 79.67 68.6613C78.68 68.6613 78.26 69.5713 78.29 70.4213Z" fill="white"/>
<path d="M82.9766 71.5213C82.9766 69.9513 83.1166 67.9113 85.3366 67.9113C87.5566 67.9113 87.6966 69.9513 87.6966 71.5213C87.6966 73.0813 87.5566 75.1213 85.3366 75.1213C83.1166 75.1213 82.9766 73.0813 82.9766 71.5213ZM83.8766 71.5113C83.8766 72.5713 83.8866 74.3713 85.3366 74.3713C86.7866 74.3713 86.7966 72.5713 86.7966 71.5113C86.7966 70.4613 86.7866 68.6613 85.3366 68.6613C83.8866 68.6613 83.8766 70.4613 83.8766 71.5113Z" fill="white"/>
<path d="M92.7833 72.3713C92.7833 71.4013 92.2833 70.4613 91.1833 70.4613C90.0433 70.4613 89.6033 71.4413 89.6033 72.4113C89.6033 73.4313 90.0633 74.3713 91.2333 74.3713C92.3933 74.3713 92.7833 73.3813 92.7833 72.3713ZM88.7833 76.9813V69.8313H89.6333V70.5313H89.6533C89.9333 69.9613 90.5933 69.7113 91.3033 69.7113C92.8933 69.7113 93.6833 70.9713 93.6833 72.4313C93.6833 73.8913 92.9033 75.1213 91.3233 75.1213C90.7933 75.1213 90.0333 74.9213 89.6533 74.3113H89.6333V76.9813H88.7833Z" fill="white"/>
<path d="M94.131 75.0013L96.071 72.2813L94.271 69.8313H95.361L96.601 71.6413L97.891 69.8313H98.911L97.131 72.2113L99.131 75.0013H98.041L96.601 72.8613L95.161 75.0013H94.131Z" fill="white"/>
<path d="M107.52 71.1213V71.8013H102.48V71.1213H107.52ZM102.48 73.8213V73.1413H107.52V73.8213H102.48Z" fill="white"/>
<path d="M113.279 68.6613V69.3713H118.299V68.6613H113.279ZM113.279 67.4613V68.1513H118.299V67.4613H113.279ZM112.549 66.9213H119.039V69.9013H112.549V66.9213ZM111.359 70.4613H120.169V71.0813H111.359V70.4613ZM115.799 71.7113H119.359V72.3213H115.799V71.7113ZM112.659 71.7713H115.129V72.3313H112.659V71.7713ZM112.659 73.0313H115.129V73.5913H112.659V73.0313ZM116.849 72.2713C117.429 73.7013 118.709 74.7913 120.409 75.2113C120.249 75.3513 120.049 75.6213 119.949 75.8013C118.189 75.2813 116.899 74.0913 116.239 72.4513L116.849 72.2713ZM119.129 71.7113H119.269L119.399 71.6813L119.859 71.8713C119.199 73.9013 117.589 75.1513 115.849 75.7513C115.769 75.5713 115.579 75.3013 115.439 75.1613C117.039 74.6813 118.579 73.5113 119.129 71.8313V71.7113ZM111.269 74.5613C112.249 74.4813 113.699 74.3213 115.109 74.1613V74.7813C113.759 74.9413 112.369 75.1113 111.339 75.2313L111.269 74.5613ZM114.729 70.6613H115.449V75.8013H114.729V70.6613ZM112.219 70.6713H112.919V74.7413H112.219V70.6713Z" fill="white"/>
<path d="M121.399 69.4813H130.189V70.2413H121.399V69.4813ZM126.269 69.7813C126.919 72.2013 128.279 74.2213 130.359 75.0813C130.169 75.2513 129.919 75.5713 129.789 75.7813C127.629 74.7613 126.269 72.6513 125.519 69.9613L126.269 69.7813ZM125.389 66.6113H126.199C126.159 69.2313 126.139 73.7913 121.769 75.7913C121.649 75.5913 121.409 75.3213 121.199 75.1713C125.449 73.3213 125.369 69.0113 125.389 66.6113Z" fill="white"/>
<path d="M131.449 66.9713H140.139V67.5213H131.449V66.9713ZM134.209 67.2013H134.889V69.4513H134.209V67.2013ZM136.569 67.2013H137.269V69.4513H136.569V67.2013ZM132.609 68.5113V69.1313H138.959V68.5113H132.609ZM131.919 68.0113H139.679V69.6413H131.919V68.0113ZM135.169 70.1713H139.949V70.7113H135.169V70.1713ZM135.469 72.2713V72.6913H138.729V72.2713H135.469ZM135.469 71.4713V71.8713H138.729V71.4713H135.469ZM134.829 71.0613H139.389V73.1013H134.829V71.0613ZM133.089 69.7213L133.749 69.9413C133.239 70.6513 132.409 71.4013 131.659 71.8613C131.539 71.7313 131.339 71.5013 131.199 71.3913C131.909 70.9813 132.709 70.3113 133.089 69.7213ZM133.339 71.0013L133.979 71.2213C133.409 72.1113 132.479 73.0713 131.559 73.6813C131.469 73.5513 131.269 73.3113 131.139 73.2013C131.989 72.6613 132.899 71.7713 133.339 71.0013ZM135.239 69.6313L135.889 69.8113C135.489 70.6813 134.829 71.5213 134.179 72.0713C134.069 71.9613 133.799 71.7213 133.639 71.6213C134.299 71.1313 134.889 70.4013 135.239 69.6313ZM135.929 73.5013H138.939V73.9813H135.549L135.929 73.5013ZM138.729 73.5013H138.859L138.989 73.4713L139.399 73.7113C138.409 75.0413 136.249 75.5813 134.109 75.8113C134.049 75.6513 133.929 75.4313 133.829 75.2913C135.829 75.1313 137.899 74.6513 138.729 73.6013V73.5013ZM135.579 73.8513C136.479 74.6613 138.429 75.1113 140.399 75.2513C140.269 75.3813 140.119 75.6213 140.039 75.7713C138.039 75.5913 136.059 75.0313 135.059 74.0613L135.579 73.8513ZM136.229 72.8413L136.829 73.0313C136.229 73.7413 135.249 74.3013 134.179 74.6813C134.089 74.5613 133.889 74.3613 133.759 74.2713C134.779 73.9213 135.739 73.4013 136.229 72.8413ZM132.469 72.3513L132.959 71.8513L133.139 71.9013V75.8013H132.469V72.3513Z" fill="white"/>
<path d="M141.229 74.8613H150.329V75.5213H141.229V74.8613ZM141.859 67.9113H149.659V68.5213H141.859V67.9113ZM141.459 70.9013H150.109V71.5113H141.459V70.9013ZM142.359 69.3813H149.229V69.9813H142.359V69.3813ZM142.309 72.2813H149.299V75.1713H148.569V72.9213H147.159V75.1713H146.469V72.9213H145.079V75.1713H144.389V72.9213H143.009V75.1713H142.309V72.2813ZM143.289 66.8313L143.949 66.6013C144.239 66.9513 144.529 67.4313 144.659 67.7513L143.969 68.0313C143.849 67.7013 143.559 67.1913 143.289 66.8313ZM147.609 66.5913L148.349 66.8013C148.059 67.3413 147.709 67.8913 147.429 68.2813L146.809 68.0713C147.079 67.6713 147.429 67.0313 147.609 66.5913ZM145.379 68.1913H146.149V71.2613H145.379V68.1913Z" fill="white"/>
<path d="M155.359 66.6113H156.129V68.0113H155.359V66.6113ZM155.359 72.3213H156.129V75.8413H155.359V72.3213ZM151.309 73.1013H160.249V73.7913H151.309V73.1013ZM151.619 67.7313H159.969V68.4213H151.619V67.7313ZM159.179 68.6913L159.839 69.0413C159.329 69.5113 158.679 69.9713 158.169 70.2913L157.629 69.9713C158.119 69.6313 158.799 69.0913 159.179 68.6913ZM155.199 68.2613L155.849 68.5113C155.469 69.0313 155.019 69.5913 154.649 69.9713L154.159 69.7413C154.509 69.3413 154.949 68.6913 155.199 68.2613ZM156.659 69.0213L157.259 69.3113C156.479 70.2813 155.389 71.4513 154.539 72.1713L154.089 71.9113C154.939 71.1613 156.019 69.9213 156.659 69.0213ZM153.729 69.7313L154.109 69.3013C154.679 69.6413 155.429 70.1613 155.789 70.5213L155.399 71.0213C155.049 70.6513 154.319 70.1013 153.729 69.7313ZM153.609 71.6713C154.579 71.6413 156.029 71.5713 157.469 71.5013V72.0513C156.109 72.1613 154.739 72.2513 153.709 72.3213L153.609 71.6713ZM156.289 70.7713L156.829 70.5213C157.329 71.0713 157.879 71.8313 158.109 72.3313L157.529 72.6313C157.309 72.1213 156.779 71.3313 156.289 70.7713ZM151.269 71.8813C151.909 71.6413 152.869 71.2413 153.799 70.8513L153.939 71.4213C153.139 71.8013 152.309 72.1913 151.649 72.4913L151.269 71.8813ZM151.629 69.2513L152.129 68.8413C152.679 69.1313 153.379 69.5913 153.729 69.9113L153.209 70.3813C152.869 70.0513 152.189 69.5713 151.629 69.2513ZM157.439 71.1613L157.959 70.7413C158.729 71.1213 159.739 71.7013 160.259 72.1113L159.709 72.5913C159.219 72.1813 158.219 71.5613 157.439 71.1613Z" fill="white"/>
<path d="M80.56 80.9113V88.0013H79.71V82.9213H77.87V82.2413C78.84 82.2413 79.72 81.9813 79.91 80.9113H80.56Z" fill="white"/>
<path d="M87.2266 85.3713C87.2266 84.4013 86.7266 83.4613 85.6266 83.4613C84.4866 83.4613 84.0466 84.4413 84.0466 85.4113C84.0466 86.4313 84.5066 87.3713 85.6766 87.3713C86.8366 87.3713 87.2266 86.3813 87.2266 85.3713ZM83.2266 89.9813V82.8313H84.0766V83.5313H84.0966C84.3766 82.9613 85.0366 82.7113 85.7466 82.7113C87.3366 82.7113 88.1266 83.9713 88.1266 85.4313C88.1266 86.8913 87.3466 88.1213 85.7666 88.1213C85.2366 88.1213 84.4766 87.9213 84.0966 87.3113H84.0766V89.9813H83.2266Z" fill="white"/>
<path d="M88.5744 88.0013L90.5144 85.2813L88.7144 82.8313H89.8044L91.0444 84.6413L92.3344 82.8313H93.3544L91.5744 85.2113L93.5744 88.0013H92.4844L91.0444 85.8613L89.6044 88.0013H88.5744Z" fill="white"/>
<path d="M107.53 84.1213V84.8013H102.49V84.1213H107.53ZM102.49 86.8213V86.1413H107.53V86.8213H102.49Z" fill="white"/>
<path d="M111.589 88.0013V80.8613H112.889L115.139 86.8613L117.399 80.8613H118.699V88.0013H117.799V82.0613H117.779L115.549 88.0013H114.739L112.509 82.0613H112.489V88.0013H111.589Z" fill="white"/>
<path d="M120.32 88.0013V80.8613H121.27V88.0013H120.32Z" fill="white"/>
<path d="M122.858 88.0013V80.8613H123.868L127.628 86.6513H127.648V80.8613H128.548V88.0013H127.508L123.778 82.2713H123.758V88.0013H122.858Z" fill="white"/>
<path d="M138.838 83.0113H137.888C137.688 82.0013 136.878 81.4913 135.888 81.4913C134.188 81.4913 133.468 82.8913 133.468 84.3813C133.468 86.0113 134.188 87.3713 135.898 87.3713C137.148 87.3713 137.868 86.4913 137.958 85.3113H138.908C138.728 87.0913 137.618 88.1713 135.818 88.1713C133.598 88.1713 132.518 86.5313 132.518 84.4513C132.518 82.3813 133.698 80.6913 135.898 80.6913C137.388 80.6913 138.618 81.4913 138.838 83.0113Z" fill="white"/>
<path d="M139.665 85.4213C139.665 83.9013 140.535 82.7113 142.175 82.7113C143.815 82.7113 144.685 83.9013 144.685 85.4213C144.685 86.9313 143.815 88.1213 142.175 88.1213C140.535 88.1213 139.665 86.9313 139.665 85.4213ZM140.565 85.4213C140.565 86.6713 141.285 87.3713 142.175 87.3713C143.065 87.3713 143.785 86.6713 143.785 85.4213C143.785 84.1613 143.065 83.4613 142.175 83.4613C141.285 83.4613 140.565 84.1613 140.565 85.4213Z" fill="white"/>
<path d="M149.907 82.8313L148.017 88.0013H147.107L145.187 82.8313H146.137L147.587 87.1413H147.607L149.017 82.8313H149.907Z" fill="white"/>
<path d="M154.257 86.3613H155.097C154.867 87.5013 154.047 88.1213 152.887 88.1213C151.237 88.1213 150.457 86.9813 150.407 85.4013C150.407 83.8513 151.427 82.7113 152.837 82.7113C154.667 82.7113 155.227 84.4213 155.177 85.6713H151.307C151.277 86.5713 151.787 87.3713 152.917 87.3713C153.617 87.3713 154.107 87.0313 154.257 86.3613ZM151.307 84.9213H154.277C154.237 84.1113 153.627 83.4613 152.787 83.4613C151.897 83.4613 151.367 84.1313 151.307 84.9213Z" fill="white"/>
<path d="M156.028 88.0013V82.8313H156.828V83.9213H156.848C157.258 83.0913 157.828 82.6813 158.748 82.7113V83.6113C157.378 83.6113 156.878 84.3913 156.878 85.7013V88.0013H156.028Z" fill="white"/>
<path d="M162.588 86.2013V85.3313C162.258 85.5713 161.618 85.5813 161.048 85.6813C160.488 85.7813 160.008 85.9813 160.008 86.6113C160.008 87.1713 160.488 87.3713 161.008 87.3713C162.128 87.3713 162.588 86.6713 162.588 86.2013ZM163.968 87.3213V87.9813C163.818 88.0713 163.628 88.1213 163.358 88.1213C162.918 88.1213 162.638 87.8813 162.638 87.3213C162.168 87.8713 161.538 88.1213 160.818 88.1213C159.878 88.1213 159.108 87.7013 159.108 86.6713C159.108 85.5013 159.978 85.2513 160.858 85.0813C161.798 84.9013 162.598 84.9613 162.598 84.3213C162.598 83.5813 161.988 83.4613 161.448 83.4613C160.728 83.4613 160.198 83.6813 160.158 84.4413H159.308C159.358 83.1613 160.348 82.7113 161.498 82.7113C162.428 82.7113 163.438 82.9213 163.438 84.1313V86.7913C163.438 87.1913 163.438 87.3713 163.708 87.3713C163.778 87.3713 163.858 87.3613 163.968 87.3213Z" fill="white"/>
<path d="M166.839 87.3113C167.959 87.3113 168.379 86.2813 168.379 85.3113C168.379 84.4013 167.979 83.4613 166.909 83.4613C165.819 83.4613 165.379 84.3513 165.379 85.3413C165.379 86.2713 165.719 87.3113 166.839 87.3113ZM169.219 82.8313V87.5613C169.219 89.2413 168.449 90.1013 166.819 90.1013C165.849 90.1013 164.729 89.7113 164.679 88.5813H165.529C165.569 89.2013 166.309 89.4213 166.869 89.4213C167.979 89.4213 168.419 88.6213 168.419 87.4613V87.1213H168.399C168.119 87.7513 167.439 88.0613 166.789 88.0613C165.249 88.0613 164.479 86.8513 164.479 85.4413C164.479 84.2213 165.079 82.7113 166.869 82.7113C167.519 82.7113 168.099 83.0013 168.409 83.5713H168.419V82.8313H169.219Z" fill="white"/>
<path d="M174.071 86.3613H174.911C174.681 87.5013 173.861 88.1213 172.701 88.1213C171.051 88.1213 170.271 86.9813 170.221 85.4013C170.221 83.8513 171.241 82.7113 172.651 82.7113C174.481 82.7113 175.041 84.4213 174.991 85.6713H171.121C171.091 86.5713 171.601 87.3713 172.731 87.3713C173.431 87.3713 173.921 87.0313 174.071 86.3613ZM171.121 84.9213H174.091C174.051 84.1113 173.441 83.4613 172.601 83.4613C171.711 83.4613 171.181 84.1313 171.121 84.9213Z" fill="white"/>
<path d="M78.29 96.4213H77.44C77.37 94.9813 78.22 93.9113 79.72 93.9113C80.96 93.9113 81.94 94.6313 81.94 95.9513C81.94 97.2013 81.1 97.8313 80.22 98.3813C79.33 98.9213 78.4 99.3713 78.23 100.251H81.87V101.001H77.24C77.38 99.3213 78.23 98.7213 79.23 98.1013C80.43 97.3613 81.04 96.9213 81.04 95.9413C81.04 95.1713 80.42 94.6613 79.67 94.6613C78.68 94.6613 78.26 95.5713 78.29 96.4213Z" fill="white"/>
<path d="M82.9766 97.5213C82.9766 95.9513 83.1166 93.9113 85.3366 93.9113C87.5566 93.9113 87.6966 95.9513 87.6966 97.5213C87.6966 99.0813 87.5566 101.121 85.3366 101.121C83.1166 101.121 82.9766 99.0813 82.9766 97.5213ZM83.8766 97.5113C83.8766 98.5713 83.8866 100.371 85.3366 100.371C86.7866 100.371 86.7966 98.5713 86.7966 97.5113C86.7966 96.4613 86.7866 94.6613 85.3366 94.6613C83.8866 94.6613 83.8766 96.4613 83.8766 97.5113Z" fill="white"/>
<path d="M92.7833 98.3713C92.7833 97.4013 92.2833 96.4613 91.1833 96.4613C90.0433 96.4613 89.6033 97.4413 89.6033 98.4113C89.6033 99.4313 90.0633 100.371 91.2333 100.371C92.3933 100.371 92.7833 99.3813 92.7833 98.3713ZM88.7833 102.981V95.8313H89.6333V96.5313H89.6533C89.9333 95.9613 90.5933 95.7113 91.3033 95.7113C92.8933 95.7113 93.6833 96.9713 93.6833 98.4313C93.6833 99.8913 92.9033 101.121 91.3233 101.121C90.7933 101.121 90.0333 100.921 89.6533 100.311H89.6333V102.981H88.7833Z" fill="white"/>
<path d="M94.131 101.001L96.071 98.2813L94.271 95.8313H95.361L96.601 97.6413L97.891 95.8313H98.911L97.131 98.2113L99.131 101.001H98.041L96.601 98.8613L95.161 101.001H94.131Z" fill="white"/>
<path d="M107.52 97.1213V97.8013H102.48V97.1213H107.52ZM102.48 99.8213V99.1413H107.52V99.8213H102.48Z" fill="white"/>
<path d="M111.579 101.001V93.8613H112.879L115.129 99.8613L117.389 93.8613H118.689V101.001H117.789V95.0613H117.769L115.539 101.001H114.729L112.499 95.0613H112.479V101.001H111.579Z" fill="white"/>
<path d="M119.42 101.001L122.21 93.8613H123.26L126.05 101.001H125L124.22 98.8513H121.2L120.4 101.001H119.42ZM122.71 94.7213L121.5 98.0513H123.92L122.73 94.7213H122.71Z" fill="white"/>
<path d="M125.965 101.001L128.455 97.3313L126.105 93.8613H127.245L129.025 96.6513L130.885 93.8613H131.945L129.585 97.3313L132.095 101.001H130.935L129.015 98.0513L127.035 101.001H125.965Z" fill="white"/>
<path d="M141.621 96.0113H140.671C140.471 95.0013 139.661 94.4913 138.671 94.4913C136.971 94.4913 136.251 95.8913 136.251 97.3813C136.251 99.0113 136.971 100.371 138.681 100.371C139.931 100.371 140.651 99.4913 140.741 98.3113H141.691C141.511 100.091 140.401 101.171 138.601 101.171C136.381 101.171 135.301 99.5313 135.301 97.4513C135.301 95.3813 136.481 93.6913 138.681 93.6913C140.171 93.6913 141.401 94.4913 141.621 96.0113Z" fill="white"/>
<path d="M142.448 98.4213C142.448 96.9013 143.318 95.7113 144.958 95.7113C146.598 95.7113 147.468 96.9013 147.468 98.4213C147.468 99.9313 146.598 101.121 144.958 101.121C143.318 101.121 142.448 99.9313 142.448 98.4213ZM143.348 98.4213C143.348 99.6713 144.068 100.371 144.958 100.371C145.848 100.371 146.568 99.6713 146.568 98.4213C146.568 97.1613 145.848 96.4613 144.958 96.4613C144.068 96.4613 143.348 97.1613 143.348 98.4213Z" fill="white"/>
<path d="M152.69 95.8313L150.8 101.001H149.89L147.97 95.8313H148.92L150.37 100.141H150.39L151.8 95.8313H152.69Z" fill="white"/>
<path d="M157.04 99.3613H157.88C157.65 100.501 156.83 101.121 155.67 101.121C154.02 101.121 153.24 99.9813 153.19 98.4013C153.19 96.8513 154.21 95.7113 155.62 95.7113C157.45 95.7113 158.01 97.4213 157.96 98.6713H154.09C154.06 99.5713 154.57 100.371 155.7 100.371C156.4 100.371 156.89 100.031 157.04 99.3613ZM154.09 97.9213H157.06C157.02 97.1113 156.41 96.4613 155.57 96.4613C154.68 96.4613 154.15 97.1313 154.09 97.9213Z" fill="white"/>
<path d="M158.811 101.001V95.8313H159.611V96.9213H159.631C160.041 96.0913 160.611 95.6813 161.531 95.7113V96.6113C160.161 96.6113 159.661 97.3913 159.661 98.7013V101.001H158.811Z" fill="white"/>
<path d="M165.371 99.2013V98.3313C165.041 98.5713 164.401 98.5813 163.831 98.6813C163.271 98.7813 162.791 98.9813 162.791 99.6113C162.791 100.171 163.271 100.371 163.791 100.371C164.911 100.371 165.371 99.6713 165.371 99.2013ZM166.751 100.321V100.981C166.601 101.071 166.411 101.121 166.141 101.121C165.701 101.121 165.421 100.881 165.421 100.321C164.951 100.871 164.321 101.121 163.601 101.121C162.661 101.121 161.891 100.701 161.891 99.6713C161.891 98.5013 162.761 98.2513 163.641 98.0813C164.581 97.9013 165.381 97.9613 165.381 97.3213C165.381 96.5813 164.771 96.4613 164.231 96.4613C163.511 96.4613 162.981 96.6813 162.941 97.4413H162.091C162.141 96.1613 163.131 95.7113 164.281 95.7113C165.211 95.7113 166.221 95.9213 166.221 97.1313V99.7913C166.221 100.191 166.221 100.371 166.491 100.371C166.561 100.371 166.641 100.361 166.751 100.321Z" fill="white"/>
<path d="M169.622 100.311C170.742 100.311 171.162 99.2813 171.162 98.3113C171.162 97.4013 170.762 96.4613 169.692 96.4613C168.602 96.4613 168.162 97.3513 168.162 98.3413C168.162 99.2713 168.502 100.311 169.622 100.311ZM172.002 95.8313V100.561C172.002 102.241 171.232 103.101 169.602 103.101C168.632 103.101 167.512 102.711 167.462 101.581H168.312C168.352 102.201 169.092 102.421 169.652 102.421C170.762 102.421 171.202 101.621 171.202 100.461V100.121H171.182C170.902 100.751 170.222 101.061 169.572 101.061C168.032 101.061 167.262 99.8513 167.262 98.4413C167.262 97.2213 167.862 95.7113 169.652 95.7113C170.302 95.7113 170.882 96.0013 171.192 96.5713H171.202V95.8313H172.002Z" fill="white"/>
<path d="M176.855 99.3613H177.695C177.465 100.501 176.645 101.121 175.485 101.121C173.835 101.121 173.055 99.9813 173.005 98.4013C173.005 96.8513 174.025 95.7113 175.435 95.7113C177.265 95.7113 177.825 97.4213 177.775 98.6713H173.905C173.875 99.5713 174.385 100.371 175.515 100.371C176.215 100.371 176.705 100.031 176.855 99.3613ZM173.905 97.9213H176.875C176.835 97.1113 176.225 96.4613 175.385 96.4613C174.495 96.4613 173.965 97.1313 173.905 97.9213Z" fill="white"/>
</svg>
