<svg width="173" height="104" viewBox="0 0 173 104" fill="none" xmlns="http://www.w3.org/2000/svg">
<path d="M26.9604 46.4637V102.335M26.9604 65.6518H79.4455M46.7129 69.0008L55.1782 77.4661H81.1386M11.812 1.98878L10.96 2.82878C10.624 2.51678 9.952 2.02478 9.472 1.70078L10.3 0.956781C10.792 1.24478 11.464 1.68878 11.812 1.98878ZM3.868 7.19678L5.752 6.88478C5.704 7.24478 5.692 7.78478 5.716 8.07278C2.788 8.63678 2.308 8.78078 1.996 8.96078C1.924 8.69678 1.708 8.06078 1.552 7.71278C1.864 7.64078 2.14 7.37678 2.512 6.94478C2.704 6.75278 3.052 6.30878 3.46 5.75678C2.392 5.87678 2.104 5.94878 1.912 6.04478C1.84 5.78078 1.612 5.10878 1.456 4.73678C1.708 4.66478 1.912 4.41278 2.176 4.02878C2.44 3.68078 3.256 2.22878 3.688 0.860781L5.02 1.50878C4.564 2.56478 3.904 3.68078 3.244 4.60478L4.252 4.52078C4.504 4.11278 4.744 3.69278 4.948 3.26078L6.1 3.99278C5.464 5.12078 4.684 6.23678 3.868 7.19678ZM5.668 8.92478L5.884 10.0888C4.516 10.5688 3.052 11.0968 1.888 11.4808L1.6 10.1368C2.608 9.87278 4.168 9.38078 5.668 8.92478ZM11.32 6.78878L12.52 7.32878C11.956 8.21678 11.236 9.00878 10.408 9.66878C10.672 10.2808 10.96 10.6528 11.26 10.6528C11.488 10.6528 11.596 10.3408 11.656 9.38078C11.932 9.71678 12.352 10.0288 12.652 10.1728C12.424 11.6488 12.052 12.0328 11.104 12.0328C10.324 12.0328 9.736 11.4448 9.256 10.4848C8.368 11.0488 7.396 11.4928 6.364 11.8648C6.196 11.5048 5.836 11.0248 5.5 10.6888C6.664 10.3408 7.792 9.86078 8.776 9.23678C8.596 8.57678 8.428 7.84478 8.296 7.05278L6.16 7.43678L5.932 6.17678L8.128 5.76878C8.08 5.39678 8.044 5.01278 8.008 4.62878L6.412 4.88078L6.172 3.59678L7.924 3.33278C7.876 2.49278 7.852 1.64078 7.852 0.800781H9.268C9.256 1.58078 9.268 2.36078 9.304 3.11678L11.872 2.73278L12.112 3.96878L9.388 4.40078C9.424 4.78478 9.46 5.15678 9.496 5.51678L12.196 5.03678L12.424 6.27278L9.676 6.78878C9.772 7.34078 9.868 7.86878 9.976 8.33678C10.516 7.88078 10.972 7.35278 11.32 6.78878ZM19.936 7.59278H22.912C22.36 7.26878 21.868 6.90878 21.412 6.50078C20.956 6.92078 20.464 7.26878 19.936 7.59278ZM20.26 10.3888H22.516V8.79278H20.26V10.3888ZM18.22 6.65678V7.02878C19.048 6.66878 19.84 6.15278 20.512 5.52878C20.224 5.18078 19.984 4.82078 19.768 4.47278C19.54 4.77278 19.3 5.04878 19.06 5.30078C18.856 5.08478 18.424 4.70078 18.1 4.48478V5.25278H16.9V6.65678H18.22ZM15.196 2.50478L15.208 4.02878H16.792V2.50478H15.196ZM22.228 3.18878H20.572L20.476 3.36878C20.716 3.77678 21.016 4.19678 21.352 4.60478C21.7 4.16078 21.988 3.69278 22.228 3.18878ZM23.08 1.92878L23.98 2.31278C23.608 3.57278 23.044 4.64078 22.312 5.54078C23.008 6.09278 23.836 6.57278 24.796 6.87278C24.508 7.14878 24.1 7.70078 23.908 8.07278L23.884 8.06078V11.9848H22.516V11.6128H20.26V12.0208H18.94V8.12078L18.664 8.24078C18.568 8.04878 18.4 7.78478 18.22 7.55678V7.90478H16.9V9.50078L18.316 9.17678L18.448 10.4368C16.768 10.8568 14.944 11.2768 13.588 11.5888L13.336 10.2208L13.876 10.1248V6.09278H15.04V9.88478L15.64 9.76478V5.25278H13.96V1.28078H18.1V4.25678C18.976 3.41678 19.696 2.14478 20.092 0.836781L21.448 1.17278C21.352 1.43678 21.256 1.71278 21.148 1.97678H22.828L23.08 1.92878ZM36.364 3.90878H29.944C29.656 4.53278 29.344 5.14478 28.972 5.72078H30.904V4.34078H32.344V5.72078H35.788V9.44078C35.788 10.1008 35.656 10.4608 35.176 10.6768C34.72 10.8808 34.072 10.8928 33.172 10.8928C33.112 10.4968 32.908 9.95678 32.728 9.59678C33.28 9.62078 33.916 9.62078 34.084 9.62078C34.276 9.62078 34.336 9.57278 34.336 9.41678V7.07678H32.344V12.0328H30.904V7.07678H29.008V10.9768H27.58V7.50878C27.112 8.00078 26.62 8.43278 26.056 8.82878C25.876 8.46878 25.504 7.89278 25.252 7.56878C26.584 6.70478 27.604 5.37278 28.348 3.90878H25.672V2.54078H28.96C29.188 1.95278 29.368 1.37678 29.5 0.800781L30.976 1.13678C30.832 1.60478 30.676 2.07278 30.508 2.54078H36.364V3.90878ZM44.02 9.74078V8.66078H41.944V9.74078H44.02ZM45.772 2.60078H40.096V3.64478H45.772V2.60078ZM40.072 5.60078H48.1C48.1 5.60078 48.088 6.00878 48.076 6.18878C47.956 9.65678 47.812 10.9768 47.452 11.4328C47.176 11.7808 46.888 11.9008 46.492 11.9488C46.132 12.0088 45.592 12.0088 45.016 11.9968C44.992 11.6608 44.884 11.2168 44.716 10.8688H41.944V11.5888H40.624V7.53278H45.352V10.7248C45.544 10.7248 45.7 10.7248 45.808 10.7248C45.976 10.7368 46.084 10.7008 46.204 10.5688C46.42 10.3288 46.54 9.32078 46.624 6.83678H39.976C39.796 8.55278 39.364 10.4008 38.404 11.7328C38.176 11.4688 37.576 10.9768 37.264 10.8208C38.596 8.97278 38.704 6.23678 38.704 4.35278V1.40078H47.188V4.84478H40.096C40.084 5.08478 40.084 5.33678 40.072 5.60078ZM57.136 10.3648H58.696V6.71678C58.456 6.99278 58.192 7.37678 58.06 7.62878C57.016 7.41278 55.996 7.05278 55.072 6.57278C54.76 6.74078 54.436 6.88478 54.112 7.02878C55.06 7.23278 56.188 7.58078 56.86 7.88078L56.284 8.75678C55.576 8.43278 54.304 8.00078 53.296 7.78478L53.74 7.17278C53.092 7.42478 52.42 7.62878 51.772 7.78478C51.676 7.50878 51.46 7.10078 51.256 6.81278V10.3648H56.932C55.732 9.93278 53.788 9.50078 52.204 9.32078L52.852 8.39678C54.472 8.56478 56.5 8.99678 57.724 9.41678L57.136 10.3648ZM53.848 2.57678H51.256V6.59678C52.12 6.42878 53.02 6.17678 53.836 5.85278C53.524 5.62478 53.236 5.39678 52.984 5.15678C52.744 5.36078 52.492 5.54078 52.252 5.69678C52.036 5.46878 51.58 5.04878 51.316 4.85678C52.288 4.30478 53.26 3.46478 53.848 2.57678ZM56.2 4.54478H53.896C54.208 4.82078 54.58 5.08478 55.012 5.30078C55.468 5.08478 55.852 4.82078 56.2 4.54478ZM58.696 6.53678V2.57678H54.028L55.048 2.93678C54.928 3.11678 54.796 3.30878 54.652 3.48878H57.268L57.472 3.44078L58.276 3.92078C57.796 4.66478 57.088 5.31278 56.272 5.87678C57.028 6.16478 57.868 6.38078 58.696 6.53678ZM49.888 1.29278H60.136V12.0568H58.696V11.6248H51.256V12.0568H49.888V1.29278ZM1.912 16.4328H6.004C6.948 16.4328 7.656 16.6368 8.128 17.0448C8.6 17.4528 8.836 18.0208 8.836 18.7488C8.836 19.1568 8.776 19.4968 8.656 19.7688C8.536 20.0328 8.396 20.2488 8.236 20.4168C8.076 20.5768 7.916 20.6928 7.756 20.7648C7.604 20.8368 7.492 20.8848 7.42 20.9088V20.9328C7.548 20.9488 7.684 20.9888 7.828 21.0528C7.98 21.1168 8.12 21.2208 8.248 21.3648C8.376 21.5008 8.48 21.6808 8.56 21.9048C8.648 22.1288 8.692 22.4088 8.692 22.7448C8.692 23.2488 8.728 23.7088 8.8 24.1248C8.88 24.5328 9 24.8248 9.16 25.0008H7.552C7.44 24.8168 7.372 24.6128 7.348 24.3888C7.332 24.1648 7.324 23.9488 7.324 23.7408C7.324 23.3488 7.3 23.0128 7.252 22.7328C7.204 22.4448 7.116 22.2088 6.988 22.0248C6.86 21.8328 6.684 21.6928 6.46 21.6048C6.244 21.5168 5.964 21.4728 5.62 21.4728H3.412V25.0008H1.912V16.4328ZM3.412 20.3328H5.872C6.352 20.3328 6.716 20.2208 6.964 19.9968C7.212 19.7648 7.336 19.4208 7.336 18.9648C7.336 18.6928 7.296 18.4728 7.216 18.3048C7.136 18.1288 7.024 17.9928 6.88 17.8968C6.744 17.8008 6.584 17.7368 6.4 17.7048C6.224 17.6728 6.04 17.6568 5.848 17.6568H3.412V20.3328ZM13.0132 25.1688C12.5172 25.1688 12.0732 25.0888 11.6812 24.9288C11.2972 24.7608 10.9692 24.5328 10.6972 24.2448C10.4332 23.9568 10.2292 23.6128 10.0852 23.2128C9.94922 22.8128 9.88122 22.3728 9.88122 21.8928C9.88122 21.4208 9.94922 20.9848 10.0852 20.5848C10.2292 20.1848 10.4332 19.8408 10.6972 19.5528C10.9692 19.2648 11.2972 19.0408 11.6812 18.8808C12.0732 18.7128 12.5172 18.6288 13.0132 18.6288C13.5092 18.6288 13.9492 18.7128 14.3332 18.8808C14.7252 19.0408 15.0532 19.2648 15.3172 19.5528C15.5892 19.8408 15.7932 20.1848 15.9292 20.5848C16.0732 20.9848 16.1452 21.4208 16.1452 21.8928C16.1452 22.3728 16.0732 22.8128 15.9292 23.2128C15.7932 23.6128 15.5892 23.9568 15.3172 24.2448C15.0532 24.5328 14.7252 24.7608 14.3332 24.9288C13.9492 25.0888 13.5092 25.1688 13.0132 25.1688ZM13.0132 24.0888C13.3172 24.0888 13.5812 24.0248 13.8052 23.8968C14.0292 23.7688 14.2132 23.6008 14.3572 23.3928C14.5012 23.1848 14.6052 22.9528 14.6692 22.6968C14.7412 22.4328 14.7772 22.1648 14.7772 21.8928C14.7772 21.6288 14.7412 21.3648 14.6692 21.1008C14.6052 20.8368 14.5012 20.6048 14.3572 20.4048C14.2132 20.1968 14.0292 20.0288 13.8052 19.9008C13.5812 19.7728 13.3172 19.7088 13.0132 19.7088C12.7092 19.7088 12.4452 19.7728 12.2212 19.9008C11.9972 20.0288 11.8132 20.1968 11.6692 20.4048C11.5252 20.6048 11.4172 20.8368 11.3452 21.1008C11.2812 21.3648 11.2492 21.6288 11.2492 21.8928C11.2492 22.1648 11.2812 22.4328 11.3452 22.6968C11.4172 22.9528 11.5252 23.1848 11.6692 23.3928C11.8132 23.6008 11.9972 23.7688 12.2212 23.8968C12.4452 24.0248 12.7092 24.0888 13.0132 24.0888ZM22.7305 25.0008H21.3865V24.1368H21.3625C21.1945 24.4488 20.9425 24.7008 20.6065 24.8928C20.2785 25.0768 19.9425 25.1688 19.5985 25.1688C18.7825 25.1688 18.1905 24.9688 17.8225 24.5688C17.4625 24.1608 17.2825 23.5488 17.2825 22.7328V18.7968H18.6505V22.6008C18.6505 23.1448 18.7545 23.5288 18.9625 23.7528C19.1705 23.9768 19.4625 24.0888 19.8385 24.0888C20.1265 24.0888 20.3665 24.0448 20.5585 23.9568C20.7505 23.8688 20.9065 23.7528 21.0265 23.6088C21.1465 23.4568 21.2305 23.2768 21.2785 23.0688C21.3345 22.8608 21.3625 22.6368 21.3625 22.3968V18.7968H22.7305V25.0008ZM23.5491 18.7968H24.5811V16.9368H25.9491V18.7968H27.1851V19.8168H25.9491V23.1288C25.9491 23.2728 25.9531 23.3968 25.9611 23.5008C25.9771 23.6048 26.0051 23.6928 26.0451 23.7648C26.0931 23.8368 26.1611 23.8928 26.2491 23.9328C26.3371 23.9648 26.4571 23.9808 26.6091 23.9808C26.7051 23.9808 26.8011 23.9808 26.8971 23.9808C26.9931 23.9728 27.0891 23.9568 27.1851 23.9328V24.9888C27.0331 25.0048 26.8851 25.0208 26.7411 25.0368C26.5971 25.0528 26.4491 25.0608 26.2971 25.0608C25.9371 25.0608 25.6451 25.0288 25.4211 24.9648C25.2051 24.8928 25.0331 24.7928 24.9051 24.6648C24.7851 24.5288 24.7011 24.3608 24.6531 24.1608C24.6131 23.9608 24.5891 23.7328 24.5811 23.4768V19.8168H23.5491V18.7968ZM32.4292 21.3528C32.4132 21.1368 32.3652 20.9288 32.2852 20.7288C32.2132 20.5288 32.1092 20.3568 31.9732 20.2128C31.8452 20.0608 31.6852 19.9408 31.4932 19.8528C31.3092 19.7568 31.1012 19.7088 30.8692 19.7088C30.6292 19.7088 30.4092 19.7528 30.2092 19.8408C30.0172 19.9208 29.8492 20.0368 29.7052 20.1888C29.5692 20.3328 29.4572 20.5048 29.3692 20.7048C29.2892 20.9048 29.2452 21.1208 29.2372 21.3528H32.4292ZM29.2372 22.2528C29.2372 22.4928 29.2692 22.7248 29.3332 22.9488C29.4052 23.1728 29.5092 23.3688 29.6452 23.5368C29.7812 23.7048 29.9532 23.8408 30.1612 23.9448C30.3692 24.0408 30.6172 24.0888 30.9052 24.0888C31.3052 24.0888 31.6252 24.0048 31.8652 23.8368C32.1132 23.6608 32.2972 23.4008 32.4172 23.0568H33.7132C33.6412 23.3928 33.5172 23.6928 33.3412 23.9568C33.1652 24.2208 32.9532 24.4448 32.7052 24.6288C32.4572 24.8048 32.1772 24.9368 31.8652 25.0248C31.5612 25.1208 31.2412 25.1688 30.9052 25.1688C30.4172 25.1688 29.9852 25.0888 29.6092 24.9288C29.2332 24.7688 28.9132 24.5448 28.6492 24.2568C28.3932 23.9688 28.1972 23.6248 28.0612 23.2248C27.9332 22.8248 27.8692 22.3848 27.8692 21.9048C27.8692 21.4648 27.9372 21.0488 28.0732 20.6568C28.2172 20.2568 28.4172 19.9088 28.6732 19.6128C28.9372 19.3088 29.2532 19.0688 29.6212 18.8928C29.9892 18.7168 30.4052 18.6288 30.8692 18.6288C31.3572 18.6288 31.7932 18.7328 32.1772 18.9408C32.5692 19.1408 32.8932 19.4088 33.1492 19.7448C33.4052 20.0808 33.5892 20.4688 33.7012 20.9088C33.8212 21.3408 33.8532 21.7888 33.7972 22.2528H29.2372ZM38.369 16.4328H39.869V23.7048H44.225V25.0008H38.369V16.4328ZM50.2637 23.6208C50.2637 23.7888 50.2837 23.9088 50.3237 23.9808C50.3717 24.0528 50.4597 24.0888 50.5877 24.0888C50.6277 24.0888 50.6757 24.0888 50.7317 24.0888C50.7877 24.0888 50.8517 24.0808 50.9237 24.0648V25.0128C50.8757 25.0288 50.8117 25.0448 50.7317 25.0608C50.6597 25.0848 50.5837 25.1048 50.5037 25.1208C50.4237 25.1368 50.3437 25.1488 50.2637 25.1568C50.1837 25.1648 50.1157 25.1688 50.0597 25.1688C49.7797 25.1688 49.5477 25.1128 49.3637 25.0008C49.1797 24.8888 49.0597 24.6928 49.0037 24.4128C48.7317 24.6768 48.3957 24.8688 47.9957 24.9888C47.6037 25.1088 47.2237 25.1688 46.8557 25.1688C46.5757 25.1688 46.3077 25.1288 46.0517 25.0488C45.7957 24.9768 45.5677 24.8688 45.3677 24.7248C45.1757 24.5728 45.0197 24.3848 44.8997 24.1608C44.7877 23.9288 44.7317 23.6608 44.7317 23.3568C44.7317 22.9728 44.7997 22.6608 44.9357 22.4208C45.0797 22.1808 45.2637 21.9928 45.4877 21.8568C45.7197 21.7208 45.9757 21.6248 46.2557 21.5688C46.5437 21.5048 46.8317 21.4568 47.1197 21.4248C47.3677 21.3768 47.6037 21.3448 47.8277 21.3288C48.0517 21.3048 48.2477 21.2688 48.4157 21.2208C48.5917 21.1728 48.7277 21.1008 48.8237 21.0048C48.9277 20.9008 48.9797 20.7488 48.9797 20.5488C48.9797 20.3728 48.9357 20.2288 48.8477 20.1168C48.7677 20.0048 48.6637 19.9208 48.5357 19.8648C48.4157 19.8008 48.2797 19.7608 48.1277 19.7448C47.9757 19.7208 47.8317 19.7088 47.6957 19.7088C47.3117 19.7088 46.9957 19.7888 46.7477 19.9488C46.4997 20.1088 46.3597 20.3568 46.3277 20.6928H44.9597C44.9837 20.2928 45.0797 19.9608 45.2477 19.6968C45.4157 19.4328 45.6277 19.2208 45.8837 19.0608C46.1477 18.9008 46.4437 18.7888 46.7717 18.7248C47.0997 18.6608 47.4357 18.6288 47.7797 18.6288C48.0837 18.6288 48.3837 18.6608 48.6797 18.7248C48.9757 18.7888 49.2397 18.8928 49.4717 19.0368C49.7117 19.1808 49.9037 19.3688 50.0477 19.6008C50.1917 19.8248 50.2637 20.1008 50.2637 20.4288V23.6208ZM48.8957 21.8928C48.6877 22.0288 48.4317 22.1128 48.1277 22.1448C47.8237 22.1688 47.5197 22.2088 47.2157 22.2648C47.0717 22.2888 46.9317 22.3248 46.7957 22.3728C46.6597 22.4128 46.5397 22.4728 46.4357 22.5528C46.3317 22.6248 46.2477 22.7248 46.1837 22.8528C46.1277 22.9728 46.0997 23.1208 46.0997 23.2968C46.0997 23.4488 46.1437 23.5768 46.2317 23.6808C46.3197 23.7848 46.4237 23.8688 46.5437 23.9328C46.6717 23.9888 46.8077 24.0288 46.9517 24.0528C47.1037 24.0768 47.2397 24.0888 47.3597 24.0888C47.5117 24.0888 47.6757 24.0688 47.8517 24.0288C48.0277 23.9888 48.1917 23.9208 48.3437 23.8248C48.5037 23.7288 48.6357 23.6088 48.7397 23.4648C48.8437 23.3128 48.8957 23.1288 48.8957 22.9128V21.8928ZM51.0516 18.7968H52.5516L54.1716 23.4288H54.1956L55.7676 18.7968H57.1956L54.7836 25.3368C54.6716 25.6168 54.5596 25.8848 54.4476 26.1408C54.3436 26.3968 54.2116 26.6208 54.0516 26.8128C53.8996 27.0128 53.7076 27.1688 53.4756 27.2808C53.2436 27.4008 52.9476 27.4608 52.5876 27.4608C52.2676 27.4608 51.9516 27.4368 51.6396 27.3888V26.2368C51.7516 26.2528 51.8596 26.2688 51.9636 26.2848C52.0676 26.3088 52.1756 26.3208 52.2876 26.3208C52.4476 26.3208 52.5796 26.3008 52.6836 26.2608C52.7876 26.2208 52.8716 26.1608 52.9356 26.0808C53.0076 26.0088 53.0676 25.9208 53.1156 25.8168C53.1636 25.7128 53.2076 25.5928 53.2476 25.4568L53.4036 24.9768L51.0516 18.7968ZM60.8023 25.1688C60.3063 25.1688 59.8623 25.0888 59.4703 24.9288C59.0863 24.7608 58.7583 24.5328 58.4863 24.2448C58.2223 23.9568 58.0183 23.6128 57.8743 23.2128C57.7383 22.8128 57.6703 22.3728 57.6703 21.8928C57.6703 21.4208 57.7383 20.9848 57.8743 20.5848C58.0183 20.1848 58.2223 19.8408 58.4863 19.5528C58.7583 19.2648 59.0863 19.0408 59.4703 18.8808C59.8623 18.7128 60.3063 18.6288 60.8023 18.6288C61.2983 18.6288 61.7383 18.7128 62.1223 18.8808C62.5143 19.0408 62.8423 19.2648 63.1063 19.5528C63.3783 19.8408 63.5823 20.1848 63.7183 20.5848C63.8623 20.9848 63.9343 21.4208 63.9343 21.8928C63.9343 22.3728 63.8623 22.8128 63.7183 23.2128C63.5823 23.6128 63.3783 23.9568 63.1063 24.2448C62.8423 24.5328 62.5143 24.7608 62.1223 24.9288C61.7383 25.0888 61.2983 25.1688 60.8023 25.1688ZM60.8023 24.0888C61.1063 24.0888 61.3703 24.0248 61.5943 23.8968C61.8183 23.7688 62.0023 23.6008 62.1463 23.3928C62.2903 23.1848 62.3943 22.9528 62.4583 22.6968C62.5303 22.4328 62.5663 22.1648 62.5663 21.8928C62.5663 21.6288 62.5303 21.3648 62.4583 21.1008C62.3943 20.8368 62.2903 20.6048 62.1463 20.4048C62.0023 20.1968 61.8183 20.0288 61.5943 19.9008C61.3703 19.7728 61.1063 19.7088 60.8023 19.7088C60.4983 19.7088 60.2343 19.7728 60.0103 19.9008C59.7863 20.0288 59.6023 20.1968 59.4583 20.4048C59.3143 20.6048 59.2063 20.8368 59.1343 21.1008C59.0703 21.3648 59.0383 21.6288 59.0383 21.8928C59.0383 22.1648 59.0703 22.4328 59.1343 22.6968C59.2063 22.9528 59.3143 23.1848 59.4583 23.3928C59.6023 23.6008 59.7863 23.7688 60.0103 23.8968C60.2343 24.0248 60.4983 24.0888 60.8023 24.0888ZM70.5196 25.0008H69.1756V24.1368H69.1516C68.9836 24.4488 68.7316 24.7008 68.3956 24.8928C68.0676 25.0768 67.7316 25.1688 67.3876 25.1688C66.5716 25.1688 65.9796 24.9688 65.6116 24.5688C65.2516 24.1608 65.0716 23.5488 65.0716 22.7328V18.7968H66.4396V22.6008C66.4396 23.1448 66.5436 23.5288 66.7516 23.7528C66.9596 23.9768 67.2516 24.0888 67.6276 24.0888C67.9156 24.0888 68.1556 24.0448 68.3476 23.9568C68.5396 23.8688 68.6956 23.7528 68.8156 23.6088C68.9356 23.4568 69.0196 23.2768 69.0676 23.0688C69.1236 22.8608 69.1516 22.6368 69.1516 22.3968V18.7968H70.5196V25.0008ZM71.3382 18.7968H72.3702V16.9368H73.7382V18.7968H74.9742V19.8168H73.7382V23.1288C73.7382 23.2728 73.7422 23.3968 73.7502 23.5008C73.7662 23.6048 73.7942 23.6928 73.8342 23.7648C73.8822 23.8368 73.9502 23.8928 74.0382 23.9328C74.1262 23.9648 74.2462 23.9808 74.3982 23.9808C74.4942 23.9808 74.5902 23.9808 74.6862 23.9808C74.7822 23.9728 74.8782 23.9568 74.9742 23.9328V24.9888C74.8222 25.0048 74.6742 25.0208 74.5302 25.0368C74.3862 25.0528 74.2382 25.0608 74.0862 25.0608C73.7262 25.0608 73.4342 25.0288 73.2102 24.9648C72.9942 24.8928 72.8222 24.7928 72.6942 24.6648C72.5742 24.5288 72.4902 24.3608 72.4422 24.1608C72.4022 23.9608 72.3782 23.7328 72.3702 23.4768V19.8168H71.3382V18.7968ZM80.63 52.8308V53.7208H85.41V52.8308H80.63ZM85.41 48.5908H80.63V49.4308H85.41V48.5908ZM85.41 50.8108V50.0108H80.63V50.8108H85.41ZM80.63 51.3908V52.2508H85.41V51.3908H80.63ZM86.15 53.7208H87.51V54.4108H78.5V53.7208H79.92V47.9608H82.26C82.3 47.7208 82.35 47.4508 82.39 47.1708H78.79V46.4908H82.49C82.53 46.1808 82.56 45.8808 82.58 45.6208L83.39 45.7008L83.26 46.4908H87.21V47.1708H83.13C83.08 47.4508 83.03 47.7208 82.97 47.9608H86.15V53.7208ZM96.89 46.6708L96.46 47.1308C96.15 46.8608 95.52 46.4708 95.03 46.2308L95.45 45.8208C95.94 46.0308 96.58 46.4108 96.89 46.6708ZM89.87 51.1808L91.85 50.8208C91.83 51.0108 91.83 51.3008 91.85 51.4408C89.36 51.9508 89.03 52.0408 88.82 52.1608C88.78 52.0108 88.68 51.6808 88.59 51.4808C88.8 51.4408 89.03 51.2008 89.33 50.8308C89.52 50.6308 89.91 50.1308 90.34 49.4808C89.14 49.6408 88.9 49.7008 88.75 49.7808C88.72 49.6208 88.6 49.2708 88.52 49.0708C88.7 49.0308 88.87 48.8008 89.09 48.4608C89.3 48.1308 90.02 46.8608 90.42 45.6708L91.12 45.9908C90.68 47.0208 90.11 48.1008 89.52 48.9508L90.77 48.8308C91 48.4608 91.21 48.0908 91.4 47.7208L92.02 48.1008C91.38 49.2008 90.64 50.2908 89.87 51.1808ZM91.89 52.5508L92 53.1808L88.73 54.1508L88.58 53.4308C89.4 53.2408 90.66 52.8808 91.89 52.5508ZM96.84 50.5108L97.46 50.8008C96.96 51.5808 96.29 52.2908 95.5 52.8808C95.81 53.6108 96.19 54.0208 96.62 54.0208C96.89 54.0208 97 53.7808 97.04 52.9008C97.2 53.0708 97.42 53.2308 97.59 53.2908C97.46 54.4108 97.23 54.7408 96.55 54.7408C95.84 54.7408 95.31 54.2108 94.9 53.3108C94.11 53.8308 93.22 54.2708 92.29 54.5908C92.19 54.4008 92 54.1508 91.83 53.9808C92.85 53.6708 93.81 53.2208 94.65 52.6608C94.44 52.0308 94.29 51.2908 94.16 50.4608L92.26 50.8308L92.13 50.1608L94.07 49.8008C94.02 49.3708 93.98 48.9208 93.95 48.4608L92.47 48.6908L92.34 48.0208L93.91 47.7908C93.87 47.0908 93.85 46.3708 93.84 45.6208H94.57C94.57 46.3408 94.58 47.0208 94.61 47.6808L97 47.3308L97.12 47.9808L94.65 48.3608C94.69 48.8208 94.73 49.2508 94.78 49.6708L97.27 49.2008L97.4 49.8508L94.86 50.3308C94.97 51.0408 95.11 51.6808 95.27 52.2208C95.9 51.7108 96.44 51.1408 96.84 50.5108ZM100.43 48.7308V51.6208C100.8 51.4608 101.18 51.2908 101.57 51.1408L101.72 51.8008C100.66 52.3008 99.53 52.7908 98.65 53.1808L98.36 52.4408C98.73 52.3108 99.21 52.1208 99.73 51.9008V48.7308H98.45V48.0208H99.73V45.7508H100.43V48.0208H101.6V48.7308H100.43ZM103.78 53.8708H106.19C106.77 53.8708 106.87 53.6008 106.94 52.4508C107.12 52.5808 107.4 52.7008 107.61 52.7408C107.49 54.1008 107.26 54.5408 106.21 54.5408H103.76C102.63 54.5408 102.29 54.2708 102.29 53.2008V50.0508L101.5 50.3808L101.21 49.7408L102.29 49.2808V46.5608H103V48.9808L104.34 48.4108V45.6308H105.05V48.1208L106.37 47.5608L106.53 47.4208L106.67 47.3108L107.19 47.5108L107.15 47.6508C107.15 49.5208 107.13 51.0108 107.05 51.3908C107 51.8008 106.8 51.9808 106.52 52.0508C106.24 52.1208 105.86 52.1208 105.58 52.1208C105.55 51.9208 105.49 51.6408 105.4 51.4808C105.64 51.4908 105.96 51.4908 106.07 51.4908C106.22 51.4908 106.32 51.4508 106.37 51.2308C106.42 50.9908 106.44 49.8808 106.44 48.2908L105.05 48.8808V52.5508H104.34V49.1808L103 49.7508V53.2108C103 53.7408 103.13 53.8708 103.78 53.8708ZM112.31 47.4608H109.77C109.45 47.9608 109.11 48.4008 108.74 48.7608C108.68 48.6008 108.48 48.2208 108.36 48.0608C108.98 47.4808 109.54 46.5808 109.87 45.6608L110.53 45.8608C110.43 46.1608 110.3 46.4708 110.15 46.7608H112.31V47.4608ZM110.85 53.4408L112.18 52.7608C112.21 52.9608 112.28 53.2508 112.32 53.4008C110.49 54.3908 110.2 54.5508 110.03 54.7108C109.97 54.5308 109.81 54.2208 109.68 54.0608C109.86 53.9508 110.14 53.7208 110.14 53.3108V51.2408H108.63V50.5608H110.14V49.2108H109.12V48.5408H112.05V49.2108H110.85V50.5608H112.29V51.2408H110.85V53.4408ZM117.49 50.7808H115.39C115.76 52.2808 116.48 53.5308 117.61 54.1208C117.45 54.2608 117.22 54.5308 117.1 54.7308C116.07 54.1308 115.41 53.0308 114.97 51.6708C114.62 52.7908 113.94 53.8908 112.61 54.7608C112.5 54.6008 112.26 54.3508 112.08 54.2208C113.62 53.2908 114.23 52.0108 114.46 50.7808H112.47V50.0808H114.56C114.6 49.6108 114.61 49.1508 114.61 48.7408V48.1108H113.41C113.25 48.6408 113.07 49.1208 112.84 49.5108C112.71 49.4108 112.41 49.2308 112.24 49.1408C112.71 48.3708 112.99 47.2008 113.14 46.0308L113.83 46.1408C113.77 46.5808 113.68 47.0108 113.59 47.4208H114.61V45.6908H115.33V47.4208H117.25V48.1108H115.33V48.7408C115.33 49.1608 115.32 49.6108 115.28 50.0808H117.49V50.7808ZM126.89 46.6708L126.46 47.1308C126.15 46.8608 125.52 46.4708 125.03 46.2308L125.45 45.8208C125.94 46.0308 126.58 46.4108 126.89 46.6708ZM119.87 51.1808L121.85 50.8208C121.83 51.0108 121.83 51.3008 121.85 51.4408C119.36 51.9508 119.03 52.0408 118.82 52.1608C118.78 52.0108 118.68 51.6808 118.59 51.4808C118.8 51.4408 119.03 51.2008 119.33 50.8308C119.52 50.6308 119.91 50.1308 120.34 49.4808C119.14 49.6408 118.9 49.7008 118.75 49.7808C118.72 49.6208 118.6 49.2708 118.52 49.0708C118.7 49.0308 118.87 48.8008 119.09 48.4608C119.3 48.1308 120.02 46.8608 120.42 45.6708L121.12 45.9908C120.68 47.0208 120.11 48.1008 119.52 48.9508L120.77 48.8308C121 48.4608 121.21 48.0908 121.4 47.7208L122.02 48.1008C121.38 49.2008 120.64 50.2908 119.87 51.1808ZM121.89 52.5508L122 53.1808L118.73 54.1508L118.58 53.4308C119.4 53.2408 120.66 52.8808 121.89 52.5508ZM126.84 50.5108L127.46 50.8008C126.96 51.5808 126.29 52.2908 125.5 52.8808C125.81 53.6108 126.19 54.0208 126.62 54.0208C126.89 54.0208 127 53.7808 127.04 52.9008C127.2 53.0708 127.42 53.2308 127.59 53.2908C127.46 54.4108 127.23 54.7408 126.55 54.7408C125.84 54.7408 125.31 54.2108 124.9 53.3108C124.11 53.8308 123.22 54.2708 122.29 54.5908C122.19 54.4008 122 54.1508 121.83 53.9808C122.85 53.6708 123.81 53.2208 124.65 52.6608C124.44 52.0308 124.29 51.2908 124.16 50.4608L122.26 50.8308L122.13 50.1608L124.07 49.8008C124.02 49.3708 123.98 48.9208 123.95 48.4608L122.47 48.6908L122.34 48.0208L123.91 47.7908C123.87 47.0908 123.85 46.3708 123.84 45.6208H124.57C124.57 46.3408 124.58 47.0208 124.61 47.6808L127 47.3308L127.12 47.9808L124.65 48.3608C124.69 48.8208 124.73 49.2508 124.78 49.6708L127.27 49.2008L127.4 49.8508L124.86 50.3308C124.97 51.0408 125.11 51.6808 125.27 52.2208C125.9 51.7108 126.44 51.1408 126.84 50.5108ZM133.46 51.1608H136.44C135.88 50.8308 135.39 50.4108 134.96 49.9808C134.5 50.4408 133.99 50.8408 133.46 51.1608ZM133.7 53.7308H136.2V51.8108H133.7V53.7308ZM132.24 50.5408V51.0208C133.04 50.6808 133.83 50.1508 134.5 49.4608C134.13 49.0108 133.83 48.5408 133.58 48.0908C133.3 48.5308 132.99 48.9108 132.67 49.2408C132.56 49.1308 132.33 48.9208 132.15 48.8008V49.1008H131V50.5408H132.24ZM129.58 46.7008V48.4508H131.46V46.7008H129.58ZM135.95 47.3008H134.04L133.94 47.4908C134.19 47.9808 134.52 48.5008 134.93 48.9908C135.35 48.4808 135.7 47.9208 135.95 47.3008ZM136.41 46.6208L136.87 46.8308C136.55 47.8708 136.03 48.7508 135.41 49.4908C136.03 50.0908 136.79 50.6208 137.69 50.9608C137.54 51.1008 137.33 51.3908 137.23 51.5708C137.13 51.5208 137.02 51.4808 136.91 51.4308V54.7208H136.2V54.3908H133.7V54.7508H133.01V51.4208C132.81 51.5208 132.61 51.6108 132.41 51.7008C132.34 51.5508 132.19 51.3508 132.05 51.2008H131V52.9908C131.43 52.8908 131.87 52.7908 132.31 52.6808L132.38 53.3508C131.02 53.6808 129.6 54.0208 128.55 54.2808L128.41 53.5608L128.92 53.4508V50.0408H129.55V53.3208L130.32 53.1408V49.1008H128.92V46.0508H132.15V48.7008C132.94 47.9508 133.59 46.8308 133.96 45.6308L134.67 45.8008C134.57 46.0908 134.46 46.3808 134.35 46.6508H136.28L136.41 46.6208ZM78.78 66.0008V58.8608H79.73V65.2008H83.51V66.0008H78.78ZM84.2466 66.0008V60.8308H85.0966V66.0008H84.2466ZM85.0966 58.8608V59.9008H84.2466V58.8608H85.0966ZM86.4134 66.0008V60.8308H87.2134V61.6508H87.2334C87.5934 61.0108 88.1734 60.7108 88.9134 60.7108C90.2734 60.7108 90.6934 61.4908 90.6934 62.6008V66.0008H89.8434V62.5008C89.8434 61.8708 89.4434 61.4608 88.7934 61.4608C87.7634 61.4608 87.2634 62.1508 87.2634 63.0808V66.0008H86.4134ZM95.5401 64.3608H96.3801C96.1501 65.5008 95.3301 66.1208 94.1701 66.1208C92.5201 66.1208 91.7401 64.9808 91.6901 63.4008C91.6901 61.8508 92.7101 60.7108 94.1201 60.7108C95.9501 60.7108 96.5101 62.4208 96.4601 63.6708H92.5901C92.5601 64.5708 93.0701 65.3708 94.2001 65.3708C94.9001 65.3708 95.3901 65.0308 95.5401 64.3608ZM92.5901 62.9208H95.5601C95.5201 62.1108 94.9101 61.4608 94.0701 61.4608C93.1801 61.4608 92.6501 62.1308 92.5901 62.9208ZM100.541 64.2008V63.3308C100.211 63.5708 99.5712 63.5808 99.0012 63.6808C98.4412 63.7808 97.9612 63.9808 97.9612 64.6108C97.9612 65.1708 98.4412 65.3708 98.9612 65.3708C100.081 65.3708 100.541 64.6708 100.541 64.2008ZM101.921 65.3208V65.9808C101.771 66.0708 101.581 66.1208 101.311 66.1208C100.871 66.1208 100.591 65.8808 100.591 65.3208C100.121 65.8708 99.4912 66.1208 98.7712 66.1208C97.8312 66.1208 97.0612 65.7008 97.0612 64.6708C97.0612 63.5008 97.9312 63.2508 98.8112 63.0808C99.7512 62.9008 100.551 62.9608 100.551 62.3208C100.551 61.5808 99.9412 61.4608 99.4012 61.4608C98.6812 61.4608 98.1512 61.6808 98.1112 62.4408H97.2612C97.3112 61.1608 98.3012 60.7108 99.4512 60.7108C100.381 60.7108 101.391 60.9208 101.391 62.1308V64.7908C101.391 65.1908 101.391 65.3708 101.661 65.3708C101.731 65.3708 101.811 65.3608 101.921 65.3208ZM102.682 66.0008V60.8308H103.482V61.9208H103.502C103.912 61.0908 104.482 60.6808 105.402 60.7108V61.6108C104.032 61.6108 103.532 62.3908 103.532 63.7008V66.0008H102.682ZM113.996 60.9508H113.096C112.986 59.9308 112.306 59.4908 111.326 59.4908C110.526 59.4908 109.726 59.7808 109.726 60.7108C109.726 61.5908 110.866 61.7208 112.016 61.9808C113.156 62.2408 114.296 62.6408 114.296 64.0408C114.296 65.5608 112.806 66.1708 111.506 66.1708C109.906 66.1708 108.556 65.3908 108.556 63.6508H109.456C109.456 64.8508 110.456 65.3708 111.536 65.3708C112.396 65.3708 113.346 65.1008 113.346 64.0708C113.346 63.0908 112.206 62.9208 111.066 62.6708C109.926 62.4208 108.776 62.0908 108.776 60.7808C108.776 59.3308 110.066 58.6908 111.366 58.6908C112.826 58.6908 113.936 59.3808 113.996 60.9508ZM119.59 60.8308V66.0008H118.79V65.1808H118.77C118.41 65.8208 117.83 66.1208 117.09 66.1208C115.73 66.1208 115.31 65.3408 115.31 64.2308V60.8308H116.16V64.3308C116.16 64.9608 116.56 65.3708 117.21 65.3708C118.24 65.3708 118.74 64.6808 118.74 63.7508V60.8308H119.59ZM124.897 63.3708C124.897 62.4008 124.397 61.4608 123.297 61.4608C122.157 61.4608 121.717 62.4408 121.717 63.4108C121.717 64.4308 122.177 65.3708 123.347 65.3708C124.507 65.3708 124.897 64.3808 124.897 63.3708ZM120.897 66.0008V58.8608H121.747V61.5308H121.767C122.047 60.9608 122.707 60.7108 123.417 60.7108C125.007 60.7108 125.797 61.9708 125.797 63.4308C125.797 64.8908 125.017 66.1208 123.437 66.1208C122.907 66.1208 122.147 65.9208 121.767 65.3108H121.747V66.0008H120.897ZM133.564 60.8308L131.914 66.0008H131.014L129.964 61.8908H129.944L128.904 66.0008H127.984L126.324 60.8308H127.264L128.434 65.0608H128.454L129.494 60.8308H130.424L131.504 65.0608H131.524L132.684 60.8308H133.564ZM137.572 64.2008V63.3308C137.242 63.5708 136.602 63.5808 136.032 63.6808C135.472 63.7808 134.992 63.9808 134.992 64.6108C134.992 65.1708 135.472 65.3708 135.992 65.3708C137.112 65.3708 137.572 64.6708 137.572 64.2008ZM138.952 65.3208V65.9808C138.802 66.0708 138.612 66.1208 138.342 66.1208C137.902 66.1208 137.622 65.8808 137.622 65.3208C137.152 65.8708 136.522 66.1208 135.802 66.1208C134.862 66.1208 134.092 65.7008 134.092 64.6708C134.092 63.5008 134.962 63.2508 135.842 63.0808C136.782 62.9008 137.582 62.9608 137.582 62.3208C137.582 61.5808 136.972 61.4608 136.432 61.4608C135.712 61.4608 135.182 61.6808 135.142 62.4408H134.292C134.342 61.1608 135.332 60.7108 136.482 60.7108C137.412 60.7108 138.422 60.9208 138.422 62.1308V64.7908C138.422 65.1908 138.422 65.3708 138.692 65.3708C138.762 65.3708 138.842 65.3608 138.952 65.3208ZM144.024 60.8308L141.774 66.6908C141.384 67.7008 141.034 68.0708 140.274 68.0708C140.074 68.0708 139.874 68.0508 139.684 67.9808V67.2008C139.844 67.2508 140.014 67.3208 140.184 67.3208C140.534 67.3208 140.724 67.1508 140.884 66.8508L141.234 65.9708L139.184 60.8308H140.144L141.654 65.0608H141.674L143.124 60.8308H144.024ZM147.667 66.0008V58.8608H148.617V65.2008H152.397V66.0008H147.667ZM153.133 66.0008V60.8308H153.983V66.0008H153.133ZM153.983 58.8608V59.9008H153.133V58.8608H153.983ZM155.3 66.0008V60.8308H156.1V61.6508H156.12C156.48 61.0108 157.06 60.7108 157.8 60.7108C159.16 60.7108 159.58 61.4908 159.58 62.6008V66.0008H158.73V62.5008C158.73 61.8708 158.33 61.4608 157.68 61.4608C156.65 61.4608 156.15 62.1508 156.15 63.0808V66.0008H155.3ZM164.427 64.3608H165.267C165.037 65.5008 164.217 66.1208 163.057 66.1208C161.407 66.1208 160.627 64.9808 160.577 63.4008C160.577 61.8508 161.597 60.7108 163.007 60.7108C164.837 60.7108 165.397 62.4208 165.347 63.6708H161.477C161.447 64.5708 161.957 65.3708 163.087 65.3708C163.787 65.3708 164.277 65.0308 164.427 64.3608ZM161.477 62.9208H164.447C164.407 62.1108 163.797 61.4608 162.957 61.4608C162.067 61.4608 161.537 62.1308 161.477 62.9208ZM80.32 78.3208L81.32 77.9708L81.44 78.6308C80.46 79.0008 79.4 79.3808 78.59 79.6608L78.4 78.9708C78.74 78.8608 79.17 78.7208 79.63 78.5608V75.8708H78.6V75.1808H79.63V73.0008H78.45V72.3208H81.41V73.0008H80.32V75.1808H81.2V75.8708H80.32V78.3208ZM84.75 75.0608L85.31 74.6808C86.05 75.4908 86.96 76.6008 87.39 77.2908L86.78 77.7508C86.38 77.0508 85.49 75.9008 84.75 75.0608ZM81.92 72.2808H87.41V72.9908H85.26C85.11 73.4208 84.94 73.8508 84.74 74.2508V80.7408H84.01V75.6108C83.46 76.5008 82.83 77.2708 82.14 77.8708C82.02 77.7108 81.73 77.4308 81.56 77.2908C82.8 76.3008 83.82 74.7408 84.46 72.9908H81.92V72.2808ZM96.44 71.8008L97.13 72.0908C96.41 73.0108 95.28 73.8908 94.28 74.4408C94.14 74.2808 93.93 74.0508 93.74 73.9208C94.69 73.4508 95.83 72.6008 96.44 71.8008ZM96.73 74.5308L97.41 74.8208C96.63 75.7908 95.44 76.7408 94.37 77.3408C94.24 77.1808 94.03 76.9508 93.85 76.8108C94.86 76.3008 96.06 75.3908 96.73 74.5308ZM90.45 75.5208H92.06V72.9508H90.45V75.5208ZM93.87 76.2108H92.78V80.7608H92.06V76.2108H90.44C90.4 77.8808 90.15 79.5208 88.96 80.8308C88.84 80.6708 88.57 80.4308 88.4 80.3308C89.48 79.1508 89.7 77.6908 89.74 76.2108H88.45V75.5208H89.75V72.9508H88.6V72.2508H93.72V72.9508H92.78V75.5208H93.87V76.2108ZM96.95 77.2208L97.65 77.4908C96.81 78.8708 95.39 80.0508 93.85 80.7608C93.73 80.5808 93.51 80.3208 93.33 80.1708C94.8 79.5608 96.21 78.4508 96.95 77.2208ZM100.43 74.7308V77.6208C100.8 77.4608 101.18 77.2908 101.57 77.1408L101.72 77.8008C100.66 78.3008 99.53 78.7908 98.65 79.1808L98.36 78.4408C98.73 78.3108 99.21 78.1208 99.73 77.9008V74.7308H98.45V74.0208H99.73V71.7508H100.43V74.0208H101.6V74.7308H100.43ZM103.78 79.8708H106.19C106.77 79.8708 106.87 79.6008 106.94 78.4508C107.12 78.5808 107.4 78.7008 107.61 78.7408C107.49 80.1008 107.26 80.5408 106.21 80.5408H103.76C102.63 80.5408 102.29 80.2708 102.29 79.2008V76.0508L101.5 76.3808L101.21 75.7408L102.29 75.2808V72.5608H103V74.9808L104.34 74.4108V71.6308H105.05V74.1208L106.37 73.5608L106.53 73.4208L106.67 73.3108L107.19 73.5108L107.15 73.6508C107.15 75.5208 107.13 77.0108 107.05 77.3908C107 77.8008 106.8 77.9808 106.52 78.0508C106.24 78.1208 105.86 78.1208 105.58 78.1208C105.55 77.9208 105.49 77.6408 105.4 77.4808C105.64 77.4908 105.96 77.4908 106.07 77.4908C106.22 77.4908 106.32 77.4508 106.37 77.2308C106.42 76.9908 106.44 75.8808 106.44 74.2908L105.05 74.8808V78.5508H104.34V75.1808L103 75.7508V79.2108C103 79.7408 103.13 79.8708 103.78 79.8708ZM112.31 73.4608H109.77C109.45 73.9608 109.11 74.4008 108.74 74.7608C108.68 74.6008 108.48 74.2208 108.36 74.0608C108.98 73.4808 109.54 72.5808 109.87 71.6608L110.53 71.8608C110.43 72.1608 110.3 72.4708 110.15 72.7608H112.31V73.4608ZM110.85 79.4408L112.18 78.7608C112.21 78.9608 112.28 79.2508 112.32 79.4008C110.49 80.3908 110.2 80.5508 110.03 80.7108C109.97 80.5308 109.81 80.2208 109.68 80.0608C109.86 79.9508 110.14 79.7208 110.14 79.3108V77.2408H108.63V76.5608H110.14V75.2108H109.12V74.5408H112.05V75.2108H110.85V76.5608H112.29V77.2408H110.85V79.4408ZM117.49 76.7808H115.39C115.76 78.2808 116.48 79.5308 117.61 80.1208C117.45 80.2608 117.22 80.5308 117.1 80.7308C116.07 80.1308 115.41 79.0308 114.97 77.6708C114.62 78.7908 113.94 79.8908 112.61 80.7608C112.5 80.6008 112.26 80.3508 112.08 80.2208C113.62 79.2908 114.23 78.0108 114.46 76.7808H112.47V76.0808H114.56C114.6 75.6108 114.61 75.1508 114.61 74.7408V74.1108H113.41C113.25 74.6408 113.07 75.1208 112.84 75.5108C112.71 75.4108 112.41 75.2308 112.24 75.1408C112.71 74.3708 112.99 73.2008 113.14 72.0308L113.83 72.1408C113.77 72.5808 113.68 73.0108 113.59 73.4208H114.61V71.6908H115.33V73.4208H117.25V74.1108H115.33V74.7408C115.33 75.1608 115.32 75.6108 115.28 76.0808H117.49V76.7808ZM126.89 72.6708L126.46 73.1308C126.15 72.8608 125.52 72.4708 125.03 72.2308L125.45 71.8208C125.94 72.0308 126.58 72.4108 126.89 72.6708ZM119.87 77.1808L121.85 76.8208C121.83 77.0108 121.83 77.3008 121.85 77.4408C119.36 77.9508 119.03 78.0408 118.82 78.1608C118.78 78.0108 118.68 77.6808 118.59 77.4808C118.8 77.4408 119.03 77.2008 119.33 76.8308C119.52 76.6308 119.91 76.1308 120.34 75.4808C119.14 75.6408 118.9 75.7008 118.75 75.7808C118.72 75.6208 118.6 75.2708 118.52 75.0708C118.7 75.0308 118.87 74.8008 119.09 74.4608C119.3 74.1308 120.02 72.8608 120.42 71.6708L121.12 71.9908C120.68 73.0208 120.11 74.1008 119.52 74.9508L120.77 74.8308C121 74.4608 121.21 74.0908 121.4 73.7208L122.02 74.1008C121.38 75.2008 120.64 76.2908 119.87 77.1808ZM121.89 78.5508L122 79.1808L118.73 80.1508L118.58 79.4308C119.4 79.2408 120.66 78.8808 121.89 78.5508ZM126.84 76.5108L127.46 76.8008C126.96 77.5808 126.29 78.2908 125.5 78.8808C125.81 79.6108 126.19 80.0208 126.62 80.0208C126.89 80.0208 127 79.7808 127.04 78.9008C127.2 79.0708 127.42 79.2308 127.59 79.2908C127.46 80.4108 127.23 80.7408 126.55 80.7408C125.84 80.7408 125.31 80.2108 124.9 79.3108C124.11 79.8308 123.22 80.2708 122.29 80.5908C122.19 80.4008 122 80.1508 121.83 79.9808C122.85 79.6708 123.81 79.2208 124.65 78.6608C124.44 78.0308 124.29 77.2908 124.16 76.4608L122.26 76.8308L122.13 76.1608L124.07 75.8008C124.02 75.3708 123.98 74.9208 123.95 74.4608L122.47 74.6908L122.34 74.0208L123.91 73.7908C123.87 73.0908 123.85 72.3708 123.84 71.6208H124.57C124.57 72.3408 124.58 73.0208 124.61 73.6808L127 73.3308L127.12 73.9808L124.65 74.3608C124.69 74.8208 124.73 75.2508 124.78 75.6708L127.27 75.2008L127.4 75.8508L124.86 76.3308C124.97 77.0408 125.11 77.6808 125.27 78.2208C125.9 77.7108 126.44 77.1408 126.84 76.5108ZM133.46 77.1608H136.44C135.88 76.8308 135.39 76.4108 134.96 75.9808C134.5 76.4408 133.99 76.8408 133.46 77.1608ZM133.7 79.7308H136.2V77.8108H133.7V79.7308ZM132.24 76.5408V77.0208C133.04 76.6808 133.83 76.1508 134.5 75.4608C134.13 75.0108 133.83 74.5408 133.58 74.0908C133.3 74.5308 132.99 74.9108 132.67 75.2408C132.56 75.1308 132.33 74.9208 132.15 74.8008V75.1008H131V76.5408H132.24ZM129.58 72.7008V74.4508H131.46V72.7008H129.58ZM135.95 73.3008H134.04L133.94 73.4908C134.19 73.9808 134.52 74.5008 134.93 74.9908C135.35 74.4808 135.7 73.9208 135.95 73.3008ZM136.41 72.6208L136.87 72.8308C136.55 73.8708 136.03 74.7508 135.41 75.4908C136.03 76.0908 136.79 76.6208 137.69 76.9608C137.54 77.1008 137.33 77.3908 137.23 77.5708C137.13 77.5208 137.02 77.4808 136.91 77.4308V80.7208H136.2V80.3908H133.7V80.7508H133.01V77.4208C132.81 77.5208 132.61 77.6108 132.41 77.7008C132.34 77.5508 132.19 77.3508 132.05 77.2008H131V78.9908C131.43 78.8908 131.87 78.7908 132.31 78.6808L132.38 79.3508C131.02 79.6808 129.6 80.0208 128.55 80.2808L128.41 79.5608L128.92 79.4508V76.0408H129.55V79.3208L130.32 79.1408V75.1008H128.92V72.0508H132.15V74.7008C132.94 73.9508 133.59 72.8308 133.96 71.6308L134.67 71.8008C134.57 72.0908 134.46 72.3808 134.35 72.6508H136.28L136.41 72.6208ZM84.75 87.0108H83.8C83.6 86.0008 82.79 85.4908 81.8 85.4908C80.1 85.4908 79.38 86.8908 79.38 88.3808C79.38 90.0108 80.1 91.3708 81.81 91.3708C83.06 91.3708 83.78 90.4908 83.87 89.3108H84.82C84.64 91.0908 83.53 92.1708 81.73 92.1708C79.51 92.1708 78.43 90.5308 78.43 88.4508C78.43 86.3808 79.61 84.6908 81.81 84.6908C83.3 84.6908 84.53 85.4908 84.75 87.0108ZM85.9068 92.0008V86.8308H86.7568V92.0008H85.9068ZM86.7568 84.8608V85.9008H85.9068V84.8608H86.7568ZM88.0436 92.0008V86.8308H88.8436V87.9208H88.8636C89.2736 87.0908 89.8436 86.6808 90.7636 86.7108V87.6108C89.3936 87.6108 88.8936 88.3908 88.8936 89.7008V92.0008H88.0436ZM95.6179 88.4908H94.7379C94.6079 87.8408 94.1579 87.4608 93.4579 87.4608C92.2279 87.4608 91.8479 88.4308 91.8479 89.4808C91.8479 90.4308 92.2779 91.3708 93.3579 91.3708C94.1779 91.3708 94.6679 90.8908 94.7779 90.1108H95.6479C95.4579 91.3708 94.6679 92.1208 93.3679 92.1208C91.7879 92.1208 90.9479 91.0208 90.9479 89.4808C90.9479 87.9308 91.7479 86.7108 93.3879 86.7108C94.5579 86.7108 95.4979 87.2608 95.6179 88.4908ZM100.879 86.8308V92.0008H100.079V91.1808H100.059C99.699 91.8208 99.119 92.1208 98.379 92.1208C97.019 92.1208 96.599 91.3408 96.599 90.2308V86.8308H97.449V90.3308C97.449 90.9608 97.849 91.3708 98.499 91.3708C99.529 91.3708 100.029 90.6808 100.029 89.7508V86.8308H100.879ZM102.206 92.0008V84.8608H103.056V92.0008H102.206ZM107.572 90.2008V89.3308C107.242 89.5708 106.602 89.5808 106.032 89.6808C105.472 89.7808 104.992 89.9808 104.992 90.6108C104.992 91.1708 105.472 91.3708 105.992 91.3708C107.112 91.3708 107.572 90.6708 107.572 90.2008ZM108.952 91.3208V91.9808C108.802 92.0708 108.612 92.1208 108.342 92.1208C107.902 92.1208 107.622 91.8808 107.622 91.3208C107.152 91.8708 106.522 92.1208 105.802 92.1208C104.862 92.1208 104.092 91.7008 104.092 90.6708C104.092 89.5008 104.962 89.2508 105.842 89.0808C106.782 88.9008 107.582 88.9608 107.582 88.3208C107.582 87.5808 106.972 87.4608 106.432 87.4608C105.712 87.4608 105.182 87.6808 105.142 88.4408H104.292C104.342 87.1608 105.332 86.7108 106.482 86.7108C107.412 86.7108 108.422 86.9208 108.422 88.1308V90.7908C108.422 91.1908 108.422 91.3708 108.692 91.3708C108.762 91.3708 108.842 91.3608 108.952 91.3208ZM109.714 92.0008V86.8308H110.514V87.9208H110.534C110.944 87.0908 111.514 86.6808 112.434 86.7108V87.6108C111.064 87.6108 110.564 88.3908 110.564 89.7008V92.0008H109.714ZM121.027 86.9508H120.127C120.017 85.9308 119.337 85.4908 118.357 85.4908C117.557 85.4908 116.757 85.7808 116.757 86.7108C116.757 87.5908 117.897 87.7208 119.047 87.9808C120.187 88.2408 121.327 88.6408 121.327 90.0408C121.327 91.5608 119.837 92.1708 118.537 92.1708C116.937 92.1708 115.587 91.3908 115.587 89.6508H116.487C116.487 90.8508 117.487 91.3708 118.567 91.3708C119.427 91.3708 120.377 91.1008 120.377 90.0708C120.377 89.0908 119.237 88.9208 118.097 88.6708C116.957 88.4208 115.807 88.0908 115.807 86.7808C115.807 85.3308 117.097 84.6908 118.397 84.6908C119.857 84.6908 120.967 85.3808 121.027 86.9508ZM126.621 86.8308V92.0008H125.821V91.1808H125.801C125.441 91.8208 124.861 92.1208 124.121 92.1208C122.761 92.1208 122.341 91.3408 122.341 90.2308V86.8308H123.191V90.3308C123.191 90.9608 123.591 91.3708 124.241 91.3708C125.271 91.3708 125.771 90.6808 125.771 89.7508V86.8308H126.621ZM131.928 89.3708C131.928 88.4008 131.428 87.4608 130.328 87.4608C129.188 87.4608 128.748 88.4408 128.748 89.4108C128.748 90.4308 129.208 91.3708 130.378 91.3708C131.538 91.3708 131.928 90.3808 131.928 89.3708ZM127.928 92.0008V84.8608H128.778V87.5308H128.798C129.078 86.9608 129.738 86.7108 130.448 86.7108C132.038 86.7108 132.828 87.9708 132.828 89.4308C132.828 90.8908 132.048 92.1208 130.468 92.1208C129.938 92.1208 129.178 91.9208 128.798 91.3108H128.778V92.0008H127.928ZM140.596 86.8308L138.946 92.0008H138.046L136.996 87.8908H136.976L135.936 92.0008H135.016L133.356 86.8308H134.296L135.466 91.0608H135.486L136.526 86.8308H137.456L138.536 91.0608H138.556L139.716 86.8308H140.596ZM144.604 90.2008V89.3308C144.274 89.5708 143.634 89.5808 143.064 89.6808C142.504 89.7808 142.024 89.9808 142.024 90.6108C142.024 91.1708 142.504 91.3708 143.024 91.3708C144.144 91.3708 144.604 90.6708 144.604 90.2008ZM145.984 91.3208V91.9808C145.834 92.0708 145.644 92.1208 145.374 92.1208C144.934 92.1208 144.654 91.8808 144.654 91.3208C144.184 91.8708 143.554 92.1208 142.834 92.1208C141.894 92.1208 141.124 91.7008 141.124 90.6708C141.124 89.5008 141.994 89.2508 142.874 89.0808C143.814 88.9008 144.614 88.9608 144.614 88.3208C144.614 87.5808 144.004 87.4608 143.464 87.4608C142.744 87.4608 142.214 87.6808 142.174 88.4408H141.324C141.374 87.1608 142.364 86.7108 143.514 86.7108C144.444 86.7108 145.454 86.9208 145.454 88.1308V90.7908C145.454 91.1908 145.454 91.3708 145.724 91.3708C145.794 91.3708 145.874 91.3608 145.984 91.3208ZM151.055 86.8308L148.805 92.6908C148.415 93.7008 148.065 94.0708 147.305 94.0708C147.105 94.0708 146.905 94.0508 146.715 93.9808V93.2008C146.875 93.2508 147.045 93.3208 147.215 93.3208C147.565 93.3208 147.755 93.1508 147.915 92.8508L148.265 91.9708L146.215 86.8308H147.175L148.685 91.0608H148.705L150.155 86.8308H151.055ZM154.698 92.0008V84.8608H155.648V91.2008H159.428V92.0008H154.698ZM160.165 92.0008V86.8308H161.015V92.0008H160.165ZM161.015 84.8608V85.9008H160.165V84.8608H161.015ZM162.331 92.0008V86.8308H163.131V87.6508H163.151C163.511 87.0108 164.091 86.7108 164.831 86.7108C166.191 86.7108 166.611 87.4908 166.611 88.6008V92.0008H165.761V88.5008C165.761 87.8708 165.361 87.4608 164.711 87.4608C163.681 87.4608 163.181 88.1508 163.181 89.0808V92.0008H162.331ZM171.458 90.3608H172.298C172.068 91.5008 171.248 92.1208 170.088 92.1208C168.438 92.1208 167.658 90.9808 167.608 89.4008C167.608 87.8508 168.628 86.7108 170.038 86.7108C171.868 86.7108 172.428 88.4208 172.378 89.6708H168.508C168.478 90.5708 168.988 91.3708 170.118 91.3708C170.818 91.3708 171.308 91.0308 171.458 90.3608ZM168.508 88.9208H171.478C171.438 88.1108 170.828 87.4608 169.988 87.4608C169.098 87.4608 168.568 88.1308 168.508 88.9208ZM58 103.001H1V46.0008H58V103.001ZM1.56436 102.436H57.4356V46.5651H1.56436V102.436ZM49.5347 74.6816C49.5347 85.2789 40.9438 93.8697 30.3465 93.8697C19.7492 93.8697 11.1584 85.2789 11.1584 74.6816C11.1584 64.0843 19.7492 55.4934 30.3465 55.4934C40.9438 55.4934 49.5347 64.0843 49.5347 74.6816Z" stroke="white" stroke-width="0.5"/>
</svg>
