<svg width="171" height="101" viewBox="0 0 171 101" fill="none" xmlns="http://www.w3.org/2000/svg">
<path d="M10.813 1.98991L9.96103 2.82991C9.62503 2.51791 8.95303 2.02591 8.47303 1.70191L9.30103 0.957906C9.79303 1.24591 10.465 1.68991 10.813 1.98991ZM2.86903 7.19791L4.75303 6.88591C4.70503 7.24591 4.69303 7.78591 4.71703 8.07391C1.78903 8.63791 1.30903 8.78191 0.997031 8.96191C0.925031 8.69791 0.709031 8.06191 0.553031 7.71391C0.865031 7.64191 1.14103 7.37791 1.51303 6.94591C1.70503 6.75391 2.05303 6.30991 2.46103 5.75791C1.39303 5.87791 1.10503 5.94991 0.913031 6.04591C0.841031 5.78191 0.613031 5.10991 0.457031 4.73791C0.709031 4.66591 0.913031 4.41391 1.17703 4.02991C1.44103 3.68191 2.25703 2.22991 2.68903 0.861906L4.02103 1.50991C3.56503 2.56591 2.90503 3.68191 2.24503 4.60591L3.25303 4.52191C3.50503 4.11391 3.74503 3.69391 3.94903 3.26191L5.10103 3.99391C4.46503 5.12191 3.68503 6.23791 2.86903 7.19791ZM4.66903 8.92591L4.88503 10.0899C3.51703 10.5699 2.05303 11.0979 0.889031 11.4819L0.601031 10.1379C1.60903 9.87391 3.16903 9.38191 4.66903 8.92591ZM10.321 6.78991L11.521 7.32991C10.957 8.21791 10.237 9.00991 9.40903 9.66991C9.67303 10.2819 9.96103 10.6539 10.261 10.6539C10.489 10.6539 10.597 10.3419 10.657 9.38191C10.933 9.71791 11.353 10.0299 11.653 10.1739C11.425 11.6499 11.053 12.0339 10.105 12.0339C9.32503 12.0339 8.73703 11.4459 8.25703 10.4859C7.36903 11.0499 6.39703 11.4939 5.36503 11.8659C5.19703 11.5059 4.83703 11.0259 4.50103 10.6899C5.66503 10.3419 6.79303 9.86191 7.77703 9.23791C7.59703 8.57791 7.42903 7.84591 7.29703 7.05391L5.16103 7.43791L4.93303 6.17791L7.12903 5.76991C7.08103 5.39791 7.04503 5.01391 7.00903 4.62991L5.41303 4.88191L5.17303 3.59791L6.92503 3.33391C6.87703 2.49391 6.85303 1.64191 6.85303 0.801906H8.26903C8.25703 1.58191 8.26903 2.36191 8.30503 3.11791L10.873 2.73391L11.113 3.96991L8.38903 4.40191C8.42503 4.78591 8.46103 5.15791 8.49703 5.51791L11.197 5.03791L11.425 6.27391L8.67703 6.78991C8.77303 7.34191 8.86903 7.86991 8.97703 8.33791C9.51703 7.88191 9.97303 7.35391 10.321 6.78991Z" fill="white"/>
<path d="M18.937 7.59391H21.913C21.361 7.26991 20.869 6.90991 20.413 6.50191C19.957 6.92191 19.465 7.26991 18.937 7.59391ZM19.261 10.3899H21.517V8.79391H19.261V10.3899ZM17.221 6.65791V7.02991C18.049 6.66991 18.841 6.15391 19.513 5.52991C19.225 5.18191 18.985 4.82191 18.769 4.47391C18.541 4.77391 18.301 5.04991 18.061 5.30191C17.857 5.08591 17.425 4.70191 17.101 4.48591V5.25391H15.901V6.65791H17.221ZM14.197 2.50591L14.209 4.02991H15.793V2.50591H14.197ZM21.229 3.18991H19.573L19.477 3.36991C19.717 3.77791 20.017 4.19791 20.353 4.60591C20.701 4.16191 20.989 3.69391 21.229 3.18991ZM22.081 1.92991L22.981 2.31391C22.609 3.57391 22.045 4.64191 21.313 5.54191C22.009 6.09391 22.837 6.57391 23.797 6.87391C23.509 7.14991 23.101 7.70191 22.909 8.07391L22.885 8.06191V11.9859H21.517V11.6139H19.261V12.0219H17.941V8.12191L17.665 8.24191C17.569 8.04991 17.401 7.78591 17.221 7.55791V7.90591H15.901V9.50191L17.317 9.17791L17.449 10.4379C15.769 10.8579 13.945 11.2779 12.589 11.5899L12.337 10.2219L12.877 10.1259V6.09391H14.041V9.88591L14.641 9.76591V5.25391H12.961V1.28191H17.101V4.25791C17.977 3.41791 18.697 2.14591 19.093 0.837906L20.449 1.17391C20.353 1.43791 20.257 1.71391 20.149 1.97791H21.829L22.081 1.92991Z" fill="white"/>
<path d="M32.137 10.3659H33.697V6.71791C33.457 6.99391 33.193 7.37791 33.061 7.62991C32.017 7.41391 30.997 7.05391 30.073 6.57391C29.761 6.74191 29.437 6.88591 29.113 7.02991C30.061 7.23391 31.189 7.58191 31.861 7.88191L31.285 8.75791C30.577 8.43391 29.305 8.00191 28.297 7.78591L28.741 7.17391C28.093 7.42591 27.421 7.62991 26.773 7.78591C26.677 7.50991 26.461 7.10191 26.257 6.81391V10.3659H31.933C30.733 9.93391 28.789 9.50191 27.205 9.32191L27.853 8.39791C29.473 8.56591 31.501 8.99791 32.725 9.41791L32.137 10.3659ZM28.849 2.57791H26.257V6.59791C27.121 6.42991 28.021 6.17791 28.837 5.85391C28.525 5.62591 28.237 5.39791 27.985 5.15791C27.745 5.36191 27.493 5.54191 27.253 5.69791C27.037 5.46991 26.581 5.04991 26.317 4.85791C27.289 4.30591 28.261 3.46591 28.849 2.57791ZM31.201 4.54591H28.897C29.209 4.82191 29.581 5.08591 30.013 5.30191C30.469 5.08591 30.853 4.82191 31.201 4.54591ZM33.697 6.53791V2.57791H29.029L30.049 2.93791C29.929 3.11791 29.797 3.30991 29.653 3.48991H32.269L32.473 3.44191L33.277 3.92191C32.797 4.66591 32.089 5.31391 31.273 5.87791C32.029 6.16591 32.869 6.38191 33.697 6.53791ZM24.889 1.29391H35.137V12.0579H33.697V11.6259H26.257V12.0579H24.889V1.29391Z" fill="white"/>
<path d="M42.337 3.76591H43.861C43.993 3.41791 44.137 3.02191 44.245 2.64991H42.181V1.58191H47.413V2.64991H45.397C45.241 3.04591 45.097 3.41791 44.965 3.76591H47.053V9.33391H45.937V4.77391H43.405V9.38191H42.337V3.76591ZM40.981 8.99791L42.205 9.54991C41.329 10.5219 39.949 11.2659 38.569 11.7219C38.401 11.4579 38.113 11.0979 37.825 10.8459C37.717 11.2779 37.597 11.6859 37.417 12.0459C37.177 11.8419 36.601 11.5179 36.301 11.3979C36.925 10.0779 36.985 8.24191 36.985 6.93391V4.58191H38.017C37.909 4.23391 37.717 3.77791 37.549 3.42991L38.473 3.14191H36.769V1.98991H38.941C38.881 1.70191 38.761 1.38991 38.629 1.12591L39.805 0.801906C39.997 1.16191 40.177 1.62991 40.273 1.98991H41.989V3.14191H38.653C38.893 3.53791 39.097 4.02991 39.193 4.37791L38.569 4.58191H39.829C40.057 4.14991 40.321 3.58591 40.465 3.16591L41.605 3.42991C41.413 3.83791 41.209 4.23391 41.029 4.58191H42.013V5.73391H38.221V6.86191C39.097 6.59791 40.129 6.18991 40.657 5.73391L41.809 6.23791C41.053 6.93391 39.901 7.48591 38.857 7.79791C38.713 7.59391 38.461 7.31791 38.221 7.08991C38.221 7.58191 38.197 8.13391 38.161 8.70991C39.157 8.39791 40.273 7.88191 40.849 7.30591L41.965 7.76191C41.149 8.67391 39.877 9.34591 38.641 9.78991C38.521 9.58591 38.329 9.33391 38.125 9.10591C38.065 9.63391 37.981 10.1619 37.861 10.6779C39.049 10.3299 40.333 9.71791 40.981 8.99791ZM44.161 5.18191H45.229C45.217 9.65791 45.025 11.2179 41.677 12.0819C41.593 11.7939 41.305 11.3379 41.077 11.1099C44.101 10.4259 44.149 9.28591 44.161 5.18191ZM44.857 10.3419L45.577 9.58591C46.321 10.0419 47.221 10.7379 47.653 11.2539L46.861 12.1179C46.477 11.5899 45.589 10.8339 44.857 10.3419Z" fill="white"/>
<path d="M54.781 3.03391H52.093C51.769 3.42991 51.445 3.80191 51.085 4.16191H53.773C54.121 3.83791 54.469 3.44191 54.781 3.03391ZM57.001 6.90991V5.48191H54.817V6.90991H57.001ZM51.193 5.48191V6.90991H53.425V5.48191H51.193ZM52.705 10.5339H56.761C57.913 10.5339 58.093 10.2699 58.249 8.78191C58.609 8.98591 59.197 9.21391 59.593 9.28591C59.341 11.2539 58.849 11.8299 56.833 11.8299H52.729C50.497 11.8299 49.813 11.3979 49.813 9.68191V5.31391C49.573 5.50591 49.333 5.67391 49.105 5.84191C48.973 5.50591 48.589 4.79791 48.337 4.47391C49.753 3.62191 51.205 2.24191 52.009 0.753906L53.305 1.24591C53.209 1.41391 53.101 1.59391 53.005 1.76191H55.765L56.041 1.68991L56.953 2.37391C56.545 2.94991 56.029 3.59791 55.477 4.16191H58.405V8.67391H57.001V8.26591H51.193V9.68191C51.193 10.4139 51.397 10.5339 52.705 10.5339Z" fill="white"/>
<path d="M6.69703 19.1579C6.63303 18.9099 6.54503 18.6819 6.43303 18.4739C6.32103 18.2659 6.17703 18.0859 6.00103 17.9339C5.82503 17.7819 5.61703 17.6659 5.37703 17.5859C5.14503 17.4979 4.87303 17.4539 4.56103 17.4539C4.10503 17.4539 3.70903 17.5459 3.37303 17.7299C3.04503 17.9139 2.77703 18.1619 2.56903 18.4739C2.36103 18.7779 2.20503 19.1259 2.10103 19.5179C2.00503 19.9099 1.95703 20.3099 1.95703 20.7179C1.95703 21.1259 2.00503 21.5259 2.10103 21.9179C2.20503 22.3099 2.36103 22.6619 2.56903 22.9739C2.77703 23.2779 3.04503 23.5219 3.37303 23.7059C3.70903 23.8899 4.10503 23.9819 4.56103 23.9819C4.89703 23.9819 5.19303 23.9259 5.44903 23.8139C5.70503 23.6939 5.92503 23.5339 6.10903 23.3339C6.29303 23.1259 6.43703 22.8859 6.54103 22.6139C6.64503 22.3419 6.71303 22.0499 6.74503 21.7379H8.20903C8.17703 22.2499 8.06503 22.7179 7.87303 23.1419C7.68903 23.5659 7.43703 23.9339 7.11703 24.2459C6.79703 24.5499 6.42103 24.7859 5.98903 24.9539C5.55703 25.1219 5.08103 25.2059 4.56103 25.2059C3.92103 25.2059 3.34503 25.0899 2.83303 24.8579C2.32903 24.6179 1.90103 24.2939 1.54903 23.8859C1.19703 23.4779 0.925031 23.0019 0.733031 22.4579C0.549031 21.9139 0.457031 21.3339 0.457031 20.7179C0.457031 20.1099 0.549031 19.5339 0.733031 18.9899C0.925031 18.4459 1.19703 17.9699 1.54903 17.5619C1.90103 17.1539 2.32903 16.8299 2.83303 16.5899C3.34503 16.3499 3.92103 16.2299 4.56103 16.2299C5.04103 16.2299 5.49303 16.2979 5.91703 16.4339C6.34103 16.5619 6.71303 16.7539 7.03303 17.0099C7.36103 17.2579 7.62503 17.5619 7.82503 17.9219C8.02503 18.2819 8.14903 18.6939 8.19703 19.1579H6.69703Z" fill="white"/>
<path d="M9.41719 16.4339H10.7852V17.7299H9.41719V16.4339ZM9.41719 18.7979H10.7852V25.0019H9.41719V18.7979Z" fill="white"/>
<path d="M12.2757 18.7979H13.5597V19.9979H13.5837C13.6237 19.8299 13.6997 19.6659 13.8117 19.5059C13.9317 19.3459 14.0717 19.2019 14.2317 19.0739C14.3997 18.9379 14.5837 18.8299 14.7837 18.7499C14.9837 18.6699 15.1877 18.6299 15.3957 18.6299C15.5557 18.6299 15.6637 18.6339 15.7197 18.6419C15.7837 18.6499 15.8477 18.6579 15.9117 18.6659V19.9859C15.8157 19.9699 15.7157 19.9579 15.6117 19.9499C15.5157 19.9339 15.4197 19.9259 15.3237 19.9259C15.0917 19.9259 14.8717 19.9739 14.6637 20.0699C14.4637 20.1579 14.2877 20.2939 14.1357 20.4779C13.9837 20.6539 13.8637 20.8739 13.7757 21.1379C13.6877 21.4019 13.6437 21.7059 13.6437 22.0499V25.0019H12.2757V18.7979Z" fill="white"/>
<path d="M20.4715 20.8739C20.4155 20.4899 20.2595 20.2019 20.0035 20.0099C19.7555 19.8099 19.4395 19.7099 19.0555 19.7099C18.8795 19.7099 18.6915 19.7419 18.4915 19.8059C18.2915 19.8619 18.1075 19.9739 17.9395 20.1419C17.7715 20.3019 17.6315 20.5299 17.5195 20.8259C17.4075 21.1139 17.3515 21.4939 17.3515 21.9659C17.3515 22.2219 17.3795 22.4779 17.4355 22.7339C17.4995 22.9899 17.5955 23.2179 17.7235 23.4179C17.8595 23.6179 18.0315 23.7819 18.2395 23.9099C18.4475 24.0299 18.6995 24.0899 18.9955 24.0899C19.3955 24.0899 19.7235 23.9659 19.9795 23.7179C20.2435 23.4699 20.4075 23.1219 20.4715 22.6739H21.8395C21.7115 23.4819 21.4035 24.1019 20.9155 24.5339C20.4355 24.9579 19.7955 25.1699 18.9955 25.1699C18.5075 25.1699 18.0755 25.0899 17.6995 24.9299C17.3315 24.7619 17.0195 24.5379 16.7635 24.2579C16.5075 23.9699 16.3115 23.6299 16.1755 23.2379C16.0475 22.8459 15.9835 22.4219 15.9835 21.9659C15.9835 21.5019 16.0475 21.0659 16.1755 20.6579C16.3035 20.2499 16.4955 19.8979 16.7515 19.6019C17.0075 19.2979 17.3235 19.0619 17.6995 18.8939C18.0835 18.7179 18.5315 18.6299 19.0435 18.6299C19.4035 18.6299 19.7435 18.6779 20.0635 18.7739C20.3915 18.8619 20.6795 18.9979 20.9275 19.1819C21.1835 19.3659 21.3915 19.5979 21.5515 19.8779C21.7115 20.1579 21.8075 20.4899 21.8395 20.8739H20.4715Z" fill="white"/>
<path d="M28.3995 25.0019H27.0555V24.1379H27.0315C26.8635 24.4499 26.6115 24.7019 26.2755 24.8939C25.9475 25.0779 25.6115 25.1699 25.2675 25.1699C24.4515 25.1699 23.8595 24.9699 23.4915 24.5699C23.1315 24.1619 22.9515 23.5499 22.9515 22.7339V18.7979H24.3195V22.6019C24.3195 23.1459 24.4235 23.5299 24.6315 23.7539C24.8395 23.9779 25.1315 24.0899 25.5075 24.0899C25.7955 24.0899 26.0355 24.0459 26.2275 23.9579C26.4195 23.8699 26.5755 23.7539 26.6955 23.6099C26.8155 23.4579 26.8995 23.2779 26.9475 23.0699C27.0035 22.8619 27.0315 22.6379 27.0315 22.3979V18.7979H28.3995V25.0019Z" fill="white"/>
<path d="M29.8781 16.4339H31.2461V17.7299H29.8781V16.4339ZM29.8781 18.7979H31.2461V25.0019H29.8781V18.7979Z" fill="white"/>
<path d="M32.1127 18.7979H33.1447V16.9379H34.5127V18.7979H35.7487V19.8179H34.5127V23.1299C34.5127 23.2739 34.5167 23.3979 34.5247 23.5019C34.5407 23.6059 34.5687 23.6939 34.6087 23.7659C34.6567 23.8379 34.7247 23.8939 34.8127 23.9339C34.9007 23.9659 35.0207 23.9819 35.1727 23.9819C35.2687 23.9819 35.3647 23.9819 35.4607 23.9819C35.5567 23.9739 35.6527 23.9579 35.7487 23.9339V24.9899C35.5967 25.0059 35.4487 25.0219 35.3047 25.0379C35.1607 25.0539 35.0127 25.0619 34.8607 25.0619C34.5007 25.0619 34.2087 25.0299 33.9847 24.9659C33.7687 24.8939 33.5967 24.7939 33.4687 24.6659C33.3487 24.5299 33.2647 24.3619 33.2167 24.1619C33.1767 23.9619 33.1527 23.7339 33.1447 23.4779V19.8179H32.1127V18.7979Z" fill="white"/>
<path d="M40.2406 16.4339H42.3526L44.7166 23.1419H44.7406L47.0446 16.4339H49.1326V25.0019H47.7046V18.3899H47.6806L45.3046 25.0019H44.0686L41.6926 18.3899H41.6686V25.0019H40.2406V16.4339Z" fill="white"/>
<path d="M55.9327 23.6219C55.9327 23.7899 55.9527 23.9099 55.9927 23.9819C56.0407 24.0539 56.1287 24.0899 56.2567 24.0899C56.2967 24.0899 56.3447 24.0899 56.4007 24.0899C56.4567 24.0899 56.5207 24.0819 56.5927 24.0659V25.0139C56.5447 25.0299 56.4807 25.0459 56.4007 25.0619C56.3287 25.0859 56.2527 25.1059 56.1727 25.1219C56.0927 25.1379 56.0127 25.1499 55.9327 25.1579C55.8527 25.1659 55.7847 25.1699 55.7287 25.1699C55.4487 25.1699 55.2167 25.1139 55.0327 25.0019C54.8487 24.8899 54.7287 24.6939 54.6727 24.4139C54.4007 24.6779 54.0647 24.8699 53.6647 24.9899C53.2727 25.1099 52.8927 25.1699 52.5247 25.1699C52.2447 25.1699 51.9767 25.1299 51.7207 25.0499C51.4647 24.9779 51.2367 24.8699 51.0367 24.7259C50.8447 24.5739 50.6887 24.3859 50.5687 24.1619C50.4567 23.9299 50.4007 23.6619 50.4007 23.3579C50.4007 22.9739 50.4687 22.6619 50.6047 22.4219C50.7487 22.1819 50.9327 21.9939 51.1567 21.8579C51.3887 21.7219 51.6447 21.6259 51.9247 21.5699C52.2127 21.5059 52.5007 21.4579 52.7887 21.4259C53.0367 21.3779 53.2727 21.3459 53.4967 21.3299C53.7207 21.3059 53.9167 21.2699 54.0847 21.2219C54.2607 21.1739 54.3967 21.1019 54.4927 21.0059C54.5967 20.9019 54.6487 20.7499 54.6487 20.5499C54.6487 20.3739 54.6047 20.2299 54.5167 20.1179C54.4367 20.0059 54.3327 19.9219 54.2047 19.8659C54.0847 19.8019 53.9487 19.7619 53.7967 19.7459C53.6447 19.7219 53.5007 19.7099 53.3647 19.7099C52.9807 19.7099 52.6647 19.7899 52.4167 19.9499C52.1687 20.1099 52.0287 20.3579 51.9967 20.6939H50.6287C50.6527 20.2939 50.7487 19.9619 50.9167 19.6979C51.0847 19.4339 51.2967 19.2219 51.5527 19.0619C51.8167 18.9019 52.1127 18.7899 52.4407 18.7259C52.7687 18.6619 53.1047 18.6299 53.4487 18.6299C53.7527 18.6299 54.0527 18.6619 54.3487 18.7259C54.6447 18.7899 54.9087 18.8939 55.1407 19.0379C55.3807 19.1819 55.5727 19.3699 55.7167 19.6019C55.8607 19.8259 55.9327 20.1019 55.9327 20.4299V23.6219ZM54.5647 21.8939C54.3567 22.0299 54.1007 22.1139 53.7967 22.1459C53.4927 22.1699 53.1887 22.2099 52.8847 22.2659C52.7407 22.2899 52.6007 22.3259 52.4647 22.3739C52.3287 22.4139 52.2087 22.4739 52.1047 22.5539C52.0007 22.6259 51.9167 22.7259 51.8527 22.8539C51.7967 22.9739 51.7687 23.1219 51.7687 23.2979C51.7687 23.4499 51.8127 23.5779 51.9007 23.6819C51.9887 23.7859 52.0927 23.8699 52.2127 23.9339C52.3407 23.9899 52.4767 24.0299 52.6207 24.0539C52.7727 24.0779 52.9087 24.0899 53.0287 24.0899C53.1807 24.0899 53.3447 24.0699 53.5207 24.0299C53.6967 23.9899 53.8607 23.9219 54.0127 23.8259C54.1727 23.7299 54.3047 23.6099 54.4087 23.4659C54.5127 23.3139 54.5647 23.1299 54.5647 22.9139V21.8939Z" fill="white"/>
<path d="M57.4406 18.7979H58.7366V19.6379H58.7606C58.9526 19.2779 59.2206 19.0219 59.5646 18.8699C59.9086 18.7099 60.2806 18.6299 60.6806 18.6299C61.1686 18.6299 61.5926 18.7179 61.9526 18.8939C62.3206 19.0619 62.6246 19.2979 62.8646 19.6019C63.1046 19.8979 63.2846 20.2459 63.4046 20.6459C63.5246 21.0459 63.5846 21.4739 63.5846 21.9299C63.5846 22.3459 63.5286 22.7499 63.4166 23.1419C63.3126 23.5339 63.1486 23.8819 62.9246 24.1859C62.7086 24.4819 62.4326 24.7219 62.0966 24.9059C61.7606 25.0819 61.3646 25.1699 60.9086 25.1699C60.7086 25.1699 60.5086 25.1499 60.3086 25.1099C60.1086 25.0779 59.9166 25.0219 59.7326 24.9419C59.5486 24.8619 59.3766 24.7619 59.2166 24.6419C59.0646 24.5139 58.9366 24.3659 58.8326 24.1979H58.8086V27.2939H57.4406V18.7979ZM62.2166 21.9059C62.2166 21.6259 62.1806 21.3539 62.1086 21.0899C62.0366 20.8259 61.9286 20.5939 61.7846 20.3939C61.6406 20.1859 61.4606 20.0219 61.2446 19.9019C61.0286 19.7739 60.7806 19.7099 60.5006 19.7099C59.9246 19.7099 59.4886 19.9099 59.1926 20.3099C58.9046 20.7099 58.7606 21.2419 58.7606 21.9059C58.7606 22.2179 58.7966 22.5099 58.8686 22.7819C58.9486 23.0459 59.0646 23.2739 59.2166 23.4659C59.3686 23.6579 59.5486 23.8099 59.7566 23.9219C59.9726 24.0339 60.2206 24.0899 60.5006 24.0899C60.8126 24.0899 61.0766 24.0259 61.2926 23.8979C61.5086 23.7699 61.6846 23.6059 61.8206 23.4059C61.9646 23.1979 62.0646 22.9659 62.1206 22.7099C62.1846 22.4459 62.2166 22.1779 62.2166 21.9059Z" fill="white"/>
<path d="M74.0564 19.1579C73.9924 18.9099 73.9044 18.6819 73.7924 18.4739C73.6804 18.2659 73.5364 18.0859 73.3604 17.9339C73.1844 17.7819 72.9764 17.6659 72.7364 17.5859C72.5044 17.4979 72.2324 17.4539 71.9204 17.4539C71.4644 17.4539 71.0684 17.5459 70.7324 17.7299C70.4044 17.9139 70.1364 18.1619 69.9284 18.4739C69.7204 18.7779 69.5644 19.1259 69.4604 19.5179C69.3644 19.9099 69.3164 20.3099 69.3164 20.7179C69.3164 21.1259 69.3644 21.5259 69.4604 21.9179C69.5644 22.3099 69.7204 22.6619 69.9284 22.9739C70.1364 23.2779 70.4044 23.5219 70.7324 23.7059C71.0684 23.8899 71.4644 23.9819 71.9204 23.9819C72.2564 23.9819 72.5524 23.9259 72.8084 23.8139C73.0644 23.6939 73.2844 23.5339 73.4684 23.3339C73.6524 23.1259 73.7964 22.8859 73.9004 22.6139C74.0044 22.3419 74.0724 22.0499 74.1044 21.7379H75.5684C75.5364 22.2499 75.4244 22.7179 75.2324 23.1419C75.0484 23.5659 74.7964 23.9339 74.4764 24.2459C74.1564 24.5499 73.7804 24.7859 73.3484 24.9539C72.9164 25.1219 72.4404 25.2059 71.9204 25.2059C71.2804 25.2059 70.7044 25.0899 70.1924 24.8579C69.6884 24.6179 69.2604 24.2939 68.9084 23.8859C68.5564 23.4779 68.2844 23.0019 68.0924 22.4579C67.9084 21.9139 67.8164 21.3339 67.8164 20.7179C67.8164 20.1099 67.9084 19.5339 68.0924 18.9899C68.2844 18.4459 68.5564 17.9699 68.9084 17.5619C69.2604 17.1539 69.6884 16.8299 70.1924 16.5899C70.7044 16.3499 71.2804 16.2299 71.9204 16.2299C72.4004 16.2299 72.8524 16.2979 73.2764 16.4339C73.7004 16.5619 74.0724 16.7539 74.3924 17.0099C74.7204 17.2579 74.9844 17.5619 75.1844 17.9219C75.3844 18.2819 75.5084 18.6939 75.5564 19.1579H74.0564Z" fill="white"/>
<path d="M79.5846 25.1699C79.0886 25.1699 78.6446 25.0899 78.2526 24.9299C77.8686 24.7619 77.5406 24.5339 77.2686 24.2459C77.0046 23.9579 76.8006 23.6139 76.6566 23.2139C76.5206 22.8139 76.4526 22.3739 76.4526 21.8939C76.4526 21.4219 76.5206 20.9859 76.6566 20.5859C76.8006 20.1859 77.0046 19.8419 77.2686 19.5539C77.5406 19.2659 77.8686 19.0419 78.2526 18.8819C78.6446 18.7139 79.0886 18.6299 79.5846 18.6299C80.0806 18.6299 80.5206 18.7139 80.9046 18.8819C81.2966 19.0419 81.6246 19.2659 81.8886 19.5539C82.1606 19.8419 82.3646 20.1859 82.5006 20.5859C82.6446 20.9859 82.7166 21.4219 82.7166 21.8939C82.7166 22.3739 82.6446 22.8139 82.5006 23.2139C82.3646 23.6139 82.1606 23.9579 81.8886 24.2459C81.6246 24.5339 81.2966 24.7619 80.9046 24.9299C80.5206 25.0899 80.0806 25.1699 79.5846 25.1699ZM79.5846 24.0899C79.8886 24.0899 80.1526 24.0259 80.3766 23.8979C80.6006 23.7699 80.7846 23.6019 80.9286 23.3939C81.0726 23.1859 81.1766 22.9539 81.2406 22.6979C81.3126 22.4339 81.3486 22.1659 81.3486 21.8939C81.3486 21.6299 81.3126 21.3659 81.2406 21.1019C81.1766 20.8379 81.0726 20.6059 80.9286 20.4059C80.7846 20.1979 80.6006 20.0299 80.3766 19.9019C80.1526 19.7739 79.8886 19.7099 79.5846 19.7099C79.2806 19.7099 79.0166 19.7739 78.7926 19.9019C78.5686 20.0299 78.3846 20.1979 78.2406 20.4059C78.0966 20.6059 77.9886 20.8379 77.9166 21.1019C77.8526 21.3659 77.8206 21.6299 77.8206 21.8939C77.8206 22.1659 77.8526 22.4339 77.9166 22.6979C77.9886 22.9539 78.0966 23.1859 78.2406 23.3939C78.3846 23.6019 78.5686 23.7699 78.7926 23.8979C79.0166 24.0259 79.2806 24.0899 79.5846 24.0899Z" fill="white"/>
<path d="M83.8898 16.4339H85.2578V25.0019H83.8898V16.4339Z" fill="white"/>
<path d="M89.5924 25.1699C89.0964 25.1699 88.6524 25.0899 88.2604 24.9299C87.8764 24.7619 87.5484 24.5339 87.2764 24.2459C87.0124 23.9579 86.8084 23.6139 86.6644 23.2139C86.5284 22.8139 86.4604 22.3739 86.4604 21.8939C86.4604 21.4219 86.5284 20.9859 86.6644 20.5859C86.8084 20.1859 87.0124 19.8419 87.2764 19.5539C87.5484 19.2659 87.8764 19.0419 88.2604 18.8819C88.6524 18.7139 89.0964 18.6299 89.5924 18.6299C90.0884 18.6299 90.5284 18.7139 90.9124 18.8819C91.3044 19.0419 91.6324 19.2659 91.8964 19.5539C92.1684 19.8419 92.3724 20.1859 92.5084 20.5859C92.6524 20.9859 92.7244 21.4219 92.7244 21.8939C92.7244 22.3739 92.6524 22.8139 92.5084 23.2139C92.3724 23.6139 92.1684 23.9579 91.8964 24.2459C91.6324 24.5339 91.3044 24.7619 90.9124 24.9299C90.5284 25.0899 90.0884 25.1699 89.5924 25.1699ZM89.5924 24.0899C89.8964 24.0899 90.1604 24.0259 90.3844 23.8979C90.6084 23.7699 90.7924 23.6019 90.9364 23.3939C91.0804 23.1859 91.1844 22.9539 91.2484 22.6979C91.3204 22.4339 91.3564 22.1659 91.3564 21.8939C91.3564 21.6299 91.3204 21.3659 91.2484 21.1019C91.1844 20.8379 91.0804 20.6059 90.9364 20.4059C90.7924 20.1979 90.6084 20.0299 90.3844 19.9019C90.1604 19.7739 89.8964 19.7099 89.5924 19.7099C89.2884 19.7099 89.0244 19.7739 88.8004 19.9019C88.5764 20.0299 88.3924 20.1979 88.2484 20.4059C88.1044 20.6059 87.9964 20.8379 87.9244 21.1019C87.8604 21.3659 87.8284 21.6299 87.8284 21.8939C87.8284 22.1659 87.8604 22.4339 87.9244 22.6979C87.9964 22.9539 88.1044 23.1859 88.2484 23.3939C88.3924 23.6019 88.5764 23.7699 88.8004 23.8979C89.0244 24.0259 89.2884 24.0899 89.5924 24.0899Z" fill="white"/>
<path d="M93.8617 18.7979H95.1457V19.9979H95.1697C95.2097 19.8299 95.2857 19.6659 95.3977 19.5059C95.5177 19.3459 95.6577 19.2019 95.8177 19.0739C95.9857 18.9379 96.1697 18.8299 96.3697 18.7499C96.5697 18.6699 96.7737 18.6299 96.9817 18.6299C97.1417 18.6299 97.2497 18.6339 97.3057 18.6419C97.3697 18.6499 97.4337 18.6579 97.4977 18.6659V19.9859C97.4017 19.9699 97.3017 19.9579 97.1977 19.9499C97.1017 19.9339 97.0057 19.9259 96.9097 19.9259C96.6777 19.9259 96.4577 19.9739 96.2497 20.0699C96.0497 20.1579 95.8737 20.2939 95.7217 20.4779C95.5697 20.6539 95.4497 20.8739 95.3617 21.1379C95.2737 21.4019 95.2297 21.7059 95.2297 22.0499V25.0019H93.8617V18.7979Z" fill="white"/>
<path d="M75.891 44.6719L75.461 45.1319C75.151 44.8619 74.521 44.4719 74.031 44.2319L74.451 43.8219C74.941 44.0319 75.581 44.4119 75.891 44.6719ZM68.871 49.1819L70.851 48.8219C70.831 49.0119 70.831 49.3019 70.851 49.4419C68.361 49.9519 68.031 50.0419 67.821 50.1619C67.781 50.0119 67.681 49.6819 67.591 49.4819C67.801 49.4419 68.031 49.2019 68.331 48.8319C68.521 48.6319 68.911 48.1319 69.341 47.4819C68.141 47.6419 67.901 47.7019 67.751 47.7819C67.721 47.6219 67.601 47.2719 67.521 47.0719C67.701 47.0319 67.871 46.8019 68.091 46.4619C68.301 46.1319 69.021 44.8619 69.421 43.6719L70.121 43.9919C69.681 45.0219 69.111 46.1019 68.521 46.9519L69.771 46.8319C70.001 46.4619 70.211 46.0919 70.401 45.7219L71.021 46.1019C70.381 47.2019 69.641 48.2919 68.871 49.1819ZM70.891 50.5519L71.001 51.1819L67.731 52.1519L67.581 51.4319C68.401 51.2419 69.661 50.8819 70.891 50.5519ZM75.841 48.5119L76.461 48.8019C75.961 49.5819 75.291 50.2919 74.501 50.8819C74.811 51.6119 75.191 52.0219 75.621 52.0219C75.891 52.0219 76.001 51.7819 76.041 50.9019C76.201 51.0719 76.421 51.2319 76.591 51.2919C76.461 52.4119 76.231 52.7419 75.551 52.7419C74.841 52.7419 74.311 52.2119 73.901 51.3119C73.111 51.8319 72.221 52.2719 71.291 52.5919C71.191 52.4019 71.001 52.1519 70.831 51.9819C71.851 51.6719 72.811 51.2219 73.651 50.6619C73.441 50.0319 73.291 49.2919 73.161 48.4619L71.261 48.8319L71.131 48.1619L73.071 47.8019C73.021 47.3719 72.981 46.9219 72.951 46.4619L71.471 46.6919L71.341 46.0219L72.911 45.7919C72.871 45.0919 72.851 44.3719 72.841 43.6219H73.571C73.571 44.3419 73.581 45.0219 73.611 45.6819L76.001 45.3319L76.121 45.9819L73.651 46.3619C73.691 46.8219 73.731 47.2519 73.781 47.6719L76.271 47.2019L76.401 47.8519L73.861 48.3319C73.971 49.0419 74.111 49.6819 74.271 50.2219C74.901 49.7119 75.441 49.1419 75.841 48.5119Z" fill="white"/>
<path d="M82.461 49.1619H85.441C84.881 48.8319 84.391 48.4119 83.961 47.9819C83.501 48.4419 82.991 48.8419 82.461 49.1619ZM82.701 51.7319H85.201V49.8119H82.701V51.7319ZM81.241 48.5419V49.0219C82.041 48.6819 82.831 48.1519 83.501 47.4619C83.131 47.0119 82.831 46.5419 82.581 46.0919C82.301 46.5319 81.991 46.9119 81.671 47.2419C81.561 47.1319 81.331 46.9219 81.151 46.8019V47.1019H80.001V48.5419H81.241ZM78.581 44.7019V46.4519H80.461V44.7019H78.581ZM84.951 45.3019H83.041L82.941 45.4919C83.191 45.9819 83.521 46.5019 83.931 46.9919C84.351 46.4819 84.701 45.9219 84.951 45.3019ZM85.411 44.6219L85.871 44.8319C85.551 45.8719 85.031 46.7519 84.411 47.4919C85.031 48.0919 85.791 48.6219 86.691 48.9619C86.541 49.1019 86.331 49.3919 86.231 49.5719C86.131 49.5219 86.021 49.4819 85.911 49.4319V52.7219H85.201V52.3919H82.701V52.7519H82.011V49.4219C81.811 49.5219 81.611 49.6119 81.411 49.7019C81.341 49.5519 81.191 49.3519 81.051 49.2019H80.001V50.9919C80.431 50.8919 80.871 50.7919 81.311 50.6819L81.381 51.3519C80.021 51.6819 78.601 52.0219 77.551 52.2819L77.411 51.5619L77.921 51.4519V48.0419H78.551V51.3219L79.321 51.1419V47.1019H77.921V44.0519H81.151V46.7019C81.941 45.9519 82.591 44.8319 82.961 43.6319L83.671 43.8019C83.571 44.0919 83.461 44.3819 83.351 44.6519H85.281L85.411 44.6219Z" fill="white"/>
<path d="M92.351 45.9419H93.631C93.761 45.6219 93.921 45.1919 94.021 44.8419H92.131V44.2519H96.441V44.8419H94.651C94.511 45.2219 94.361 45.6219 94.231 45.9419H96.111V50.5919H95.501V46.5019H92.961V50.6119H92.351V45.9419ZM91.961 44.6219V45.2519H87.701V44.6219H89.651C89.571 44.3519 89.441 44.0419 89.311 43.8019L89.921 43.6219C90.101 43.9219 90.271 44.3319 90.351 44.6219H91.961ZM91.151 48.7419L91.761 48.9919C91.081 49.7419 89.971 50.4019 88.951 50.8019C88.841 50.6319 88.681 50.4219 88.511 50.2919C88.441 51.1619 88.271 52.0719 87.941 52.7819C87.821 52.6619 87.521 52.4819 87.361 52.4119C87.871 51.3319 87.921 49.8419 87.921 48.7819V46.6719H88.891C88.811 46.3519 88.601 45.8619 88.381 45.4919L88.961 45.3119C89.191 45.6619 89.411 46.1519 89.501 46.4719L88.951 46.6719H90.281C90.501 46.2919 90.771 45.7219 90.911 45.3319L91.541 45.4919C91.341 45.8919 91.131 46.3219 90.921 46.6719H91.931V47.2919H88.581V48.7919C88.581 49.2319 88.571 49.7419 88.521 50.2719C89.471 49.9419 90.571 49.3719 91.151 48.7419ZM91.011 47.4219L91.621 47.6719C90.981 48.2819 89.961 48.8019 89.071 49.1019C88.961 48.9519 88.781 48.7419 88.611 48.6119C89.451 48.3619 90.461 47.9119 91.011 47.4219ZM91.321 50.1419L91.971 50.4119C91.281 51.3519 90.071 52.0919 88.801 52.5219C88.701 52.3519 88.501 52.1319 88.341 51.9819C89.541 51.6319 90.731 50.9419 91.321 50.1419ZM93.971 46.9519H94.551C94.531 50.7219 94.331 52.0619 91.671 52.7919C91.621 52.6419 91.451 52.4019 91.321 52.2819C93.831 51.6419 93.941 50.5119 93.971 46.9519ZM94.381 51.2019L94.791 50.8019C95.431 51.2319 96.211 51.8619 96.581 52.3219L96.151 52.7819C95.781 52.3219 95.031 51.6519 94.381 51.2019Z" fill="white"/>
<path d="M102.981 45.1719H100.371C100.051 45.6019 99.671 46.0119 99.291 46.3919H101.931C102.301 46.0519 102.691 45.5919 102.981 45.1719ZM104.851 48.8219V47.0819H102.461V48.8219H104.851ZM99.441 47.0819V48.8219H101.741V47.0819H99.441ZM100.731 51.9219H104.621C105.611 51.9219 105.761 51.6419 105.881 50.3319C106.071 50.4519 106.371 50.5619 106.591 50.6019C106.421 52.1519 106.121 52.6019 104.621 52.6019H100.781C99.211 52.6019 98.721 52.3219 98.721 51.1719V46.9119C98.431 47.1719 98.131 47.3919 97.831 47.6019C97.771 47.4319 97.551 47.0719 97.431 46.9019C98.641 46.1619 99.861 44.9419 100.551 43.6019L101.211 43.8519C101.091 44.0719 100.971 44.2819 100.841 44.5019H103.471L103.621 44.4619L104.111 44.8119C103.761 45.3419 103.301 45.9119 102.831 46.3919H105.581V49.9719H104.851V49.5319H99.441V51.1819C99.441 51.7719 99.651 51.9219 100.731 51.9219Z" fill="white"/>
<path d="M110.001 44.8119L109.561 45.4019C109.181 45.1019 108.441 44.6119 107.901 44.2619L108.331 43.7519C108.871 44.0619 109.621 44.5219 110.001 44.8119ZM109.531 47.4119L109.091 48.0119C108.711 47.7219 107.971 47.2519 107.411 46.9419L107.841 46.4219C108.381 46.7219 109.141 47.1419 109.531 47.4119ZM109.141 49.0119L109.721 49.4219C109.311 50.4719 108.751 51.7019 108.281 52.6219L107.621 52.2119C108.061 51.4419 108.681 50.1319 109.141 49.0119ZM111.121 44.8019V46.8519C111.121 48.5919 110.951 51.0619 109.771 52.7319C109.651 52.6019 109.331 52.4119 109.161 52.3419C110.291 50.7419 110.391 48.4919 110.391 46.8519V44.1219H116.471V44.8019H111.121ZM112.041 49.9419L112.711 50.1219C112.381 50.8519 111.881 51.6519 111.451 52.1719C111.311 52.0619 111.031 51.8919 110.851 51.7919C111.311 51.3119 111.751 50.6019 112.041 49.9419ZM112.361 47.9319V48.8119H115.401V47.9319H112.361ZM112.361 46.5219V47.3919H115.401V46.5219H112.361ZM116.091 49.3819H114.191V51.9919C114.191 52.3619 114.131 52.5519 113.851 52.6619C113.581 52.7719 113.161 52.7719 112.491 52.7619C112.461 52.5719 112.371 52.3119 112.281 52.1219C112.761 52.1419 113.201 52.1319 113.311 52.1319C113.441 52.1219 113.481 52.0919 113.481 51.9819V49.3819H111.691V45.9519H113.201C113.311 45.6319 113.431 45.2219 113.491 44.9419L114.321 45.1119C114.181 45.4019 114.041 45.6919 113.911 45.9519H116.091V49.3819ZM114.861 50.1119L115.501 49.8619C115.891 50.4719 116.391 51.2919 116.641 51.7719L115.961 52.0719C115.741 51.5719 115.251 50.7419 114.861 50.1119Z" fill="white"/>
<path d="M119.401 51.5219H124.731V50.0419H119.401V51.5219ZM124.731 47.8919H119.401V49.3419H124.731V47.8919ZM124.731 45.7019H119.401V47.1919H124.731V45.7019ZM121.911 44.9919H125.501V52.7319H124.731V52.2219H119.401V52.7819H118.661V44.9919H121.171C121.321 44.5519 121.481 44.0119 121.561 43.6219L122.411 43.7319C122.261 44.1619 122.081 44.6119 121.911 44.9919Z" fill="white"/>
<path d="M130.281 49.6719L130.421 50.3319C129.471 50.7319 128.471 51.1119 127.691 51.4219L127.451 50.6919C127.781 50.5819 128.181 50.4419 128.621 50.2819V46.7519H127.571V46.0619H128.621V43.7519H129.311V46.0619H130.261V46.7519H129.311V50.0319L130.281 49.6719ZM135.631 46.9619L136.321 47.0719C135.991 48.3719 135.531 49.4919 134.921 50.4419C135.161 51.4019 135.451 51.9619 135.791 51.9619C135.981 51.9619 136.081 51.4719 136.121 50.3219C136.261 50.4819 136.491 50.6319 136.671 50.7019C136.561 52.2019 136.351 52.6619 135.701 52.6619C135.141 52.6619 134.721 52.1019 134.411 51.1619C133.931 51.7719 133.381 52.3019 132.741 52.7319C132.641 52.5919 132.371 52.3219 132.221 52.2219C133.001 51.7419 133.651 51.1019 134.191 50.3319C133.931 49.1419 133.781 47.5819 133.711 45.8519H131.371V47.1919H133.281C133.281 47.1919 133.281 47.4019 133.271 47.4919C133.241 49.7719 133.201 50.5719 133.011 50.8219C132.891 51.0019 132.741 51.0719 132.501 51.1019C132.311 51.1219 131.961 51.1219 131.601 51.1019C131.581 50.9019 131.531 50.6419 131.431 50.4719C131.771 50.5019 132.081 50.5019 132.211 50.5019C132.331 50.5019 132.411 50.4919 132.451 50.4019C132.561 50.2519 132.601 49.6119 132.631 47.8219H131.371V48.2619C131.371 49.6619 131.201 51.5619 130.131 52.8019C130.021 52.6619 129.741 52.4219 129.581 52.3319C130.581 51.1819 130.681 49.5419 130.681 48.2519V45.1619H133.691C133.671 44.6619 133.661 44.1519 133.661 43.6319H134.371C134.371 44.1519 134.371 44.6719 134.381 45.1619H135.721C135.481 44.8419 134.991 44.3519 134.571 44.0219L135.071 43.7019C135.511 44.0219 136.021 44.4819 136.261 44.8219L135.761 45.1619H136.491V45.8519H134.401C134.451 47.2319 134.571 48.4719 134.721 49.4519C135.121 48.7119 135.411 47.8819 135.631 46.9619Z" fill="white"/>
<path d="M146.471 45.8219H142.341V47.1719H145.581V50.6719C145.581 51.1019 145.481 51.3219 145.161 51.4519C144.821 51.5719 144.261 51.5819 143.411 51.5819C143.381 51.3519 143.251 51.0519 143.151 50.8419C143.831 50.8619 144.431 50.8619 144.601 50.8619C144.781 50.8419 144.831 50.8019 144.831 50.6619V47.9019H142.341V52.7519H141.591V47.9019H139.251V51.6119H138.511V47.1719H141.591V45.8219H137.541V45.0919H141.801C141.641 44.7019 141.371 44.1819 141.141 43.7819L141.851 43.5619C142.151 44.0219 142.491 44.6519 142.631 45.0419L142.501 45.0919H146.471V45.8219Z" fill="white"/>
<path d="M69.401 64.5219H74.731V63.0419H69.401V64.5219ZM74.731 60.8919H69.401V62.3419H74.731V60.8919ZM74.731 58.7019H69.401V60.1919H74.731V58.7019ZM71.911 57.9919H75.501V65.7319H74.731V65.2219H69.401V65.7819H68.661V57.9919H71.171C71.321 57.5519 71.481 57.0119 71.561 56.6219L72.411 56.7319C72.261 57.1619 72.081 57.6119 71.911 57.9919Z" fill="white"/>
<path d="M79.861 62.1619H83.841L84.011 62.0119V61.1919H79.861V62.1619ZM84.011 58.2719H79.861V59.1419H84.011V58.2719ZM79.861 59.7119V60.6219H84.011V59.7119H79.861ZM85.721 60.1219L86.361 60.4319C85.891 61.1119 85.341 61.7219 84.731 62.2819V64.7119C84.731 65.2219 84.611 65.4519 84.251 65.5819C83.881 65.7019 83.241 65.7219 82.231 65.7219C82.191 65.5119 82.081 65.1819 81.971 64.9719C82.761 65.0019 83.511 64.9919 83.731 64.9919C83.941 64.9719 84.011 64.9019 84.011 64.7119V62.8819C82.281 64.2319 80.161 65.1819 77.911 65.8519C77.831 65.6819 77.601 65.3719 77.461 65.2319C79.511 64.7019 81.411 63.9019 82.991 62.8119H77.821V62.1619H79.131V57.6119H81.181C81.341 57.2819 81.501 56.9019 81.591 56.6119L82.431 56.7419C82.281 57.0319 82.121 57.3419 81.961 57.6119H84.731V61.3419C85.091 60.9519 85.431 60.5519 85.721 60.1219Z" fill="white"/>
<path d="M89.431 59.7319V62.6219C89.801 62.4619 90.181 62.2919 90.571 62.1419L90.721 62.8019C89.661 63.3019 88.531 63.7919 87.651 64.1819L87.361 63.4419C87.731 63.3119 88.211 63.1219 88.731 62.9019V59.7319H87.451V59.0219H88.731V56.7519H89.431V59.0219H90.601V59.7319H89.431ZM92.781 64.8719H95.191C95.771 64.8719 95.871 64.6019 95.941 63.4519C96.121 63.5819 96.401 63.7019 96.611 63.7419C96.491 65.1019 96.261 65.5419 95.211 65.5419H92.761C91.631 65.5419 91.291 65.2719 91.291 64.2019V61.0519L90.501 61.3819L90.211 60.7419L91.291 60.2819V57.5619H92.001V59.9819L93.341 59.4119V56.6319H94.051V59.1219L95.371 58.5619L95.531 58.4219L95.671 58.3119L96.191 58.5119L96.151 58.6519C96.151 60.5219 96.131 62.0119 96.051 62.3919C96.001 62.8019 95.801 62.9819 95.521 63.0519C95.241 63.1219 94.861 63.1219 94.581 63.1219C94.551 62.9219 94.491 62.6419 94.401 62.4819C94.641 62.4919 94.961 62.4919 95.071 62.4919C95.221 62.4919 95.321 62.4519 95.371 62.2319C95.421 61.9919 95.441 60.8819 95.441 59.2919L94.051 59.8819V63.5519H93.341V60.1819L92.001 60.7519V64.2119C92.001 64.7419 92.131 64.8719 92.781 64.8719Z" fill="white"/>
<path d="M101.311 58.4619H98.771C98.451 58.9619 98.111 59.4019 97.741 59.7619C97.681 59.6019 97.481 59.2219 97.361 59.0619C97.981 58.4819 98.541 57.5819 98.871 56.6619L99.531 56.8619C99.431 57.1619 99.301 57.4719 99.151 57.7619H101.311V58.4619ZM99.851 64.4419L101.181 63.7619C101.211 63.9619 101.281 64.2519 101.321 64.4019C99.491 65.3919 99.201 65.5519 99.031 65.7119C98.971 65.5319 98.811 65.2219 98.681 65.0619C98.861 64.9519 99.141 64.7219 99.141 64.3119V62.2419H97.631V61.5619H99.141V60.2119H98.121V59.5419H101.051V60.2119H99.851V61.5619H101.291V62.2419H99.851V64.4419ZM106.491 61.7819H104.391C104.761 63.2819 105.481 64.5319 106.611 65.1219C106.451 65.2619 106.221 65.5319 106.101 65.7319C105.071 65.1319 104.411 64.0319 103.971 62.6719C103.621 63.7919 102.941 64.8919 101.611 65.7619C101.501 65.6019 101.261 65.3519 101.081 65.2219C102.621 64.2919 103.231 63.0119 103.461 61.7819H101.471V61.0819H103.561C103.601 60.6119 103.611 60.1519 103.611 59.7419V59.1119H102.411C102.251 59.6419 102.071 60.1219 101.841 60.5119C101.711 60.4119 101.411 60.2319 101.241 60.1419C101.711 59.3719 101.991 58.2019 102.141 57.0319L102.831 57.1419C102.771 57.5819 102.681 58.0119 102.591 58.4219H103.611V56.6919H104.331V58.4219H106.251V59.1119H104.331V59.7419C104.331 60.1619 104.321 60.6119 104.281 61.0819H106.491V61.7819Z" fill="white"/>
<path d="M115.891 57.6719L115.461 58.1319C115.151 57.8619 114.521 57.4719 114.031 57.2319L114.451 56.8219C114.941 57.0319 115.581 57.4119 115.891 57.6719ZM108.871 62.1819L110.851 61.8219C110.831 62.0119 110.831 62.3019 110.851 62.4419C108.361 62.9519 108.031 63.0419 107.821 63.1619C107.781 63.0119 107.681 62.6819 107.591 62.4819C107.801 62.4419 108.031 62.2019 108.331 61.8319C108.521 61.6319 108.911 61.1319 109.341 60.4819C108.141 60.6419 107.901 60.7019 107.751 60.7819C107.721 60.6219 107.601 60.2719 107.521 60.0719C107.701 60.0319 107.871 59.8019 108.091 59.4619C108.301 59.1319 109.021 57.8619 109.421 56.6719L110.121 56.9919C109.681 58.0219 109.111 59.1019 108.521 59.9519L109.771 59.8319C110.001 59.4619 110.211 59.0919 110.401 58.7219L111.021 59.1019C110.381 60.2019 109.641 61.2919 108.871 62.1819ZM110.891 63.5519L111.001 64.1819L107.731 65.1519L107.581 64.4319C108.401 64.2419 109.661 63.8819 110.891 63.5519ZM115.841 61.5119L116.461 61.8019C115.961 62.5819 115.291 63.2919 114.501 63.8819C114.811 64.6119 115.191 65.0219 115.621 65.0219C115.891 65.0219 116.001 64.7819 116.041 63.9019C116.201 64.0719 116.421 64.2319 116.591 64.2919C116.461 65.4119 116.231 65.7419 115.551 65.7419C114.841 65.7419 114.311 65.2119 113.901 64.3119C113.111 64.8319 112.221 65.2719 111.291 65.5919C111.191 65.4019 111.001 65.1519 110.831 64.9819C111.851 64.6719 112.811 64.2219 113.651 63.6619C113.441 63.0319 113.291 62.2919 113.161 61.4619L111.261 61.8319L111.131 61.1619L113.071 60.8019C113.021 60.3719 112.981 59.9219 112.951 59.4619L111.471 59.6919L111.341 59.0219L112.911 58.7919C112.871 58.0919 112.851 57.3719 112.841 56.6219H113.571C113.571 57.3419 113.581 58.0219 113.611 58.6819L116.001 58.3319L116.121 58.9819L113.651 59.3619C113.691 59.8219 113.731 60.2519 113.781 60.6719L116.271 60.2019L116.401 60.8519L113.861 61.3319C113.971 62.0419 114.111 62.6819 114.271 63.2219C114.901 62.7119 115.441 62.1419 115.841 61.5119Z" fill="white"/>
<path d="M122.461 62.1619H125.441C124.881 61.8319 124.391 61.4119 123.961 60.9819C123.501 61.4419 122.991 61.8419 122.461 62.1619ZM122.701 64.7319H125.201V62.8119H122.701V64.7319ZM121.241 61.5419V62.0219C122.041 61.6819 122.831 61.1519 123.501 60.4619C123.131 60.0119 122.831 59.5419 122.581 59.0919C122.301 59.5319 121.991 59.9119 121.671 60.2419C121.561 60.1319 121.331 59.9219 121.151 59.8019V60.1019H120.001V61.5419H121.241ZM118.581 57.7019V59.4519H120.461V57.7019H118.581ZM124.951 58.3019H123.041L122.941 58.4919C123.191 58.9819 123.521 59.5019 123.931 59.9919C124.351 59.4819 124.701 58.9219 124.951 58.3019ZM125.411 57.6219L125.871 57.8319C125.551 58.8719 125.031 59.7519 124.411 60.4919C125.031 61.0919 125.791 61.6219 126.691 61.9619C126.541 62.1019 126.331 62.3919 126.231 62.5719C126.131 62.5219 126.021 62.4819 125.911 62.4319V65.7219H125.201V65.3919H122.701V65.7519H122.011V62.4219C121.811 62.5219 121.611 62.6119 121.411 62.7019C121.341 62.5519 121.191 62.3519 121.051 62.2019H120.001V63.9919C120.431 63.8919 120.871 63.7919 121.311 63.6819L121.381 64.3519C120.021 64.6819 118.601 65.0219 117.551 65.2819L117.411 64.5619L117.921 64.4519V61.0419H118.551V64.3219L119.321 64.1419V60.1019H117.921V57.0519H121.151V59.7019C121.941 58.9519 122.591 57.8319 122.961 56.6319L123.671 56.8019C123.571 57.0919 123.461 57.3819 123.351 57.6519H125.281L125.411 57.6219Z" fill="white"/>
<path d="M129.781 63.4719L130.121 62.9619C131.461 63.1119 133.171 63.4919 134.141 63.8219L133.801 64.3719C132.861 64.0319 131.141 63.6319 129.781 63.4719ZM130.771 62.2119L131.071 61.7619C131.871 61.9219 132.871 62.2419 133.431 62.4919L133.121 62.9919C132.571 62.7219 131.561 62.3819 130.771 62.2119ZM130.851 59.3219L130.791 59.3819C131.121 59.7419 131.551 60.0719 132.061 60.3619C132.601 60.0519 133.071 59.7019 133.431 59.3219H130.851ZM134.051 58.7119L134.471 58.9719C134.051 59.6319 133.421 60.2019 132.691 60.6819C133.451 61.0419 134.331 61.3119 135.201 61.4719C135.071 61.6019 134.881 61.8619 134.791 62.0319C133.851 61.8319 132.911 61.4919 132.081 61.0419C131.141 61.5519 130.101 61.9219 129.121 62.1419C129.051 61.9719 128.891 61.6819 128.771 61.5319C129.651 61.3719 130.601 61.0619 131.451 60.6719C131.051 60.4019 130.681 60.1019 130.371 59.7819C130.071 60.0519 129.771 60.2919 129.461 60.4919C129.351 60.3719 129.101 60.1419 128.951 60.0419C129.801 59.5419 130.651 58.7719 131.151 57.9619L131.761 58.1619C131.651 58.3619 131.511 58.5519 131.361 58.7419H133.931L134.051 58.7119ZM128.591 64.6919H135.401V57.7519H128.591V64.6919ZM127.871 57.0719H136.131V65.7719H135.401V65.3519H128.591V65.7719H127.871V57.0719Z" fill="white"/>
<path d="M69.401 79.0019V72.6619H67.021V71.8619H72.731V72.6619H70.351V79.0019H69.401Z" fill="white"/>
<path d="M73.3832 79.0019V71.8619H74.2332V74.5919H74.2532C74.5332 73.9719 75.2632 73.7119 75.8832 73.7119C77.2432 73.7119 77.6632 74.4919 77.6632 75.6019V79.0019H76.8132V75.5019C76.8132 74.8719 76.4132 74.4619 75.7632 74.4619C74.7332 74.4619 74.2332 75.1519 74.2332 76.0819V79.0019H73.3832Z" fill="white"/>
<path d="M82.5099 77.3619H83.3499C83.1199 78.5019 82.2999 79.1219 81.1399 79.1219C79.4899 79.1219 78.7099 77.9819 78.6599 76.4019C78.6599 74.8519 79.6799 73.7119 81.0899 73.7119C82.9199 73.7119 83.4799 75.4219 83.4299 76.6719H79.5599C79.5299 77.5719 80.0399 78.3719 81.1699 78.3719C81.8699 78.3719 82.3599 78.0319 82.5099 77.3619ZM79.5599 75.9219H82.5299C82.4899 75.1119 81.8799 74.4619 81.0399 74.4619C80.1499 74.4619 79.6199 75.1319 79.5599 75.9219Z" fill="white"/>
<path d="M87.1442 79.0019V71.8619H87.9942V79.0019H87.1442Z" fill="white"/>
<path d="M89.361 79.0019V73.8319H90.211V79.0019H89.361ZM90.211 71.8619V72.9019H89.361V71.8619H90.211Z" fill="white"/>
<path d="M91.5277 79.0019V73.8319H92.3278V74.6519H92.3477C92.7077 74.0119 93.2877 73.7119 94.0277 73.7119C95.3877 73.7119 95.8077 74.4919 95.8077 75.6019V79.0019H94.9577V75.5019C94.9577 74.8719 94.5578 74.4619 93.9078 74.4619C92.8778 74.4619 92.3777 75.1519 92.3777 76.0819V79.0019H91.5277Z" fill="white"/>
<path d="M100.654 77.3619H101.494C101.264 78.5019 100.444 79.1219 99.2844 79.1219C97.6344 79.1219 96.8544 77.9819 96.8044 76.4019C96.8044 74.8519 97.8244 73.7119 99.2344 73.7119C101.064 73.7119 101.624 75.4219 101.574 76.6719H97.7044C97.6744 77.5719 98.1844 78.3719 99.3144 78.3719C100.014 78.3719 100.504 78.0319 100.654 77.3619ZM97.7044 75.9219H100.674C100.634 75.1119 100.024 74.4619 99.1844 74.4619C98.2944 74.4619 97.7644 75.1319 97.7044 75.9219Z" fill="white"/>
<path d="M109.629 75.4919H108.749C108.619 74.8419 108.169 74.4619 107.469 74.4619C106.239 74.4619 105.859 75.4319 105.859 76.4819C105.859 77.4319 106.289 78.3719 107.369 78.3719C108.189 78.3719 108.679 77.8919 108.789 77.1119H109.659C109.469 78.3719 108.679 79.1219 107.379 79.1219C105.799 79.1219 104.959 78.0219 104.959 76.4819C104.959 74.9319 105.759 73.7119 107.399 73.7119C108.569 73.7119 109.509 74.2619 109.629 75.4919Z" fill="white"/>
<path d="M110.33 76.4219C110.33 74.9019 111.2 73.7119 112.84 73.7119C114.48 73.7119 115.35 74.9019 115.35 76.4219C115.35 77.9319 114.48 79.1219 112.84 79.1219C111.2 79.1219 110.33 77.9319 110.33 76.4219ZM111.23 76.4219C111.23 77.6719 111.95 78.3719 112.84 78.3719C113.73 78.3719 114.45 77.6719 114.45 76.4219C114.45 75.1619 113.73 74.4619 112.84 74.4619C111.95 74.4619 111.23 75.1619 111.23 76.4219Z" fill="white"/>
<path d="M116.402 79.0019V71.8619H117.252V79.0019H116.402Z" fill="white"/>
<path d="M118.289 76.4219C118.289 74.9019 119.159 73.7119 120.799 73.7119C122.439 73.7119 123.309 74.9019 123.309 76.4219C123.309 77.9319 122.439 79.1219 120.799 79.1219C119.159 79.1219 118.289 77.9319 118.289 76.4219ZM119.189 76.4219C119.189 77.6719 119.909 78.3719 120.799 78.3719C121.689 78.3719 122.409 77.6719 122.409 76.4219C122.409 75.1619 121.689 74.4619 120.799 74.4619C119.909 74.4619 119.189 75.1619 119.189 76.4219Z" fill="white"/>
<path d="M124.281 79.0019V73.8319H125.081V74.9219H125.101C125.511 74.0919 126.081 73.6819 127.001 73.7119V74.6119C125.631 74.6119 125.131 75.3919 125.131 76.7019V79.0019H124.281Z" fill="white"/>
<path d="M127.311 77.3719H128.161C128.191 78.1319 128.851 78.3719 129.551 78.3719C130.081 78.3719 130.801 78.2519 130.801 77.6019C130.801 76.9419 129.961 76.8319 129.111 76.6419C128.271 76.4519 127.421 76.1719 127.421 75.1819C127.421 74.1419 128.451 73.7119 129.351 73.7119C130.491 73.7119 131.401 74.0719 131.471 75.3319H130.621C130.561 74.6719 129.981 74.4619 129.421 74.4619C128.911 74.4619 128.321 74.6019 128.321 75.1219C128.321 75.7319 129.221 75.8319 130.011 76.0219C130.861 76.2119 131.701 76.4919 131.701 77.4919C131.701 78.7219 130.551 79.1219 129.501 79.1219C128.341 79.1219 127.361 78.6519 127.311 77.3719Z" fill="white"/>
<path d="M138.624 77.2019V76.3319C138.294 76.5719 137.654 76.5819 137.084 76.6819C136.524 76.7819 136.044 76.9819 136.044 77.6119C136.044 78.1719 136.524 78.3719 137.044 78.3719C138.164 78.3719 138.624 77.6719 138.624 77.2019ZM140.004 78.3219V78.9819C139.854 79.0719 139.664 79.1219 139.394 79.1219C138.954 79.1219 138.674 78.8819 138.674 78.3219C138.204 78.8719 137.574 79.1219 136.854 79.1219C135.914 79.1219 135.144 78.7019 135.144 77.6719C135.144 76.5019 136.014 76.2519 136.894 76.0819C137.834 75.9019 138.634 75.9619 138.634 75.3219C138.634 74.5819 138.024 74.4619 137.484 74.4619C136.764 74.4619 136.234 74.6819 136.194 75.4419H135.344C135.394 74.1619 136.384 73.7119 137.534 73.7119C138.464 73.7119 139.474 73.9219 139.474 75.1319V77.7919C139.474 78.1919 139.474 78.3719 139.744 78.3719C139.814 78.3719 139.894 78.3619 140.004 78.3219Z" fill="white"/>
<path d="M140.765 79.0019V73.8319H141.565V74.9219H141.585C141.995 74.0919 142.565 73.6819 143.485 73.7119V74.6119C142.115 74.6119 141.615 75.3919 141.615 76.7019V79.0019H140.765Z" fill="white"/>
<path d="M147.52 77.3619H148.36C148.13 78.5019 147.31 79.1219 146.15 79.1219C144.5 79.1219 143.72 77.9819 143.67 76.4019C143.67 74.8519 144.69 73.7119 146.1 73.7119C147.93 73.7119 148.49 75.4219 148.44 76.6719H144.57C144.54 77.5719 145.05 78.3719 146.18 78.3719C146.88 78.3719 147.37 78.0319 147.52 77.3619ZM144.57 75.9219H147.54C147.5 75.1119 146.89 74.4619 146.05 74.4619C145.16 74.4619 144.63 75.1319 144.57 75.9219Z" fill="white"/>
<path d="M67.311 87.3719H68.161C68.191 88.1319 68.851 88.3719 69.551 88.3719C70.081 88.3719 70.801 88.2519 70.801 87.6019C70.801 86.9419 69.961 86.8319 69.111 86.6419C68.271 86.4519 67.421 86.1719 67.421 85.1819C67.421 84.1419 68.451 83.7119 69.351 83.7119C70.491 83.7119 71.401 84.0719 71.471 85.3319H70.621C70.561 84.6719 69.981 84.4619 69.421 84.4619C68.911 84.4619 68.321 84.6019 68.321 85.1219C68.321 85.7319 69.221 85.8319 70.011 86.0219C70.861 86.2119 71.701 86.4919 71.701 87.4919C71.701 88.7219 70.551 89.1219 69.501 89.1219C68.341 89.1219 67.361 88.6519 67.311 87.3719Z" fill="white"/>
<path d="M76.211 87.3619H77.051C76.821 88.5019 76.001 89.1219 74.841 89.1219C73.191 89.1219 72.411 87.9819 72.361 86.4019C72.361 84.8519 73.381 83.7119 74.791 83.7119C76.621 83.7119 77.181 85.4219 77.131 86.6719H73.261C73.231 87.5719 73.741 88.3719 74.871 88.3719C75.571 88.3719 76.061 88.0319 76.211 87.3619ZM73.261 85.9219H76.231C76.191 85.1119 75.581 84.4619 74.741 84.4619C73.851 84.4619 73.321 85.1319 73.261 85.9219Z" fill="white"/>
<path d="M78.0621 89.0019V81.8619H78.9121V89.0019H78.0621Z" fill="white"/>
<path d="M83.7989 87.3619H84.6389C84.4089 88.5019 83.5889 89.1219 82.4289 89.1219C80.7789 89.1219 79.9989 87.9819 79.9489 86.4019C79.9489 84.8519 80.9689 83.7119 82.3789 83.7119C84.2089 83.7119 84.7689 85.4219 84.7189 86.6719H80.8489C80.8189 87.5719 81.3289 88.3719 82.4589 88.3719C83.1589 88.3719 83.6489 88.0319 83.7989 87.3619ZM80.8489 85.9219H83.8189C83.7789 85.1119 83.1689 84.4619 82.3289 84.4619C81.4389 84.4619 80.9089 85.1319 80.8489 85.9219Z" fill="white"/>
<path d="M89.99 85.4919H89.11C88.98 84.8419 88.53 84.4619 87.83 84.4619C86.6 84.4619 86.22 85.4319 86.22 86.4819C86.22 87.4319 86.65 88.3719 87.73 88.3719C88.55 88.3719 89.04 87.8919 89.15 87.1119H90.02C89.83 88.3719 89.04 89.1219 87.74 89.1219C86.16 89.1219 85.32 88.0219 85.32 86.4819C85.32 84.9319 86.12 83.7119 87.76 83.7119C88.93 83.7119 89.87 84.2619 89.99 85.4919Z" fill="white"/>
<path d="M92.1511 82.2819V83.8319H93.1811V84.5819H92.1511V87.7919C92.1511 88.1819 92.2611 88.2519 92.7911 88.2519H93.1811V89.0019H92.5311C91.6511 89.0019 91.3011 88.8219 91.3011 87.8719V84.5819H90.4211V83.8319H91.3011V82.2819H92.1511Z" fill="white"/>
<path d="M97.6954 87.3619H98.5354C98.3054 88.5019 97.4854 89.1219 96.3254 89.1219C94.6754 89.1219 93.8954 87.9819 93.8454 86.4019C93.8454 84.8519 94.8654 83.7119 96.2754 83.7119C98.1054 83.7119 98.6654 85.4219 98.6154 86.6719H94.7454C94.7154 87.5719 95.2254 88.3719 96.3554 88.3719C97.0554 88.3719 97.5454 88.0319 97.6954 87.3619ZM94.7454 85.9219H97.7154C97.6754 85.1119 97.0654 84.4619 96.2254 84.4619C95.3354 84.4619 94.8054 85.1319 94.7454 85.9219Z" fill="white"/>
<path d="M104.117 81.8619V89.0019H103.267V88.3019H103.246C102.966 88.8719 102.306 89.1219 101.596 89.1219C100.006 89.1219 99.2165 87.8619 99.2165 86.4019C99.2165 84.9419 99.9965 83.7119 101.576 83.7119C102.106 83.7119 102.866 83.9119 103.246 84.5219H103.267V81.8619H104.117ZM100.117 86.4619C100.117 87.4319 100.616 88.3719 101.716 88.3719C102.856 88.3719 103.297 87.3919 103.297 86.4219C103.297 85.4019 102.837 84.4619 101.667 84.4619C100.507 84.4619 100.117 85.4519 100.117 86.4619Z" fill="white"/>
<path d="M108.557 89.0019V84.5819H107.687V83.8319H108.557V83.0619C108.557 82.2219 109.057 81.7819 109.987 81.7819C110.147 81.7819 110.377 81.8119 110.537 81.8619V82.6019C110.387 82.5519 110.207 82.5319 110.057 82.5319C109.647 82.5319 109.407 82.6619 109.407 83.1119V83.8319H110.407V84.5819H109.407V89.0019H108.557Z" fill="white"/>
<path d="M111.136 89.0019V83.8319H111.936V84.9219H111.956C112.366 84.0919 112.936 83.6819 113.856 83.7119V84.6119C112.486 84.6119 111.986 85.3919 111.986 86.7019V89.0019H111.136Z" fill="white"/>
<path d="M114.041 86.4219C114.041 84.9019 114.911 83.7119 116.551 83.7119C118.191 83.7119 119.061 84.9019 119.061 86.4219C119.061 87.9319 118.191 89.1219 116.551 89.1219C114.911 89.1219 114.041 87.9319 114.041 86.4219ZM114.941 86.4219C114.941 87.6719 115.661 88.3719 116.551 88.3719C117.441 88.3719 118.161 87.6719 118.161 86.4219C118.161 85.1619 117.441 84.4619 116.551 84.4619C115.661 84.4619 114.941 85.1619 114.941 86.4219Z" fill="white"/>
<path d="M120.063 89.0019V83.8319H120.863V84.5919H120.883C121.263 84.0119 121.843 83.7119 122.553 83.7119C123.183 83.7119 123.763 83.9619 123.973 84.5919C124.323 84.0419 124.933 83.7119 125.593 83.7119C126.623 83.7119 127.313 84.1419 127.313 85.2119V89.0019H126.463V85.6119C126.463 84.9719 126.293 84.4619 125.463 84.4619C124.643 84.4619 124.113 84.9819 124.113 85.7819V89.0019H123.263V85.6119C123.263 84.9419 123.053 84.4619 122.293 84.4619C121.283 84.4619 120.913 85.3919 120.913 85.7819V89.0019H120.063Z" fill="white"/>
<path d="M132.551 82.2819V83.8319H133.581V84.5819H132.551V87.7919C132.551 88.1819 132.661 88.2519 133.191 88.2519H133.581V89.0019H132.932C132.052 89.0019 131.702 88.8219 131.702 87.8719V84.5819H130.822V83.8319H131.702V82.2819H132.551Z" fill="white"/>
<path d="M134.526 89.0019V81.8619H135.376V84.5919H135.396C135.676 83.9719 136.406 83.7119 137.026 83.7119C138.386 83.7119 138.806 84.4919 138.806 85.6019V89.0019H137.956V85.5019C137.956 84.8719 137.556 84.4619 136.906 84.4619C135.876 84.4619 135.376 85.1519 135.376 86.0819V89.0019H134.526Z" fill="white"/>
<path d="M143.652 87.3619H144.492C144.262 88.5019 143.442 89.1219 142.282 89.1219C140.632 89.1219 139.852 87.9819 139.802 86.4019C139.802 84.8519 140.822 83.7119 142.232 83.7119C144.062 83.7119 144.622 85.4219 144.572 86.6719H140.702C140.672 87.5719 141.182 88.3719 142.312 88.3719C143.012 88.3719 143.502 88.0319 143.652 87.3619ZM140.702 85.9219H143.672C143.632 85.1119 143.022 84.4619 142.182 84.4619C141.292 84.4619 140.762 85.1319 140.702 85.9219Z" fill="white"/>
<path d="M152.627 85.4919H151.747C151.617 84.8419 151.167 84.4619 150.467 84.4619C149.237 84.4619 148.857 85.4319 148.857 86.4819C148.857 87.4319 149.287 88.3719 150.367 88.3719C151.187 88.3719 151.677 87.8919 151.787 87.1119H152.657C152.467 88.3719 151.677 89.1219 150.377 89.1219C148.797 89.1219 147.957 88.0219 147.957 86.4819C147.957 84.9319 148.757 83.7119 150.397 83.7119C151.567 83.7119 152.507 84.2619 152.627 85.4919Z" fill="white"/>
<path d="M153.658 89.0019V83.8319H154.508V89.0019H153.658ZM154.508 81.8619V82.9019H153.658V81.8619H154.508Z" fill="white"/>
<path d="M157.005 82.2819V83.8319H158.035V84.5819H157.005V87.7919C157.005 88.1819 157.115 88.2519 157.645 88.2519H158.035V89.0019H157.385C156.505 89.0019 156.155 88.8219 156.155 87.8719V84.5819H155.275V83.8319H156.155V82.2819H157.005Z" fill="white"/>
<path d="M163.259 83.8319L161.009 89.6919C160.619 90.7019 160.269 91.0719 159.509 91.0719C159.309 91.0719 159.109 91.0519 158.919 90.9819V90.2019C159.079 90.2519 159.249 90.3219 159.419 90.3219C159.769 90.3219 159.959 90.1519 160.119 89.8519L160.469 88.9719L158.419 83.8319H159.379L160.889 88.0619H160.909L162.359 83.8319H163.259Z" fill="white"/>
<path d="M164.389 84.4419V81.8619H165.069V84.4419H164.389Z" fill="white"/>
<path d="M166.432 87.3719H167.282C167.312 88.1319 167.972 88.3719 168.672 88.3719C169.202 88.3719 169.922 88.2519 169.922 87.6019C169.922 86.9419 169.082 86.8319 168.232 86.6419C167.392 86.4519 166.542 86.1719 166.542 85.1819C166.542 84.1419 167.572 83.7119 168.472 83.7119C169.612 83.7119 170.522 84.0719 170.592 85.3319H169.742C169.682 84.6719 169.102 84.4619 168.542 84.4619C168.032 84.4619 167.442 84.6019 167.442 85.1219C167.442 85.7319 168.342 85.8319 169.132 86.0219C169.982 86.2119 170.822 86.4919 170.822 87.4919C170.822 88.7219 169.672 89.1219 168.622 89.1219C167.462 89.1219 166.482 88.6519 166.432 87.3719Z" fill="white"/>
<path d="M67.361 96.4219C67.361 94.9019 68.231 93.7119 69.871 93.7119C71.511 93.7119 72.381 94.9019 72.381 96.4219C72.381 97.9319 71.511 99.1219 69.871 99.1219C68.231 99.1219 67.361 97.9319 67.361 96.4219ZM68.261 96.4219C68.261 97.6719 68.981 98.3719 69.871 98.3719C70.761 98.3719 71.481 97.6719 71.481 96.4219C71.481 95.1619 70.761 94.4619 69.871 94.4619C68.981 94.4619 68.261 95.1619 68.261 96.4219Z" fill="white"/>
<path d="M80.1532 93.8319L78.5032 99.0019H77.6032L76.5532 94.8919H76.5332L75.4932 99.0019H74.5732L72.9132 93.8319H73.8532L75.0232 98.0619H75.0432L76.0832 93.8319H77.0132L78.0932 98.0619H78.1132L79.2732 93.8319H80.1532Z" fill="white"/>
<path d="M80.9613 99.0019V93.8319H81.7613V94.6519H81.7813C82.1413 94.0119 82.7213 93.7119 83.4613 93.7119C84.8213 93.7119 85.2413 94.4919 85.2413 95.6019V99.0019H84.3913V95.5019C84.3913 94.8719 83.9913 94.4619 83.3413 94.4619C82.3113 94.4619 81.8113 95.1519 81.8113 96.0819V99.0019H80.9613Z" fill="white"/>
<path d="M89.3012 99.0019V93.8319H90.1012V94.5919H90.1212C90.5012 94.0119 91.0812 93.7119 91.7912 93.7119C92.4212 93.7119 93.0012 93.9619 93.2112 94.5919C93.5612 94.0419 94.1712 93.7119 94.8312 93.7119C95.8612 93.7119 96.5512 94.1419 96.5512 95.2119V99.0019H95.7012V95.6119C95.7012 94.9719 95.5312 94.4619 94.7012 94.4619C93.8812 94.4619 93.3512 94.9819 93.3512 95.7819V99.0019H92.5012V95.6119C92.5012 94.9419 92.2912 94.4619 91.5312 94.4619C90.5212 94.4619 90.1512 95.3919 90.1512 95.7819V99.0019H89.3012Z" fill="white"/>
<path d="M101.397 97.3619H102.237C102.007 98.5019 101.187 99.1219 100.027 99.1219C98.3766 99.1219 97.5966 97.9819 97.5466 96.4019C97.5466 94.8519 98.5666 93.7119 99.9766 93.7119C101.807 93.7119 102.367 95.4219 102.317 96.6719H98.4466C98.4166 97.5719 98.9266 98.3719 100.057 98.3719C100.757 98.3719 101.247 98.0319 101.397 97.3619ZM98.4466 95.9219H101.417C101.377 95.1119 100.767 94.4619 99.9266 94.4619C99.0366 94.4619 98.5066 95.1319 98.4466 95.9219Z" fill="white"/>
<path d="M104.378 92.2819V93.8319H105.408V94.5819H104.378V97.7919C104.378 98.1819 104.488 98.2519 105.018 98.2519H105.408V99.0019H104.758C103.878 99.0019 103.528 98.8219 103.528 97.8719V94.5819H102.648V93.8319H103.528V92.2819H104.378Z" fill="white"/>
<path d="M106.322 99.0019V93.8319H107.122V94.9219H107.142C107.552 94.0919 108.122 93.6819 109.042 93.7119V94.6119C107.672 94.6119 107.172 95.3919 107.172 96.7019V99.0019H106.322Z" fill="white"/>
<path d="M109.226 96.4219C109.226 94.9019 110.096 93.7119 111.736 93.7119C113.376 93.7119 114.246 94.9019 114.246 96.4219C114.246 97.9319 113.376 99.1219 111.736 99.1219C110.096 99.1219 109.226 97.9319 109.226 96.4219ZM110.126 96.4219C110.126 97.6719 110.846 98.3719 111.736 98.3719C112.626 98.3719 113.346 97.6719 113.346 96.4219C113.346 95.1619 112.626 94.4619 111.736 94.4619C110.846 94.4619 110.126 95.1619 110.126 96.4219Z" fill="white"/>
<path d="M118.032 99.0019V93.8319H118.832V94.5919H118.852C119.232 94.0119 119.812 93.7119 120.522 93.7119C121.152 93.7119 121.732 93.9619 121.942 94.5919C122.292 94.0419 122.902 93.7119 123.562 93.7119C124.592 93.7119 125.282 94.1419 125.282 95.2119V99.0019H124.432V95.6119C124.432 94.9719 124.262 94.4619 123.432 94.4619C122.612 94.4619 122.082 94.9819 122.082 95.7819V99.0019H121.232V95.6119C121.232 94.9419 121.022 94.4619 120.262 94.4619C119.252 94.4619 118.882 95.3919 118.882 95.7819V99.0019H118.032Z" fill="white"/>
<path d="M129.757 97.2019V96.3319C129.427 96.5719 128.787 96.5819 128.217 96.6819C127.657 96.7819 127.177 96.9819 127.177 97.6119C127.177 98.1719 127.657 98.3719 128.177 98.3719C129.297 98.3719 129.757 97.6719 129.757 97.2019ZM131.137 98.3219V98.9819C130.987 99.0719 130.797 99.1219 130.527 99.1219C130.087 99.1219 129.807 98.8819 129.807 98.3219C129.337 98.8719 128.707 99.1219 127.987 99.1219C127.047 99.1219 126.277 98.7019 126.277 97.6719C126.277 96.5019 127.147 96.2519 128.027 96.0819C128.967 95.9019 129.767 95.9619 129.767 95.3219C129.767 94.5819 129.157 94.4619 128.617 94.4619C127.897 94.4619 127.367 94.6819 127.327 95.4419H126.477C126.527 94.1619 127.517 93.7119 128.667 93.7119C129.597 93.7119 130.607 93.9219 130.607 95.1319V97.7919C130.607 98.1919 130.607 98.3719 130.877 98.3719C130.947 98.3719 131.027 98.3619 131.137 98.3219Z" fill="white"/>
<path d="M135.958 96.3719C135.958 95.4019 135.458 94.4619 134.358 94.4619C133.218 94.4619 132.778 95.4419 132.778 96.4119C132.778 97.4319 133.238 98.3719 134.408 98.3719C135.568 98.3719 135.958 97.3819 135.958 96.3719ZM131.958 100.982V93.8319H132.808V94.5319H132.828C133.108 93.9619 133.768 93.7119 134.478 93.7119C136.068 93.7119 136.858 94.9719 136.858 96.4319C136.858 97.8919 136.078 99.1219 134.498 99.1219C133.968 99.1219 133.208 98.9219 132.828 98.3119H132.808V100.982H131.958Z" fill="white"/>
<path d="M0.5 44.5H56.5V100.5H0.5V44.5Z" stroke="#D9D9D9"/>
<mask id="mask0_1607_2731" style="mask-type:alpha" maskUnits="userSpaceOnUse" x="0" y="44" width="57" height="57">
<rect y="44" width="57" height="57" fill="#D9D9D9"/>
</mask>
<g mask="url(#mask0_1607_2731)">
<rect opacity="0.9" x="59.2227" y="59.9648" width="11.4256" height="63.84" transform="rotate(87.5384 59.2227 59.9648)" fill="#1AE5B9"/>
<rect opacity="0.9" x="19.3789" y="41.7227" width="6.84" height="63.84" fill="#1CBCF6"/>
<rect opacity="0.9" x="-2.14062" y="78.1367" width="6.84" height="63.84" transform="rotate(-91.9604 -2.14062 78.1367)" fill="#E5ACCC"/>
<rect opacity="0.9" x="-2.36133" y="89.7773" width="4.66023" height="63.84" transform="rotate(-84.2758 -2.36133 89.7773)" fill="#E5625B"/>
<rect opacity="0.9" x="17.1055" y="40.4258" width="6.84" height="77.6428" transform="rotate(-28.513 17.1055 40.4258)" fill="#0E8E9E"/>
<rect opacity="0.9" x="39.8945" y="41.7227" width="6.84" height="63.84" fill="#8FE348"/>
<rect opacity="0.9" x="55.1816" y="29.5312" width="6.84" height="97.3433" transform="rotate(35.7381 55.1816 29.5312)" fill="#0F6EDA"/>
<rect opacity="0.9" x="25.2637" y="39.4219" width="9.12" height="75.1139" transform="rotate(18.9235 25.2637 39.4219)" fill="#D2282E"/>
<rect opacity="0.9" x="-9.12109" y="41.3945" width="3.42" height="85.0083" transform="rotate(-35.1318 -9.12109 41.3945)" fill="#E5A807"/>
</g>
</svg>
